OpenSans-Bold.ufo
<glyph name="exclam" format="2">
  <advance width="586"/>
  <unicode hex="0021"/>
  <note>
exclam
</note>
  <outline>
    <contour>
      <point x="169" y="474" type="line"/>
      <point x="418" y="474" type="line"/>
      <point x="462" y="1462" type="line"/>
      <point x="124" y="1462" type="line"/>
    </contour>
    <contour>
      <point x="292" y="-23" type="curve" smooth="yes"/>
      <point x="400" y="-23"/>
      <point x="462" y="36"/>
      <point x="462" y="140" type="curve" smooth="yes"/>
      <point x="462" y="244"/>
      <point x="404" y="303"/>
      <point x="292" y="303" type="curve" smooth="yes"/>
      <point x="180" y="303"/>
      <point x="120" y="244"/>
      <point x="120" y="140" type="curve" smooth="yes"/>
      <point x="120" y="36"/>
      <point x="184" y="-23"/>
    </contour>
  </outline>
</glyph>
<glyph name="numbersign" format="2">
  <advance width="1323"/>
  <unicode hex="0023"/>
  <note>
numbersign
</note>
  <outline>
    <contour>
      <point x="212" y="0" type="line"/>
      <point x="425" y="0" type="line"/>
      <point x="500" y="409" type="line"/>
      <point x="726" y="409" type="line"/>
      <point x="649" y="0" type="line"/>
      <point x="863" y="0" type="line"/>
      <point x="941" y="409" type="line"/>
      <point x="1240" y="409" type="line"/>
      <point x="1240" y="610" type="line"/>
      <point x="979" y="610" type="line"/>
      <point x="1022" y="848" type="line"/>
      <point x="1307" y="848" type="line"/>
      <point x="1307" y="1053" type="line"/>
      <point x="1061" y="1053" type="line"/>
      <point x="1138" y="1462" type="line"/>
      <point x="925" y="1462" type="line"/>
      <point x="848" y="1053" type="line"/>
      <point x="623" y="1053" type="line"/>
      <point x="701" y="1462" type="line"/>
      <point x="486" y="1462" type="line"/>
      <point x="410" y="1053" type="line"/>
      <point x="116" y="1053" type="line"/>
      <point x="116" y="848" type="line"/>
      <point x="371" y="848" type="line"/>
      <point x="327" y="610" type="line"/>
      <point x="45" y="610" type="line"/>
      <point x="45" y="409" type="line"/>
      <point x="288" y="409" type="line"/>
    </contour>
    <contour>
      <point x="540" y="610" type="line"/>
      <point x="584" y="848" type="line"/>
      <point x="809" y="848" type="line"/>
      <point x="764" y="610" type="line"/>
    </contour>
  </outline>
</glyph>
<glyph name="parenleft" format="2">
  <advance width="694"/>
  <unicode hex="0028"/>
  <note>
parenleft
</note>
  <outline>
    <contour>
      <point x="369" y="-324" type="curve"/>
      <point x="629" y="-324" type="line"/>
      <point x="448" y="-77"/>
      <point x="356" y="237"/>
      <point x="356" y="578" type="curve" smooth="yes"/>
      <point x="356" y="932"/>
      <point x="454" y="1255"/>
      <point x="631" y="1491" type="curve"/>
      <point x="369" y="1491" type="line"/>
      <point x="181" y="1267"/>
      <point x="82" y="952"/>
      <point x="82" y="576" type="curve" smooth="yes"/>
      <point x="82" y="202"/>
      <point x="182" y="-108"/>
    </contour>
  </outline>
</glyph>
<glyph name="comma" format="2">
  <advance width="594"/>
  <unicode hex="002C"/>
  <outline>
    <contour>
      <point x="63" y="-279" type="curve"/>
      <point x="278" y="-279" type="line"/>
      <point x="335" y="-151"/>
      <point x="393" y="27"/>
      <point x="453" y="258" type="curve"/>
      <point x="440" y="281" type="line"/>
      <point x="166" y="281" type="line"/>
      <point x="148" y="139"/>
      <point x="106" y="-95"/>
    </contour>
  </outline>
</glyph>
<glyph name="hyphen" format="2">
  <advance width="659"/>
  <unicode hex="002D"/>
  <outline>
    <contour>
      <point x="61" y="429" type="line"/>
      <point x="599" y="429" type="line"/>
      <point x="599" y="672" type="line"/>
      <point x="61" y="672" type="line"/>
    </contour>
  </outline>
</glyph>
<glyph name="colon" format="2">
  <advance width="584"/>
  <unicode hex="003A"/>
  <note>
colon
</note>
  <outline>
    <contour>
      <point x="295" y="796" type="curve" smooth="yes"/>
      <point x="399" y="796"/>
      <point x="463" y="855"/>
      <point x="463" y="960" type="curve" smooth="yes"/>
      <point x="463" y="1065"/>
      <point x="404" y="1124"/>
      <point x="295" y="1124" type="curve" smooth="yes"/>
      <point x="183" y="1124"/>
      <point x="122" y="1065"/>
      <point x="122" y="960" type="curve" smooth="yes"/>
      <point x="122" y="855"/>
      <point x="186" y="796"/>
    </contour>
    <contour>
      <point x="295" y="-23" type="curve" smooth="yes"/>
      <point x="401" y="-23"/>
      <point x="463" y="36"/>
      <point x="463" y="140" type="curve" smooth="yes"/>
      <point x="463" y="245"/>
      <point x="404" y="303"/>
      <point x="295" y="303" type="curve" smooth="yes"/>
      <point x="182" y="303"/>
      <point x="122" y="245"/>
      <point x="122" y="140" type="curve" smooth="yes"/>
      <point x="122" y="35"/>
      <point x="187" y="-23"/>
    </contour>
  </outline>
</glyph>
<glyph name="greater" format="2">
  <advance width="1169"/>
  <unicode hex="003E"/>
  <note>
greater
</note>
  <outline>
    <contour>
      <point x="88" y="204" type="line"/>
      <point x="1080" y="644" type="line"/>
      <point x="1080" y="782" type="line"/>
      <point x="88" y="1279" type="line"/>
      <point x="88" y="1042" type="line"/>
      <point x="769" y="723" type="line"/>
      <point x="88" y="440" type="line"/>
    </contour>
  </outline>
</glyph>
<glyph name="C" format="2">
  <advance width="1305"/>
  <unicode hex="0043"/>
  <anchor x="759" y="0" name="bottom"/>
  <anchor x="764" y="1462" name="top"/>
  <outline>
    <contour>
      <point x="797" y="-20" type="curve" smooth="yes"/>
      <point x="948" y="-20"/>
      <point x="1081" y="4"/>
      <point x="1195" y="52" type="curve"/>
      <point x="1195" y="313" type="line"/>
      <point x="1078" y="268"/>
      <point x="961" y="234"/>
      <point x="834" y="234" type="curve" smooth="yes"/>
      <point x="737" y="234"/>
      <point x="658" y="258"/>
      <point x="596" y="306" type="curve" smooth="yes"/>
      <point x="495" y="381"/>
      <point x="437" y="517"/>
      <point x="437" y="727" type="curve" smooth="yes"/>
      <point x="437" y="1040"/>
      <point x="582" y="1229"/>
      <point x="824" y="1229" type="curve" smooth="yes"/>
      <point x="946" y="1229"/>
      <point x="1052" y="1193"/>
      <point x="1160" y="1142" type="curve"/>
      <point x="1257" y="1387" type="line"/>
      <point x="1122" y="1451"/>
      <point x="978" y="1483"/>
      <point x="825" y="1483" type="curve" smooth="yes"/>
      <point x="681" y="1483"/>
      <point x="556" y="1453"/>
      <point x="450" y="1391" type="curve" smooth="yes"/>
      <point x="237" y="1266"/>
      <point x="119" y="1031"/>
      <point x="119" y="729" type="curve" smooth="yes"/>
      <point x="119" y="248"/>
      <point x="365" y="-20"/>
    </contour>
  </outline>
</glyph>
<glyph name="E" format="2">
  <advance width="1147"/>
  <unicode hex="0045"/>
  <anchor x="574" y="0" name="bottom"/>
  <anchor x="1025" y="10" name="ogonek"/>
  <anchor x="574" y="1462" name="top"/>
  <anchor x="31" y="1462" name="topleft"/>
  <outline>
    <contour>
      <point x="1031" y="254" type="line"/>
      <point x="491" y="254" type="line"/>
      <point x="491" y="635" type="line"/>
      <point x="995" y="635" type="line"/>
      <point x="995" y="885" type="line"/>
      <point x="491" y="885" type="line"/>
      <point x="491" y="1212" type="line"/>
      <point x="1031" y="1212" type="line"/>
      <point x="1031" y="1462" type="line"/>
      <point x="184" y="1462" type="line"/>
      <point x="184" y="0" type="line"/>
      <point x="1031" y="0" type="line"/>
    </contour>
  </outline>
</glyph>
<glyph name="F" format="2">
  <advance width="1124"/>
  <unicode hex="0046"/>
  <anchor x="552" y="0" name="bottom"/>
  <anchor x="552" y="1462" name="top"/>
  <outline>
    <contour>
      <point x="487" y="580" type="line"/>
      <point x="991" y="580" type="line"/>
      <point x="991" y="831" type="line"/>
      <point x="487" y="831" type="line"/>
      <point x="487" y="1212" type="line"/>
      <point x="1029" y="1212" type="line"/>
      <point x="1029" y="1462" type="line"/>
      <point x="184" y="1462" type="line"/>
      <point x="184" y="0" type="line"/>
      <point x="487" y="0" type="line"/>
    </contour>
  </outline>
</glyph>
<glyph name="P" format="2">
  <advance width="1286"/>
  <unicode hex="0050"/>
  <anchor x="644" y="0" name="bottom"/>
  <anchor x="644" y="1462" name="top"/>
  <outline>
    <contour>
      <point x="184" y="0" type="line"/>
      <point x="491" y="0" type="line"/>
      <point x="491" y="521" type="line"/>
      <point x="636" y="521" type="line" smooth="yes"/>
      <point x="990" y="521"/>
      <point x="1190" y="697"/>
      <point x="1190" y="1010" type="curve" smooth="yes"/>
      <point x="1190" y="1302"/>
      <point x="1008" y="1462"/>
      <point x="645" y="1462" type="curve" smooth="yes"/>
      <point x="184" y="1462" type="line"/>
    </contour>
    <contour>
      <point x="491" y="772" type="line"/>
      <point x="491" y="1211" type="line"/>
      <point x="635" y="1211" type="line" smooth="yes"/>
      <point x="798" y="1211"/>
      <point x="877" y="1145"/>
      <point x="877" y="1008" type="curve" smooth="yes"/>
      <point x="877" y="853"/>
      <point x="783" y="772"/>
      <point x="601" y="772" type="curve" smooth="yes"/>
    </contour>
  </outline>
</glyph>
<glyph name="R" format="2">
  <advance width="1352"/>
  <unicode hex="0052"/>
  <anchor x="679" y="0" name="bottom"/>
  <anchor x="679" y="1462" name="top"/>
  <outline>
    <contour>
      <point x="184" y="0" type="line"/>
      <point x="491" y="0" type="line"/>
      <point x="491" y="564" type="line"/>
      <point x="670" y="564" type="line"/>
      <point x="1000" y="0" type="line"/>
      <point x="1350" y="0" type="line"/>
      <point x="933" y="646" type="line"/>
      <point x="1111" y="728"/>
      <point x="1200" y="862"/>
      <point x="1200" y="1039" type="curve" smooth="yes"/>
      <point x="1200" y="1321"/>
      <point x="1010" y="1462"/>
      <point x="623" y="1462" type="curve" smooth="yes"/>
      <point x="184" y="1462" type="line"/>
    </contour>
    <contour>
      <point x="491" y="798" type="line"/>
      <point x="491" y="1225" type="line"/>
      <point x="618" y="1225" type="line" smooth="yes"/>
      <point x="803" y="1225"/>
      <point x="888" y="1161"/>
      <point x="888" y="1024" type="curve" smooth="yes"/>
      <point x="888" y="874"/>
      <point x="797" y="798"/>
      <point x="626" y="798" type="curve" smooth="yes"/>
    </contour>
  </outline>
</glyph>
<glyph name="S" format="2">
  <advance width="1128"/>
  <unicode hex="0053"/>
  <anchor x="579" y="0" name="bottom"/>
  <anchor x="579" y="1462" name="top"/>
  <outline>
    <contour>
      <point x="510" y="-20" type="curve" smooth="yes"/>
      <point x="857" y="-20"/>
      <point x="1082" y="136"/>
      <point x="1082" y="431" type="curve" smooth="yes"/>
      <point x="1082" y="642"/>
      <point x="969" y="739"/>
      <point x="720" y="847" type="curve" smooth="yes"/>
      <point x="631" y="885"/>
      <point x="541" y="925"/>
      <point x="484" y="961" type="curve" smooth="yes"/>
      <point x="435" y="993"/>
      <point x="413" y="1034"/>
      <point x="413" y="1084" type="curve" smooth="yes"/>
      <point x="413" y="1176"/>
      <point x="485" y="1235"/>
      <point x="626" y="1235" type="curve" smooth="yes"/>
      <point x="723" y="1235"/>
      <point x="842" y="1206"/>
      <point x="974" y="1146" type="curve"/>
      <point x="1070" y="1386" type="line"/>
      <point x="925" y="1450"/>
      <point x="777" y="1483"/>
      <point x="629" y="1483" type="curve" smooth="yes"/>
      <point x="309" y="1483"/>
      <point x="107" y="1330"/>
      <point x="107" y="1064" type="curve" smooth="yes"/>
      <point x="107" y="998"/>
      <point x="119" y="939"/>
      <point x="143" y="887" type="curve" smooth="yes"/>
      <point x="193" y="783"/>
      <point x="285" y="708"/>
      <point x="474" y="634" type="curve" smooth="yes"/>
      <point x="655" y="563"/>
      <point x="773" y="515"/>
      <point x="773" y="399" type="curve" smooth="yes"/>
      <point x="773" y="300"/>
      <point x="697" y="233"/>
      <point x="526" y="233" type="curve" smooth="yes"/>
      <point x="404" y="233"/>
      <point x="232" y="270"/>
      <point x="94" y="339" type="curve"/>
      <point x="94" y="62" type="line"/>
      <point x="222" y="2"/>
      <point x="363" y="-20"/>
    </contour>
  </outline>
</glyph>
<glyph name="T" format="2">
  <advance width="1186"/>
  <unicode hex="0054"/>
  <anchor x="563" y="0" name="bottom"/>
  <anchor x="587" y="731" name="center"/>
  <anchor x="587" y="1462" name="top"/>
  <outline>
    <contour>
      <point x="741" y="1207" type="line"/>
      <point x="1132" y="1207" type="line"/>
      <point x="1132" y="1462" type="line"/>
      <point x="41" y="1462" type="line"/>
      <point x="41" y="1207" type="line"/>
      <point x="433" y="1207" type="line"/>
      <point x="433" y="0" type="line"/>
      <point x="741" y="0" type="line"/>
    </contour>
  </outline>
</glyph>
<glyph name="bracketleft" format="2">
  <advance width="678"/>
  <unicode hex="005B"/>
  <note>
bracketleft
</note>
  <outline>
    <contour>
      <point x="143" y="-338" type="line"/>
      <point x="621" y="-338" type="line"/>
      <point x="621" y="-132" type="line"/>
      <point x="394" y="-132" type="line"/>
      <point x="394" y="1285" type="line"/>
      <point x="621" y="1285" type="line"/>
      <point x="621" y="1491" type="line"/>
      <point x="143" y="1491" type="line"/>
    </contour>
  </outline>
</glyph>
<glyph name="asciicircum" format="2">
  <advance width="1090"/>
  <unicode hex="005E"/>
  <note>
asciicircum
</note>
  <outline>
    <contour>
      <point x="8" y="520" type="line"/>
      <point x="238" y="520" type="line"/>
      <point x="531" y="1161" type="line"/>
      <point x="852" y="520" type="line"/>
      <point x="1089" y="520" type="line"/>
      <point x="595" y="1469" type="line"/>
      <point x="456" y="1469" type="line"/>
    </contour>
  </outline>
</glyph>
<glyph name="d" format="2">
  <advance width="1296"/>
  <unicode hex="0064"/>
  <anchor x="640" y="0" name="bottom"/>
  <anchor x="640" y="544" name="center"/>
  <anchor x="640" y="1087" name="top"/>
  <anchor x="1572" y="1556" name="topright"/>
  <outline>
    <contour>
      <point x="512" y="-20" type="curve" smooth="yes"/>
      <point x="651" y="-20"/>
      <point x="757" y="36"/>
      <point x="829" y="150" type="curve"/>
      <point x="842" y="150" type="line"/>
      <point x="908" y="0" type="line"/>
      <point x="1134" y="0" type="line"/>
      <point x="1134" y="1556" type="line"/>
      <point x="829" y="1556" type="line"/>
      <point x="829" y="1227" type="line" smooth="yes"/>
      <point x="829" y="1140"/>
      <point x="834" y="1054"/>
      <point x="844" y="966" type="curve"/>
      <point x="837" y="966" type="line"/>
      <point x="754" y="1092"/>
      <point x="657" y="1139"/>
      <point x="521" y="1139" type="curve" smooth="yes"/>
      <point x="250" y="1139"/>
      <point x="92" y="924"/>
      <point x="92" y="554" type="curve" smooth="yes"/>
      <point x="92" y="228"/>
      <point x="227" y="-20"/>
    </contour>
    <contour>
      <point x="624" y="223" type="curve" smooth="yes"/>
      <point x="477" y="223"/>
      <point x="400" y="335"/>
      <point x="400" y="550" type="curve" smooth="yes"/>
      <point x="400" y="771"/>
      <point x="477" y="892"/>
      <point x="620" y="892" type="curve" smooth="yes"/>
      <point x="782" y="892"/>
      <point x="852" y="797"/>
      <point x="852" y="556" type="curve" smooth="yes"/>
      <point x="852" y="529" type="line" smooth="yes"/>
      <point x="849" y="316"/>
      <point x="784" y="223"/>
    </contour>
  </outline>
</glyph>
<glyph name="e" format="2">
  <advance width="1210"/>
  <unicode hex="0065"/>
  <anchor x="608" y="0" name="bottom"/>
  <anchor x="828" y="21" name="ogonek"/>
  <anchor x="608" y="1119" name="top"/>
  <outline>
    <contour>
      <point x="660" y="-20" type="curve" smooth="yes"/>
      <point x="824" y="-20"/>
      <point x="936" y="-1"/>
      <point x="1059" y="59" type="curve"/>
      <point x="1059" y="282" type="line"/>
      <point x="921" y="221"/>
      <point x="826" y="202"/>
      <point x="693" y="202" type="curve" smooth="yes"/>
      <point x="510" y="202"/>
      <point x="404" y="303"/>
      <point x="400" y="482" type="curve"/>
      <point x="1124" y="482" type="line"/>
      <point x="1124" y="627" type="line" smooth="yes"/>
      <point x="1124" y="954"/>
      <point x="941" y="1139"/>
      <point x="625" y="1139" type="curve" smooth="yes"/>
      <point x="287" y="1139"/>
      <point x="92" y="924"/>
      <point x="92" y="552" type="curve" smooth="yes"/>
      <point x="92" y="187"/>
      <point x="301" y="-20"/>
    </contour>
    <contour>
      <point x="407" y="680" type="line"/>
      <point x="421" y="845"/>
      <point x="508" y="927"/>
      <point x="635" y="927" type="curve" smooth="yes"/>
      <point x="763" y="927"/>
      <point x="842" y="832"/>
      <point x="844" y="680" type="curve"/>
    </contour>
  </outline>
</glyph>
<glyph name="m" format="2">
  <advance width="2011"/>
  <unicode hex="006D"/>
  <anchor x="999" y="0" name="bottom"/>
  <anchor x="999" y="1119" name="top"/>
  <outline>
    <contour>
      <point x="160" y="0" type="line"/>
      <point x="463" y="0" type="line"/>
      <point x="463" y="527" type="line" smooth="yes"/>
      <point x="463" y="657"/>
      <point x="479" y="750"/>
      <point x="515" y="809" type="curve" smooth="yes"/>
      <point x="551" y="870"/>
      <point x="607" y="898"/>
      <point x="685" y="898" type="curve" smooth="yes"/>
      <point x="798" y="898"/>
      <point x="849" y="816"/>
      <point x="849" y="654" type="curve" smooth="yes"/>
      <point x="849" y="0" type="line"/>
      <point x="1154" y="0" type="line"/>
      <point x="1154" y="561" type="line" smooth="yes"/>
      <point x="1154" y="676"/>
      <point x="1171" y="760"/>
      <point x="1206" y="815" type="curve" smooth="yes"/>
      <point x="1242" y="871"/>
      <point x="1298" y="898"/>
      <point x="1374" y="898" type="curve" smooth="yes"/>
      <point x="1489" y="898"/>
      <point x="1541" y="816"/>
      <point x="1541" y="645" type="curve" smooth="yes"/>
      <point x="1541" y="0" type="line"/>
      <point x="1844" y="0" type="line"/>
      <point x="1844" y="729" type="line" smooth="yes"/>
      <point x="1844" y="1008"/>
      <point x="1721" y="1139"/>
      <point x="1462" y="1139" type="curve" smooth="yes"/>
      <point x="1321" y="1139"/>
      <point x="1199" y="1080"/>
      <point x="1133" y="977" type="curve"/>
      <point x="1110" y="977" type="line"/>
      <point x="1049" y="1085"/>
      <point x="936" y="1139"/>
      <point x="770" y="1139" type="curve" smooth="yes"/>
      <point x="629" y="1139"/>
      <point x="510" y="1082"/>
      <point x="450" y="976" type="curve"/>
      <point x="432" y="976" type="line"/>
      <point x="391" y="1119" type="line"/>
      <point x="160" y="1119" type="line"/>
    </contour>
  </outline>
</glyph>
<glyph name="p" format="2">
  <advance width="1296"/>
  <unicode hex="0070"/>
  <anchor x="655" y="0" name="bottom"/>
  <anchor x="655" y="1119" name="top"/>
  <outline>
    <contour>
      <point x="160" y="-492" type="line"/>
      <point x="463" y="-492" type="line"/>
      <point x="463" y="-49" type="line" smooth="yes"/>
      <point x="463" y="-19"/>
      <point x="459" y="40"/>
      <point x="449" y="128" type="curve"/>
      <point x="463" y="128" type="line"/>
      <point x="549" y="21"/>
      <point x="645" y="-20"/>
      <point x="776" y="-20" type="curve" smooth="yes"/>
      <point x="1038" y="-20"/>
      <point x="1201" y="199"/>
      <point x="1201" y="561" type="curve" smooth="yes"/>
      <point x="1201" y="926"/>
      <point x="1048" y="1139"/>
      <point x="785" y="1139" type="curve" smooth="yes"/>
      <point x="646" y="1139"/>
      <point x="540" y="1083"/>
      <point x="466" y="972" type="curve"/>
      <point x="452" y="972" type="line"/>
      <point x="408" y="1119" type="line"/>
      <point x="160" y="1119" type="line"/>
    </contour>
    <contour>
      <point x="686" y="227" type="curve" smooth="yes"/>
      <point x="531" y="227"/>
      <point x="463" y="323"/>
      <point x="463" y="562" type="curve" smooth="yes"/>
      <point x="463" y="593" type="line" smooth="yes"/>
      <point x="463" y="794"/>
      <point x="528" y="898"/>
      <point x="684" y="898" type="curve" smooth="yes"/>
      <point x="827" y="898"/>
      <point x="891" y="795"/>
      <point x="891" y="563" type="curve" smooth="yes"/>
      <point x="891" y="334"/>
      <point x="823" y="227"/>
    </contour>
  </outline>
</glyph>
<glyph name="s" format="2">
  <advance width="1018"/>
  <unicode hex="0073"/>
  <anchor x="500" y="0" name="bottom"/>
  <anchor x="507" y="1119" name="top"/>
  <outline>
    <contour>
      <point x="460" y="-20" type="curve" smooth="yes"/>
      <point x="781" y="-20"/>
      <point x="946" y="92"/>
      <point x="946" y="329" type="curve" smooth="yes"/>
      <point x="946" y="385"/>
      <point x="936" y="434"/>
      <point x="917" y="475" type="curve" smooth="yes"/>
      <point x="876" y="562"/>
      <point x="795" y="617"/>
      <point x="638" y="677" type="curve" smooth="yes"/>
      <point x="542" y="713"/>
      <point x="485" y="736"/>
      <point x="432" y="770" type="curve" smooth="yes"/>
      <point x="403" y="790"/>
      <point x="390" y="816"/>
      <point x="390" y="842" type="curve" smooth="yes"/>
      <point x="390" y="899"/>
      <point x="447" y="928"/>
      <point x="538" y="928" type="curve" smooth="yes"/>
      <point x="626" y="928"/>
      <point x="740" y="896"/>
      <point x="848" y="849" type="curve"/>
      <point x="933" y="1053" type="line"/>
      <point x="803" y="1110"/>
      <point x="683" y="1139"/>
      <point x="539" y="1139" type="curve" smooth="yes"/>
      <point x="261" y="1139"/>
      <point x="99" y="1028"/>
      <point x="99" y="816" type="curve" smooth="yes"/>
      <point x="99" y="755"/>
      <point x="117" y="708"/>
      <point x="153" y="666" type="curve" smooth="yes"/>
      <point x="195" y="589"/>
      <point x="269" y="536"/>
      <point x="403" y="482" type="curve" smooth="yes"/>
      <point x="539" y="428"/>
      <point x="658" y="373"/>
      <point x="658" y="307" type="curve" smooth="yes"/>
      <point x="658" y="242"/>
      <point x="594" y="206"/>
      <point x="474" y="206" type="curve" smooth="yes"/>
      <point x="354" y="206"/>
      <point x="209" y="242"/>
      <point x="92" y="295" type="curve"/>
      <point x="92" y="44" type="line"/>
      <point x="202" y="-2"/>
      <point x="333" y="-20"/>
    </contour>
  </outline>
</glyph>
<glyph name="t" format="2">
  <advance width="889"/>
  <unicode hex="0074"/>
  <anchor x="441" y="0" name="bottom"/>
  <anchor x="435" y="560" name="center"/>
  <anchor x="435" y="1119" name="top"/>
  <anchor x="971" y="1570" name="topright"/>
  <outline>
    <contour>
      <point x="535" y="-20" type="curve" smooth="yes"/>
      <point x="643" y="-20"/>
      <point x="719" y="-5"/>
      <point x="807" y="31" type="curve"/>
      <point x="807" y="255" type="line"/>
      <point x="742" y="233"/>
      <point x="682" y="223"/>
      <point x="626" y="223" type="curve" smooth="yes"/>
      <point x="538" y="223"/>
      <point x="497" y="272"/>
      <point x="497" y="373" type="curve" smooth="yes"/>
      <point x="497" y="888" type="line"/>
      <point x="787" y="888" type="line"/>
      <point x="787" y="1119" type="line"/>
      <point x="497" y="1119" type="line"/>
      <point x="497" y="1357" type="line"/>
      <point x="302" y="1357" type="line"/>
      <point x="217" y="1117" type="line"/>
      <point x="47" y="1017" type="line"/>
      <point x="47" y="888" type="line"/>
      <point x="191" y="888" type="line"/>
      <point x="191" y="351" type="line" smooth="yes"/>
      <point x="191" y="98"/>
      <point x="293" y="-20"/>
    </contour>
  </outline>
</glyph>
<glyph name="v" format="2">
  <advance width="1165"/>
  <unicode hex="0076"/>
  <anchor x="579.2" y="0" name="bottom"/>
  <anchor x="579.2" y="1119.2" name="top"/>
  <outline>
    <contour>
      <point x="428.4" y="0" type="line"/>
      <point x="729.3" y="0" type="line"/>
      <point x="1157.7" y="1119.2" type="line"/>
      <point x="842.2" y="1119.2" type="line"/>
      <point x="617.2" y="427.7" type="line" smooth="yes"/>
      <point x="600.1" y="376.2"/>
      <point x="587.5" y="325.4"/>
      <point x="579.4" y="273.6" type="curve"/>
      <point x="572.7" y="273.6" type="line"/>
      <point x="565.5" y="326.5"/>
      <point x="547.5" y="391.2"/>
      <point x="534.9" y="428.5" type="curve" smooth="yes"/>
      <point x="316.2" y="1119.2" type="line"/>
      <point x="0" y="1119.2" type="line"/>
    </contour>
  </outline>
</glyph>
<glyph name="x" format="2">
  <advance width="1184"/>
  <unicode hex="0078"/>
  <anchor x="590" y="0" name="bottom"/>
  <anchor x="1062" y="0" name="cyrillicbighook"/>
  <anchor x="590" y="1119" name="top"/>
  <outline>
    <contour>
      <point x="10" y="0" type="line"/>
      <point x="354" y="0" type="line"/>
      <point x="590" y="386" type="line"/>
      <point x="826" y="0" type="line"/>
      <point x="1171" y="0" type="line"/>
      <point x="793" y="572" type="line"/>
      <point x="1154" y="1119" type="line"/>
      <point x="809" y="1119" type="line"/>
      <point x="590" y="759" type="line"/>
      <point x="372" y="1119" type="line"/>
      <point x="27" y="1119" type="line"/>
      <point x="383" y="572" type="line"/>
    </contour>
  </outline>
</glyph>
<glyph name="y" format="2">
  <advance width="1165"/>
  <unicode hex="0079"/>
  <anchor x="889" y="0" name="bottom"/>
  <anchor x="579" y="1119" name="top"/>
  <outline>
    <contour>
      <point x="225" y="-492" type="curve" smooth="yes"/>
      <point x="467" y="-492"/>
      <point x="594" y="-379"/>
      <point x="698" y="-103" type="curve" smooth="yes"/>
      <point x="1157" y="1119" type="line"/>
      <point x="847" y="1119" type="line"/>
      <point x="641" y="482" type="line" smooth="yes"/>
      <point x="608" y="389"/>
      <point x="599" y="352"/>
      <point x="583" y="281" type="curve"/>
      <point x="575" y="281" type="line"/>
      <point x="567" y="335"/>
      <point x="544" y="416"/>
      <point x="522" y="481" type="curve" smooth="yes"/>
      <point x="319" y="1119" type="line"/>
      <point x="0" y="1119" type="line"/>
      <point x="437" y="11" type="line"/>
      <point x="399" y="-88"/>
      <point x="374" y="-137"/>
      <point x="355" y="-163" type="curve" smooth="yes"/>
      <point x="315" y="-217"/>
      <point x="266" y="-246"/>
      <point x="193" y="-246" type="curve" smooth="yes"/>
      <point x="152" y="-246"/>
      <point x="110" y="-242"/>
      <point x="74" y="-233" type="curve"/>
      <point x="74" y="-474" type="line"/>
      <point x="126" y="-486"/>
      <point x="176" y="-492"/>
    </contour>
  </outline>
</glyph>
<glyph name="bar" format="2">
  <advance width="1128"/>
  <unicode hex="007C"/>
  <note>
bar
</note>
  <outline>
    <contour>
      <point x="455" y="-464" type="line"/>
      <point x="670" y="-464" type="line"/>
      <point x="670" y="1558" type="line"/>
      <point x="455" y="1558" type="line"/>
    </contour>
  </outline>
</glyph>
<glyph name="yen" format="2">
  <advance width="1169"/>
  <unicode hex="00A5"/>
  <note>
yen
</note>
  <outline>
    <contour>
      <point x="439" y="0" type="line"/>
      <point x="725" y="0" type="line"/>
      <point x="725" y="241" type="line"/>
      <point x="996" y="241" type="line"/>
      <point x="996" y="411" type="line"/>
      <point x="725" y="411" type="line"/>
      <point x="725" y="555" type="line"/>
      <point x="996" y="555" type="line"/>
      <point x="996" y="727" type="line"/>
      <point x="775" y="727" type="line"/>
      <point x="1159" y="1462" type="line"/>
      <point x="846" y="1462" type="line"/>
      <point x="583" y="870" type="line"/>
      <point x="321" y="1462" type="line"/>
      <point x="6" y="1462" type="line"/>
      <point x="382" y="727" type="line"/>
      <point x="166" y="727" type="line"/>
      <point x="166" y="555" type="line"/>
      <point x="439" y="555" type="line"/>
      <point x="439" y="411" type="line"/>
      <point x="166" y="411" type="line"/>
      <point x="166" y="241" type="line"/>
      <point x="439" y="241" type="line"/>
    </contour>
  </outline>
</glyph>
<glyph name="paragraph" format="2">
  <advance width="1341"/>
  <unicode hex="00B6"/>
  <note>
paragraph
</note>
  <outline>
    <contour>
      <point x="664" y="-260" type="line"/>
      <point x="828" y="-260" type="line"/>
      <point x="828" y="1367" type="line"/>
      <point x="1006" y="1367" type="line"/>
      <point x="1006" y="-260" type="line"/>
      <point x="1170" y="-260" type="line"/>
      <point x="1170" y="1556" type="line"/>
      <point x="564" y="1556" type="line" smooth="yes"/>
      <point x="251" y="1556"/>
      <point x="113" y="1385"/>
      <point x="113" y="1042" type="curve" smooth="yes"/>
      <point x="113" y="707"/>
      <point x="245" y="541"/>
      <point x="533" y="541" type="curve" smooth="yes"/>
      <point x="582" y="541"/>
      <point x="626" y="547"/>
      <point x="664" y="559" type="curve"/>
    </contour>
  </outline>
</glyph>
<glyph name="periodcentered" format="2">
  <advance width="584"/>
  <unicode hex="00B7"/>
  <note>
periodcentered
</note>
  <outline>
    <contour>
      <point x="290" y="558" type="curve" smooth="yes"/>
      <point x="396" y="558"/>
      <point x="458" y="619"/>
      <point x="458" y="722" type="curve" smooth="yes"/>
      <point x="458" y="828"/>
      <point x="399" y="886"/>
      <point x="290" y="886" type="curve" smooth="yes"/>
      <point x="177" y="886"/>
      <point x="117" y="828"/>
      <point x="117" y="722" type="curve" smooth="yes"/>
      <point x="117" y="618"/>
      <point x="181" y="558"/>
    </contour>
  </outline>
</glyph>
<glyph name="questiondown" format="2">
  <advance width="977"/>
  <unicode hex="00BF"/>
  <note>
questiondown
</note>
  <outline>
    <contour>
      <point x="700" y="624" type="line"/>
      <point x="460" y="624" type="line"/>
      <point x="460" y="584" type="line" smooth="yes"/>
      <point x="460" y="544"/>
      <point x="452" y="512"/>
      <point x="436" y="487" type="curve" smooth="yes"/>
      <point x="419" y="453"/>
      <point x="375" y="414"/>
      <point x="300" y="361" type="curve" smooth="yes"/>
      <point x="226" y="309"/>
      <point x="169" y="260"/>
      <point x="128" y="205" type="curve" smooth="yes"/>
      <point x="83" y="142"/>
      <point x="60" y="71"/>
      <point x="60" y="-19" type="curve" smooth="yes"/>
      <point x="60" y="-245"/>
      <point x="230" y="-385"/>
      <point x="512" y="-385" type="curve" smooth="yes"/>
      <point x="670" y="-385"/>
      <point x="817" y="-347"/>
      <point x="977" y="-262" type="curve"/>
      <point x="869" y="-47" type="line"/>
      <point x="742" y="-112"/>
      <point x="635" y="-144"/>
      <point x="532" y="-144" type="curve" smooth="yes"/>
      <point x="421" y="-144"/>
      <point x="346" y="-87"/>
      <point x="346" y="2" type="curve" smooth="yes"/>
      <point x="346" y="71"/>
      <point x="374" y="121"/>
      <point x="444" y="177" type="curve" smooth="yes"/>
      <point x="466" y="195"/>
      <point x="492" y="214"/>
      <point x="519" y="234" type="curve" smooth="yes"/>
      <point x="655" y="329"/>
      <point x="700" y="411"/>
      <point x="700" y="552" type="curve" smooth="yes"/>
    </contour>
    <contour>
      <point x="568" y="1121" type="curve" smooth="yes"/>
      <point x="462" y="1121"/>
      <point x="398" y="1063"/>
      <point x="398" y="958" type="curve" smooth="yes"/>
      <point x="398" y="854"/>
      <point x="458" y="795"/>
      <point x="568" y="795" type="curve" smooth="yes"/>
      <point x="681" y="795"/>
      <point x="740" y="853"/>
      <point x="740" y="958" type="curve" smooth="yes"/>
      <point x="740" y="1064"/>
      <point x="676" y="1121"/>
    </contour>
  </outline>
</glyph>
<glyph name="ae" format="2">
  <advance width="1878"/>
  <unicode hex="00E6"/>
  <note>
ae
</note>
  <anchor x="935" y="0" name="bottom"/>
  <anchor x="935" y="1119" name="top"/>
  <outline>
    <contour>
      <point x="460" y="-20" type="curve" smooth="yes"/>
      <point x="659" y="-20"/>
      <point x="772" y="35"/>
      <point x="896" y="190" type="curve"/>
      <point x="998" y="38"/>
      <point x="1127" y="-20"/>
      <point x="1339" y="-20" type="curve" smooth="yes"/>
      <point x="1466" y="-20"/>
      <point x="1589" y="0"/>
      <point x="1706" y="59" type="curve"/>
      <point x="1706" y="282" type="line"/>
      <point x="1588" y="226"/>
      <point x="1469" y="202"/>
      <point x="1371" y="202" type="curve" smooth="yes"/>
      <point x="1165" y="202"/>
      <point x="1072" y="304"/>
      <point x="1067" y="482" type="curve"/>
      <point x="1769" y="482" type="line"/>
      <point x="1769" y="626" type="line" smooth="yes"/>
      <point x="1769" y="948"/>
      <point x="1599" y="1139"/>
      <point x="1295" y="1139" type="curve" smooth="yes"/>
      <point x="1165" y="1139"/>
      <point x="1044" y="1100"/>
      <point x="956" y="1010" type="curve"/>
      <point x="875" y="1098"/>
      <point x="770" y="1139"/>
      <point x="615" y="1139" type="curve" smooth="yes"/>
      <point x="474" y="1139"/>
      <point x="326" y="1109"/>
      <point x="201" y="1044" type="curve"/>
      <point x="289" y="839" type="line"/>
      <point x="403" y="893"/>
      <point x="511" y="920"/>
      <point x="594" y="920" type="curve" smooth="yes"/>
      <point x="719" y="920"/>
      <point x="773" y="859"/>
      <point x="773" y="729" type="curve" smooth="yes"/>
      <point x="773" y="695" type="line"/>
      <point x="585" y="689" type="line" smooth="yes"/>
      <point x="255" y="678"/>
      <point x="86" y="561"/>
      <point x="86" y="325" type="curve" smooth="yes"/>
      <point x="86" y="118"/>
      <point x="216" y="-20"/>
    </contour>
    <contour>
      <point x="545" y="200" type="curve" smooth="yes"/>
      <point x="447" y="200"/>
      <point x="397" y="247"/>
      <point x="397" y="339" type="curve" smooth="yes"/>
      <point x="397" y="453"/>
      <point x="474" y="507"/>
      <point x="658" y="515" type="curve" smooth="yes"/>
      <point x="773" y="520" type="line"/>
      <point x="773" y="426" type="line" smooth="yes"/>
      <point x="773" y="288"/>
      <point x="678" y="200"/>
    </contour>
    <contour>
      <point x="1073" y="680" type="line"/>
      <point x="1085" y="845"/>
      <point x="1163" y="927"/>
      <point x="1285" y="927" type="curve" smooth="yes"/>
      <point x="1415" y="927"/>
      <point x="1490" y="831"/>
      <point x="1492" y="680" type="curve"/>
    </contour>
  </outline>
</glyph>
<glyph name="oslash" format="2">
  <advance width="1268"/>
  <unicode hex="00F8"/>
  <note>
oslash
</note>
  <anchor x="653" y="1119" name="top"/>
  <outline>
    <contour>
      <point x="317" y="-92" type="line"/>
      <point x="402" y="33" type="line"/>
      <point x="474" y="-2"/>
      <point x="557" y="-20"/>
      <point x="649" y="-20" type="curve" smooth="yes"/>
      <point x="1004" y="-20"/>
      <point x="1212" y="194"/>
      <point x="1212" y="562" type="curve" smooth="yes"/>
      <point x="1212" y="746"/>
      <point x="1158" y="889"/>
      <point x="1050" y="992" type="curve"/>
      <point x="1128" y="1106" type="line"/>
      <point x="988" y="1196" type="line"/>
      <point x="910" y="1081" type="line"/>
      <point x="834" y="1120"/>
      <point x="749" y="1139"/>
      <point x="655" y="1139" type="curve" smooth="yes"/>
      <point x="300" y="1139"/>
      <point x="92" y="927"/>
      <point x="92" y="562" type="curve" smooth="yes"/>
      <point x="92" y="373"/>
      <point x="148" y="226"/>
      <point x="260" y="122" type="curve"/>
      <point x="177" y="0" type="line"/>
    </contour>
    <contour>
      <point x="653" y="196" type="curve" smooth="yes"/>
      <point x="601" y="196"/>
      <point x="560" y="206"/>
      <point x="529" y="226" type="curve"/>
      <point x="890" y="746" type="line"/>
      <point x="909" y="701"/>
      <point x="918" y="640"/>
      <point x="918" y="562" type="curve" smooth="yes"/>
      <point x="918" y="310"/>
      <point x="832" y="196"/>
    </contour>
    <contour>
      <point x="417" y="362" type="line"/>
      <point x="396" y="409"/>
      <point x="386" y="476"/>
      <point x="386" y="562" type="curve" smooth="yes"/>
      <point x="386" y="807"/>
      <point x="473" y="924"/>
      <point x="651" y="924" type="curve" smooth="yes"/>
      <point x="703" y="924"/>
      <point x="746" y="912"/>
      <point x="783" y="887" type="curve"/>
    </contour>
  </outline>
</glyph>
<glyph name="Hbar" format="2">
  <advance width="1567"/>
  <unicode hex="0126"/>
  <note>
Hbar
</note>
  <outline>
    <contour>
      <point x="183.9" y="0" type="line"/>
      <point x="491" y="0" type="line"/>
      <point x="491" y="632.9" type="line"/>
      <point x="1069.9" y="632.9" type="line"/>
      <point x="1069.9" y="0" type="line"/>
      <point x="1378.7" y="0" type="line"/>
      <point x="1378.7" y="1076.3" type="line"/>
      <point x="1563.3" y="1076.3" type="line"/>
      <point x="1563.3" y="1267.6" type="line"/>
      <point x="1378.7" y="1267.6" type="line"/>
      <point x="1378.7" y="1462" type="line"/>
      <point x="1069.9" y="1462" type="line"/>
      <point x="1069.9" y="1267.6" type="line"/>
      <point x="491" y="1267.6" type="line"/>
      <point x="491" y="1462" type="line"/>
      <point x="183.9" y="1462" type="line"/>
      <point x="183.9" y="1267.6" type="line"/>
      <point x="0" y="1267.6" type="line"/>
      <point x="0" y="1076.3" type="line"/>
      <point x="183.9" y="1076.3" type="line"/>
    </contour>
    <contour>
      <point x="491" y="887.9" type="line"/>
      <point x="491" y="1076.3" type="line"/>
      <point x="1069.9" y="1076.3" type="line"/>
      <point x="1069.9" y="887.9" type="line"/>
    </contour>
  </outline>
</glyph>
<glyph name="hbar" format="2">
  <advance width="1346"/>
  <unicode hex="0127"/>
  <note>
hbar
</note>
  <outline>
    <contour>
      <point x="160" y="0" type="line"/>
      <point x="463" y="0" type="line"/>
      <point x="463" y="447" type="line" smooth="yes"/>
      <point x="463" y="607"/>
      <point x="490" y="710"/>
      <point x="550" y="766" type="curve" smooth="yes"/>
      <point x="588" y="802"/>
      <point x="639" y="818"/>
      <point x="706" y="818" type="curve" smooth="yes"/>
      <point x="827" y="818"/>
      <point x="886" y="736"/>
      <point x="886" y="565" type="curve" smooth="yes"/>
      <point x="886" y="0" type="line"/>
      <point x="1191" y="0" type="line"/>
      <point x="1191" y="651" type="line" smooth="yes"/>
      <point x="1191" y="914"/>
      <point x="1050" y="1060"/>
      <point x="800" y="1060" type="curve" smooth="yes"/>
      <point x="649" y="1060"/>
      <point x="543" y="1012"/>
      <point x="468" y="892" type="curve"/>
      <point x="450" y="892" type="line"/>
      <point x="456" y="945"/>
      <point x="462" y="1049"/>
      <point x="462" y="1097" type="curve" smooth="yes"/>
      <point x="462" y="1199" type="line"/>
      <point x="768" y="1199" type="line"/>
      <point x="768" y="1392" type="line"/>
      <point x="463" y="1392" type="line"/>
      <point x="463" y="1556" type="line"/>
      <point x="160" y="1556" type="line"/>
      <point x="160" y="1392" type="line"/>
      <point x="4" y="1392" type="line"/>
      <point x="4" y="1199" type="line"/>
      <point x="160" y="1199" type="line"/>
    </contour>
  </outline>
</glyph>
<glyph name="Ldot" format="2">
  <advance width="1157"/>
  <unicode hex="013F"/>
  <note>
Ldot
</note>
  <outline>
    <contour>
      <point x="1094" y="0" type="line"/>
      <point x="1094" y="252" type="line"/>
      <point x="491" y="252" type="line"/>
      <point x="491" y="1462" type="line"/>
      <point x="184" y="1462" type="line"/>
      <point x="184" y="0" type="line"/>
    </contour>
    <contour>
      <point x="733" y="753" type="curve" smooth="yes"/>
      <point x="733" y="653"/>
      <point x="788" y="603"/>
      <point x="897" y="603" type="curve" smooth="yes"/>
      <point x="1007" y="603"/>
      <point x="1063" y="654"/>
      <point x="1063" y="753" type="curve" smooth="yes"/>
      <point x="1063" y="851"/>
      <point x="1011" y="903"/>
      <point x="897" y="903" type="curve" smooth="yes"/>
      <point x="783" y="903"/>
      <point x="733" y="854"/>
    </contour>
  </outline>
</glyph>
<glyph name="Lslash" format="2">
  <advance width="1157"/>
  <unicode hex="0141"/>
  <note>
Lslash
</note>
  <outline>
    <contour>
      <point x="1137" y="0" type="line"/>
      <point x="1137" y="252" type="line"/>
      <point x="533" y="252" type="line"/>
      <point x="533" y="692" type="line"/>
      <point x="896" y="917" type="line"/>
      <point x="778" y="1110" type="line"/>
      <point x="533" y="957" type="line"/>
      <point x="533" y="1462" type="line"/>
      <point x="226" y="1462" type="line"/>
      <point x="226" y="767" type="line"/>
      <point x="2" y="632" type="line"/>
      <point x="114" y="436" type="line"/>
      <point x="226" y="502" type="line"/>
      <point x="226" y="0" type="line"/>
    </contour>
  </outline>
</glyph>
<glyph name="ohorn" format="2">
  <advance width="1391"/>
  <unicode hex="01A1"/>
  <note>
ohorn
</note>
  <anchor x="694" y="0" name="bottom"/>
  <anchor x="694" y="1119" name="top"/>
  <outline>
    <contour>
      <point x="629" y="-20" type="curve" smooth="yes"/>
      <point x="971" y="-20"/>
      <point x="1172" y="196"/>
      <point x="1172" y="562" type="curve" smooth="yes"/>
      <point x="1172" y="667"/>
      <point x="1156" y="760"/>
      <point x="1122" y="841" type="curve"/>
      <point x="1325" y="898"/>
      <point x="1408" y="1029"/>
      <point x="1445" y="1266" type="curve"/>
      <point x="1431" y="1286" type="line"/>
      <point x="1138" y="1286" type="line"/>
      <point x="1136" y="1129"/>
      <point x="1095" y="1032"/>
      <point x="1021" y="1001" type="curve"/>
      <point x="925" y="1094"/>
      <point x="787" y="1139"/>
      <point x="635" y="1139" type="curve" smooth="yes"/>
      <point x="293" y="1139"/>
      <point x="92" y="927"/>
      <point x="92" y="562" type="curve" smooth="yes"/>
      <point x="92" y="211"/>
      <point x="296" y="-20"/>
    </contour>
    <contour>
      <point x="633" y="225" type="curve" smooth="yes"/>
      <point x="557" y="225"/>
      <point x="500" y="252"/>
      <point x="462" y="307" type="curve" smooth="yes"/>
      <point x="423" y="363"/>
      <point x="402" y="450"/>
      <point x="402" y="562" type="curve" smooth="yes"/>
      <point x="402" y="696"/>
      <point x="429" y="790"/>
      <point x="484" y="843" type="curve" smooth="yes"/>
      <point x="520" y="878"/>
      <point x="570" y="895"/>
      <point x="631" y="895" type="curve" smooth="yes"/>
      <point x="697" y="895"/>
      <point x="749" y="875"/>
      <point x="786" y="835" type="curve" smooth="yes"/>
      <point x="838" y="781"/>
      <point x="862" y="689"/>
      <point x="862" y="562" type="curve" smooth="yes"/>
      <point x="862" y="454"/>
      <point x="844" y="371"/>
      <point x="807" y="314" type="curve" smooth="yes"/>
      <point x="769" y="255"/>
      <point x="712" y="225"/>
    </contour>
  </outline>
</glyph>
<glyph name="uhorn" format="2">
  <advance width="1556"/>
  <unicode hex="01B0"/>
  <note>
uhorn
</note>
  <anchor x="780" y="0" name="bottom"/>
  <anchor x="780" y="1119" name="top"/>
  <outline>
    <contour>
      <point x="549" y="-20" type="curve" smooth="yes"/>
      <point x="702" y="-20"/>
      <point x="825" y="38"/>
      <point x="892" y="144" type="curve"/>
      <point x="912" y="144" type="line"/>
      <point x="952" y="0" type="line"/>
      <point x="1184" y="0" type="line"/>
      <point x="1184" y="806" type="line"/>
      <point x="1315" y="828"/>
      <point x="1402" y="870"/>
      <point x="1466" y="929" type="curve" smooth="yes"/>
      <point x="1544" y="999"/>
      <point x="1589" y="1091"/>
      <point x="1618" y="1267" type="curve"/>
      <point x="1603" y="1288" type="line"/>
      <point x="1309" y="1288" type="line"/>
      <point x="1309" y="1221"/>
      <point x="1302" y="1163"/>
      <point x="1289" y="1117" type="curve" smooth="yes"/>
      <point x="1270" y="1052"/>
      <point x="1235" y="1007"/>
      <point x="1184" y="989" type="curve"/>
      <point x="1184" y="1119" type="line"/>
      <point x="879" y="1119" type="line"/>
      <point x="879" y="592" type="line" smooth="yes"/>
      <point x="879" y="328"/>
      <point x="808" y="223"/>
      <point x="647" y="223" type="curve" smooth="yes"/>
      <point x="513" y="223"/>
      <point x="457" y="300"/>
      <point x="457" y="475" type="curve" smooth="yes"/>
      <point x="457" y="1119" type="line"/>
      <point x="154" y="1119" type="line"/>
      <point x="154" y="390" type="line" smooth="yes"/>
      <point x="154" y="125"/>
      <point x="294" y="-20"/>
    </contour>
  </outline>
</glyph>
<glyph name="jdotless" format="2">
  <advance width="625"/>
  <unicode hex="0237"/>
  <note>
uni0237
</note>
  <anchor x="273" y="0" name="bottom"/>
  <anchor x="273" y="1119" name="top"/>
  <outline>
    <contour>
      <point x="56" y="-492" type="curve" smooth="yes"/>
      <point x="291" y="-492"/>
      <point x="424" y="-356"/>
      <point x="424" y="-128" type="curve" smooth="yes"/>
      <point x="424" y="1119" type="line"/>
      <point x="120" y="1119" type="line"/>
      <point x="120" y="-75" type="line" smooth="yes"/>
      <point x="120" y="-141"/>
      <point x="106" y="-188"/>
      <point x="77" y="-216" type="curve" smooth="yes"/>
      <point x="56" y="-236"/>
      <point x="28" y="-246"/>
      <point x="-8" y="-246" type="curve" smooth="yes"/>
      <point x="-46" y="-246"/>
      <point x="-87" y="-240"/>
      <point x="-131" y="-228" type="curve"/>
      <point x="-131" y="-467" type="line"/>
      <point x="-86" y="-481"/>
      <point x="-4" y="-492"/>
    </contour>
  </outline>
</glyph>
<glyph name="acutecomb" format="2">
  <unicode hex="0301"/>
  <note>
acutecomb
</note>
  <anchor x="-122" y="1131" name="_top"/>
  <anchor x="-1" y="1569" name="top"/>
  <outline>
    <contour>
      <point x="-300" y="1227" type="line"/>
      <point x="-97" y="1227" type="line"/>
      <point x="13" y="1304"/>
      <point x="211" y="1455"/>
      <point x="300" y="1535" type="curve"/>
      <point x="300" y="1555" type="line"/>
      <point x="-43" y="1555" type="line"/>
      <point x="-93" y="1480"/>
      <point x="-189" y="1370"/>
      <point x="-300" y="1252" type="curve"/>
    </contour>
  </outline>
</glyph>
<glyph name="circumflexcomb" format="2">
  <unicode hex="0302"/>
  <note>
circumflex
</note>
  <anchor x="435" y="1131" name="_top"/>
  <anchor x="435" y="1569" name="top"/>
  <outline>
    <contour>
      <point x="30" y="1227" type="line"/>
      <point x="231" y="1227" type="line"/>
      <point x="260" y="1247"/>
      <point x="293" y="1273"/>
      <point x="329" y="1303" type="curve" smooth="yes"/>
      <point x="361" y="1330"/>
      <point x="396" y="1360"/>
      <point x="434" y="1394" type="curve"/>
      <point x="471" y="1359"/>
      <point x="507" y="1328"/>
      <point x="542" y="1300" type="curve" smooth="yes"/>
      <point x="576" y="1273"/>
      <point x="609" y="1248"/>
      <point x="640" y="1227" type="curve"/>
      <point x="839" y="1227" type="line"/>
      <point x="839" y="1252" type="line"/>
      <point x="729" y="1366"/>
      <point x="645" y="1467"/>
      <point x="587" y="1555" type="curve"/>
      <point x="283" y="1555" type="line"/>
      <point x="231" y="1474"/>
      <point x="119" y="1340"/>
      <point x="30" y="1252" type="curve"/>
    </contour>
  </outline>
</glyph>
<glyph name="tildecomb" format="2">
  <unicode hex="0303"/>
  <note>
tildecomb
</note>
  <anchor x="-6" y="1131" name="_top"/>
  <anchor x="1" y="1551" name="top"/>
  <outline>
    <contour>
      <point x="-400" y="1239" type="curve"/>
      <point x="-252" y="1239" type="line"/>
      <point x="-236" y="1319"/>
      <point x="-208" y="1354"/>
      <point x="-165" y="1354" type="curve" smooth="yes"/>
      <point x="-117" y="1354"/>
      <point x="-66" y="1328"/>
      <point x="-12" y="1301" type="curve" smooth="yes"/>
      <point x="55" y="1263"/>
      <point x="111" y="1240"/>
      <point x="168" y="1240" type="curve" smooth="yes"/>
      <point x="301" y="1240"/>
      <point x="383" y="1348"/>
      <point x="400" y="1551" type="curve"/>
      <point x="250" y="1551" type="line"/>
      <point x="235" y="1473"/>
      <point x="208" y="1436"/>
      <point x="162" y="1436" type="curve" smooth="yes"/>
      <point x="114" y="1436"/>
      <point x="61" y="1463"/>
      <point x="6" y="1491" type="curve" smooth="yes"/>
      <point x="-53" y="1521"/>
      <point x="-108" y="1550"/>
      <point x="-163" y="1550" type="curve" smooth="yes"/>
      <point x="-308" y="1550"/>
      <point x="-385" y="1446"/>
    </contour>
  </outline>
</glyph>
<glyph name="macroncomb" format="2">
  <unicode hex="0304"/>
  <anchor x="299" y="1131" name="_top"/>
  <anchor x="300" y="1434" name="top"/>
  <outline>
    <contour>
      <point x="-38" y="1226" type="line"/>
      <point x="638" y="1226" type="line"/>
      <point x="638" y="1416" type="line"/>
      <point x="-38" y="1416" type="line"/>
    </contour>
  </outline>
</glyph>
<glyph name="dieresiscomb" format="2">
  <unicode hex="0308"/>
  <note>
dieresis
</note>
  <anchor x="622" y="1131" name="_top"/>
  <anchor x="622" y="1542" name="top"/>
  <outline>
    <contour>
      <point x="844" y="1247" type="curve" smooth="yes"/>
      <point x="932" y="1247"/>
      <point x="984" y="1298"/>
      <point x="984" y="1382" type="curve" smooth="yes"/>
      <point x="984" y="1466"/>
      <point x="932" y="1518"/>
      <point x="844" y="1518" type="curve" smooth="yes"/>
      <point x="756" y="1518"/>
      <point x="705" y="1470"/>
      <point x="705" y="1382" type="curve" smooth="yes"/>
      <point x="705" y="1297"/>
      <point x="756" y="1247"/>
    </contour>
    <contour>
      <point x="393" y="1247" type="curve" smooth="yes"/>
      <point x="479" y="1247"/>
      <point x="532" y="1298"/>
      <point x="532" y="1382" type="curve" smooth="yes"/>
      <point x="532" y="1467"/>
      <point x="479" y="1518"/>
      <point x="393" y="1518" type="curve" smooth="yes"/>
      <point x="307" y="1518"/>
      <point x="255" y="1470"/>
      <point x="255" y="1382" type="curve" smooth="yes"/>
      <point x="255" y="1295"/>
      <point x="307" y="1247"/>
    </contour>
  </outline>
</glyph>
<glyph name="ringcomb" format="2">
  <unicode hex="030A"/>
  <note>
ring
</note>
  <anchor x="592" y="1119" name="_top"/>
  <anchor x="592" y="1720" name="top"/>
  <outline>
    <contour>
      <point x="589" y="1239" type="curve" smooth="yes"/>
      <point x="739" y="1239"/>
      <point x="844" y="1336"/>
      <point x="844" y="1481" type="curve" smooth="yes"/>
      <point x="844" y="1622"/>
      <point x="737" y="1720"/>
      <point x="589" y="1720" type="curve" smooth="yes"/>
      <point x="437" y="1720"/>
      <point x="339" y="1625"/>
      <point x="339" y="1479" type="curve" smooth="yes"/>
      <point x="339" y="1333"/>
      <point x="437" y="1239"/>
    </contour>
    <contour>
      <point x="589" y="1378" type="curve" smooth="yes"/>
      <point x="525" y="1378"/>
      <point x="489" y="1418"/>
      <point x="489" y="1479" type="curve" smooth="yes"/>
      <point x="489" y="1540"/>
      <point x="531" y="1580"/>
      <point x="589" y="1580" type="curve" smooth="yes"/>
      <point x="645" y="1580"/>
      <point x="689" y="1540"/>
      <point x="689" y="1479" type="curve" smooth="yes"/>
      <point x="689" y="1418"/>
      <point x="647" y="1378"/>
    </contour>
  </outline>
</glyph>
<glyph name="hungarumlautcomb" format="2">
  <unicode hex="030B"/>
  <note>
hungarumlaut
</note>
  <anchor x="581" y="1119" name="_top"/>
  <anchor x="602" y="1569" name="top"/>
  <outline>
    <contour>
      <point x="563" y="1226" type="line"/>
      <point x="726" y="1226" type="line"/>
      <point x="863" y="1324"/>
      <point x="1014" y="1454"/>
      <point x="1066" y="1534" type="curve"/>
      <point x="1066" y="1554" type="line"/>
      <point x="764" y="1554" type="line"/>
      <point x="724" y="1477"/>
      <point x="663" y="1382"/>
      <point x="563" y="1251" type="curve"/>
    </contour>
    <contour>
      <point x="138" y="1226" type="line"/>
      <point x="301" y="1226" type="line"/>
      <point x="458" y="1340"/>
      <point x="589" y="1457"/>
      <point x="639" y="1534" type="curve"/>
      <point x="639" y="1554" type="line"/>
      <point x="339" y="1554" type="line"/>
      <point x="298" y="1478"/>
      <point x="237" y="1382"/>
      <point x="138" y="1251" type="curve"/>
    </contour>
  </outline>
</glyph>
<glyph name="caroncomb" format="2">
  <unicode hex="030C"/>
  <note>
caron
</note>
  <anchor x="622" y="1119" name="_top"/>
  <anchor x="622" y="1569" name="top"/>
  <outline>
    <contour>
      <point x="470" y="1241" type="curve"/>
      <point x="774" y="1241" type="line"/>
      <point x="791" y="1268"/>
      <point x="813" y="1297"/>
      <point x="838" y="1328" type="curve" smooth="yes"/>
      <point x="893" y="1398"/>
      <point x="961" y="1476"/>
      <point x="1026" y="1544" type="curve"/>
      <point x="1026" y="1569" type="line"/>
      <point x="827" y="1569" type="line"/>
      <point x="766" y="1528"/>
      <point x="697" y="1472"/>
      <point x="621" y="1402" type="curve"/>
      <point x="541" y="1474"/>
      <point x="473" y="1530"/>
      <point x="418" y="1569" type="curve"/>
      <point x="217" y="1569" type="line"/>
      <point x="217" y="1544" type="line"/>
      <point x="284" y="1475"/>
      <point x="349" y="1402"/>
      <point x="401" y="1337" type="curve" smooth="yes"/>
      <point x="428" y="1302"/>
      <point x="452" y="1270"/>
    </contour>
  </outline>
</glyph>
<glyph name="dblgravecomb" format="2">
  <unicode hex="030F"/>
  <note>
uni030F
</note>
  <anchor x="1" y="1119" name="_top"/>
  <anchor x="1" y="1569" name="top"/>
  <outline>
    <contour>
      <point x="266" y="1226" type="curve"/>
      <point x="428" y="1226" type="line"/>
      <point x="428" y="1251" type="line"/>
      <point x="371" y="1325"/>
      <point x="301" y="1446"/>
      <point x="250" y="1554" type="curve"/>
      <point x="-31" y="1554" type="line"/>
      <point x="-31" y="1534" type="line"/>
      <point x="17" y="1459"/>
      <point x="165" y="1307"/>
    </contour>
    <contour>
      <point x="-133" y="1226" type="curve"/>
      <point x="30" y="1226" type="line"/>
      <point x="30" y="1251" type="line"/>
      <point x="-24" y="1319"/>
      <point x="-98" y="1451"/>
      <point x="-148" y="1554" type="curve"/>
      <point x="-428" y="1554" type="line"/>
      <point x="-428" y="1534" type="line"/>
      <point x="-383" y="1462"/>
      <point x="-234" y="1307"/>
    </contour>
  </outline>
</glyph>
<glyph name="commaturnedabovecomb" format="2">
  <unicode hex="0312"/>
  <anchor x="283" y="1119" name="_top"/>
  <anchor x="301" y="1569" name="top"/>
  <outline>
    <contour>
      <point x="130" y="1241" type="line"/>
      <point x="414" y="1241" type="line"/>
      <point x="421" y="1315"/>
      <point x="444" y="1434"/>
      <point x="471" y="1544" type="curve"/>
      <point x="471" y="1569" type="line"/>
      <point x="293" y="1569" type="line"/>
      <point x="222" y="1473"/>
      <point x="171" y="1364"/>
      <point x="130" y="1261" type="curve"/>
    </contour>
  </outline>
</glyph>
<glyph name="commaaccentcomb" format="2">
  <unicode hex="0326"/>
  <anchor x="310" y="0" name="_bottom"/>
  <anchor x="301" y="-453" name="bottom"/>
  <outline>
    <contour>
      <point x="130" y="-458" type="line"/>
      <point x="310" y="-458" type="line"/>
      <point x="372" y="-368"/>
      <point x="429" y="-259"/>
      <point x="471" y="-150" type="curve"/>
      <point x="471" y="-130" type="line"/>
      <point x="189" y="-130" type="line"/>
      <point x="182" y="-219"/>
      <point x="154" y="-359"/>
      <point x="130" y="-433" type="curve"/>
    </contour>
  </outline>
</glyph>
<glyph name="tonos" format="2">
  <advance width="1182"/>
  <unicode hex="0384"/>
  <note>
tonos
</note>
  <anchor x="592" y="1112" name="_top"/>
  <anchor x="772" y="1556" name="_topleft"/>
  <outline>
    <contour>
      <point x="412" y="1241" type="line"/>
      <point x="587" y="1241" type="line"/>
      <point x="661" y="1361"/>
      <point x="725" y="1497"/>
      <point x="771" y="1612" type="curve"/>
      <point x="771" y="1635" type="line"/>
      <point x="495" y="1635" type="line"/>
      <point x="481" y="1536"/>
      <point x="443" y="1363"/>
      <point x="412" y="1269" type="curve"/>
    </contour>
  </outline>
</glyph>
<glyph name="dieresistonos" format="2">
  <advance width="1182"/>
  <unicode hex="0385"/>
  <note>
dieresistonos
</note>
  <anchor x="591" y="1119" name="_top"/>
  <outline>
    <contour>
      <point x="488" y="1344" type="line"/>
      <point x="626" y="1344" type="line"/>
      <point x="704" y="1461"/>
      <point x="769" y="1576"/>
      <point x="800" y="1652" type="curve"/>
      <point x="800" y="1671" type="line"/>
      <point x="550" y="1671" type="line"/>
      <point x="541" y="1600"/>
      <point x="520" y="1499"/>
      <point x="488" y="1368" type="curve"/>
    </contour>
    <contour>
      <point x="307" y="1226" type="curve" smooth="yes"/>
      <point x="384" y="1226"/>
      <point x="435" y="1269"/>
      <point x="435" y="1361" type="curve" smooth="yes"/>
      <point x="435" y="1454"/>
      <point x="384" y="1497"/>
      <point x="307" y="1497" type="curve" smooth="yes"/>
      <point x="223" y="1497"/>
      <point x="181" y="1451"/>
      <point x="181" y="1361" type="curve" smooth="yes"/>
      <point x="181" y="1271"/>
      <point x="223" y="1226"/>
    </contour>
    <contour>
      <point x="871" y="1226" type="curve" smooth="yes"/>
      <point x="950" y="1226"/>
      <point x="999" y="1269"/>
      <point x="999" y="1361" type="curve" smooth="yes"/>
      <point x="999" y="1454"/>
      <point x="950" y="1497"/>
      <point x="871" y="1497" type="curve" smooth="yes"/>
      <point x="785" y="1497"/>
      <point x="742" y="1451"/>
      <point x="742" y="1361" type="curve" smooth="yes"/>
      <point x="742" y="1271"/>
      <point x="785" y="1226"/>
    </contour>
  </outline>
</glyph>
<glyph name="Pi" format="2">
  <advance width="1526"/>
  <unicode hex="03A0"/>
  <note>
Pi
</note>
  <outline>
    <contour>
      <point x="184" y="0" type="line"/>
      <point x="492" y="0" type="line"/>
      <point x="492" y="1207" type="line"/>
      <point x="1027" y="1207" type="line"/>
      <point x="1027" y="0" type="line"/>
      <point x="1337" y="0" type="line"/>
      <point x="1337" y="1462" type="line"/>
      <point x="184" y="1462" type="line"/>
    </contour>
  </outline>
</glyph>
<glyph name="Sigma" format="2">
  <advance width="1214"/>
  <unicode hex="03A3"/>
  <note>
Sigma
</note>
  <outline>
    <contour>
      <point x="78" y="0" type="line"/>
      <point x="1147" y="0" type="line"/>
      <point x="1147" y="254" type="line"/>
      <point x="647" y="254" type="line" smooth="yes"/>
      <point x="578" y="254"/>
      <point x="503" y="251"/>
      <point x="419" y="244" type="curve"/>
      <point x="889" y="769" type="line"/>
      <point x="439" y="1219" type="line"/>
      <point x="494" y="1214"/>
      <point x="567" y="1212"/>
      <point x="659" y="1212" type="curve" smooth="yes"/>
      <point x="1088" y="1212" type="line"/>
      <point x="1088" y="1462" type="line"/>
      <point x="90" y="1462" type="line"/>
      <point x="90" y="1229" type="line"/>
      <point x="549" y="766" type="line"/>
      <point x="78" y="240" type="line"/>
    </contour>
  </outline>
</glyph>
<glyph name="Psi" format="2">
  <advance width="1794"/>
  <unicode hex="03A8"/>
  <note>
Psi
</note>
  <outline>
    <contour>
      <point x="743" y="0" type="line"/>
      <point x="1040" y="0" type="line"/>
      <point x="1040" y="414" type="line"/>
      <point x="1075" y="414" type="line" smooth="yes"/>
      <point x="1486" y="414"/>
      <point x="1674" y="592"/>
      <point x="1674" y="983" type="curve" smooth="yes"/>
      <point x="1674" y="1462" type="line"/>
      <point x="1371" y="1462" type="line"/>
      <point x="1371" y="965" type="line" smooth="yes"/>
      <point x="1371" y="863"/>
      <point x="1341" y="787"/>
      <point x="1284" y="737" type="curve" smooth="yes"/>
      <point x="1232" y="692"/>
      <point x="1157" y="669"/>
      <point x="1061" y="669" type="curve" smooth="yes"/>
      <point x="1040" y="669" type="line"/>
      <point x="1040" y="1462" type="line"/>
      <point x="743" y="1462" type="line"/>
      <point x="743" y="669" type="line"/>
      <point x="724" y="669" type="line" smooth="yes"/>
      <point x="612" y="669"/>
      <point x="532" y="693"/>
      <point x="482" y="746" type="curve" smooth="yes"/>
      <point x="434" y="795"/>
      <point x="412" y="869"/>
      <point x="412" y="969" type="curve" smooth="yes"/>
      <point x="412" y="1462" type="line"/>
      <point x="109" y="1462" type="line"/>
      <point x="109" y="964" type="line" smooth="yes"/>
      <point x="109" y="581"/>
      <point x="292" y="414"/>
      <point x="709" y="414" type="curve" smooth="yes"/>
      <point x="743" y="414" type="line"/>
    </contour>
  </outline>
</glyph>
<glyph name="gamma" format="2">
  <advance width="1163"/>
  <unicode hex="03B3"/>
  <note>
gamma
</note>
  <outline>
    <contour>
      <point x="327.1" y="-492" type="curve"/>
      <point x="645.2" y="-492" type="line"/>
      <point x="647.3" y="-342.3"/>
      <point x="689.2" y="-126.2"/>
      <point x="746.8" y="23.9" type="curve" smooth="yes"/>
      <point x="1160.6" y="1119.2" type="line"/>
      <point x="844.8" y="1119.2" type="line"/>
      <point x="675.7" y="633.7" type="line" smooth="yes"/>
      <point x="634.1" y="513.4"/>
      <point x="604.7" y="407.5"/>
      <point x="586.2" y="316.6" type="curve"/>
      <point x="578.8" y="316.6" type="line"/>
      <point x="555" y="436.7"/>
      <point x="523.1" y="535.4"/>
      <point x="479.7" y="668.8" type="curve" smooth="yes"/>
      <point x="318.1" y="1119.2" type="line"/>
      <point x="1.6" y="1119.2" type="line"/>
      <point x="425.9" y="12" type="line"/>
      <point x="366.8" y="-168"/>
      <point x="327.1" y="-379.5"/>
    </contour>
  </outline>
</glyph>
<glyph name="eta" format="2">
  <advance width="1346"/>
  <unicode hex="03B7"/>
  <note>
eta
</note>
  <anchor x="672" y="1119" name="top"/>
  <outline>
    <contour>
      <point x="888" y="-492" type="line"/>
      <point x="1191" y="-492" type="line"/>
      <point x="1191" y="729" type="line" smooth="yes"/>
      <point x="1191" y="993"/>
      <point x="1051" y="1139"/>
      <point x="795" y="1139" type="curve" smooth="yes"/>
      <point x="643" y="1139"/>
      <point x="518" y="1086"/>
      <point x="450" y="976" type="curve"/>
      <point x="432" y="976" type="line"/>
      <point x="392" y="1119" type="line"/>
      <point x="160" y="1119" type="line"/>
      <point x="160" y="0" type="line"/>
      <point x="463" y="0" type="line"/>
      <point x="463" y="527" type="line" smooth="yes"/>
      <point x="463" y="647"/>
      <point x="478" y="734"/>
      <point x="508" y="794" type="curve" smooth="yes"/>
      <point x="546" y="866"/>
      <point x="610" y="898"/>
      <point x="703" y="898" type="curve" smooth="yes"/>
      <point x="828" y="898"/>
      <point x="888" y="822"/>
      <point x="888" y="663" type="curve" smooth="yes"/>
    </contour>
  </outline>
</glyph>
<glyph name="sigmafinal" format="2">
  <advance width="1020"/>
  <unicode hex="03C2"/>
  <note>
sigma1
</note>
  <outline>
    <contour>
      <point x="564" y="-376" type="curve"/>
      <point x="872" y="-376" type="line"/>
      <point x="967.7723581205263" y="-249.98373931509695"/>
      <point x="1004.0" y="-155.4385023890763"/>
      <point x="1004" y="-51" type="curve" smooth="yes"/>
      <point x="1004" y="24"/>
      <point x="982" y="82"/>
      <point x="937" y="127" type="curve" smooth="yes"/>
      <point x="888" y="176"/>
      <point x="811" y="205"/>
      <point x="706" y="231" type="curve" smooth="yes"/>
      <point x="629" y="250"/>
      <point x="569" y="268"/>
      <point x="525" y="292" type="curve" smooth="yes"/>
      <point x="437" y="341"/>
      <point x="401" y="402"/>
      <point x="401" y="540" type="curve" smooth="yes"/>
      <point x="401" y="777"/>
      <point x="487" y="898"/>
      <point x="652" y="898" type="curve" smooth="yes"/>
      <point x="723" y="898"/>
      <point x="832" y="869"/>
      <point x="926" y="832" type="curve"/>
      <point x="1012" y="1059" type="line"/>
      <point x="895" y="1113"/>
      <point x="776" y="1139"/>
      <point x="654" y="1139" type="curve" smooth="yes"/>
      <point x="293" y="1139"/>
      <point x="92" y="925"/>
      <point x="92" y="542" type="curve" smooth="yes"/>
      <point x="92.0" y="237.82843879809047"/>
      <point x="181.03915504576787" y="85.38178953541987"/>
      <point x="461" y="24" type="curve" smooth="yes"/>
      <point x="648.2741024637662" y="-13.997643978155466"/>
      <point x="704.0" y="-44.33081345149"/>
      <point x="704" y="-114" type="curve" smooth="yes"/>
      <point x="704" y="-167"/>
      <point x="646" y="-280"/>
    </contour>
  </outline>
</glyph>
<glyph name="chi" format="2">
  <advance width="1212"/>
  <unicode hex="03C7"/>
  <note>
chi
</note>
  <outline>
    <contour>
      <point x="-49" y="-492" type="line"/>
      <point x="291" y="-492" type="line"/>
      <point x="586" y="94" type="line"/>
      <point x="688" y="-191" type="line" smooth="yes"/>
      <point x="722" y="-290"/>
      <point x="760" y="-362"/>
      <point x="805" y="-407" type="curve" smooth="yes"/>
      <point x="859" y="-465"/>
      <point x="926" y="-492"/>
      <point x="1012" y="-492" type="curve" smooth="yes"/>
      <point x="1087" y="-492"/>
      <point x="1152" y="-481"/>
      <point x="1210" y="-459" type="curve"/>
      <point x="1210" y="-239" type="line"/>
      <point x="1178" y="-247"/>
      <point x="1145" y="-252"/>
      <point x="1112" y="-252" type="curve" smooth="yes"/>
      <point x="1076" y="-252"/>
      <point x="1047" y="-237"/>
      <point x="1021" y="-203" type="curve" smooth="yes"/>
      <point x="1003" y="-181"/>
      <point x="985" y="-146"/>
      <point x="965" y="-97" type="curve" smooth="yes"/>
      <point x="781" y="363" type="line"/>
      <point x="1199" y="1119" type="line"/>
      <point x="880" y="1119" type="line"/>
      <point x="645" y="654" type="line"/>
      <point x="551" y="892" type="line" smooth="yes"/>
      <point x="522" y="968"/>
      <point x="490" y="1023"/>
      <point x="450" y="1061" type="curve" smooth="yes"/>
      <point x="396" y="1114"/>
      <point x="327" y="1136"/>
      <point x="227" y="1136" type="curve" smooth="yes"/>
      <point x="171" y="1136"/>
      <point x="113" y="1125"/>
      <point x="55" y="1104" type="curve"/>
      <point x="55" y="877" type="line"/>
      <point x="96" y="891"/>
      <point x="133" y="897"/>
      <point x="168" y="897" type="curve" smooth="yes"/>
      <point x="204" y="897"/>
      <point x="235" y="880"/>
      <point x="260" y="845" type="curve" smooth="yes"/>
      <point x="274" y="826"/>
      <point x="287" y="803"/>
      <point x="298" y="774" type="curve" smooth="yes"/>
      <point x="450" y="386" type="line"/>
    </contour>
  </outline>
</glyph>
<glyph name="Dzhe-cy" format="2">
  <advance width="1526"/>
  <unicode hex="040F"/>
  <note>
afii10145
</note>
  <outline>
    <contour>
      <point x="1338" y="1462" type="line"/>
      <point x="1030" y="1462" type="line"/>
      <point x="1030" y="256" type="line"/>
      <point x="492" y="256" type="line"/>
      <point x="492" y="1462" type="line"/>
      <point x="184" y="1462" type="line"/>
      <point x="184" y="0" type="line"/>
      <point x="611" y="0" type="line"/>
      <point x="611" y="-429" type="line"/>
      <point x="910" y="-429" type="line"/>
      <point x="910" y="0" type="line"/>
      <point x="1338" y="0" type="line"/>
    </contour>
  </outline>
</glyph>
<glyph name="Ka-cy" format="2">
  <advance width="1376"/>
  <unicode hex="041A"/>
  <note>
afii10028
</note>
  <anchor x="1341" y="0" name="bottomright"/>
  <anchor x="754" y="1462" name="top"/>
  <outline>
    <contour>
      <point x="812" y="761" type="line"/>
      <point x="1340" y="1462" type="line"/>
      <point x="996" y="1462" type="line"/>
      <point x="492" y="754" type="line"/>
      <point x="492" y="1462" type="line"/>
      <point x="184" y="1462" type="line"/>
      <point x="184" y="0" type="line"/>
      <point x="492" y="0" type="line"/>
      <point x="492" y="742" type="line"/>
      <point x="1013" y="0" type="line"/>
      <point x="1368" y="0" type="line"/>
    </contour>
  </outline>
</glyph>
<glyph name="El-cy" format="2">
  <advance width="1526"/>
  <unicode hex="041B"/>
  <note>
afii10029
</note>
  <anchor x="1391" y="0" name="cyrillicbighook"/>
  <outline>
    <contour>
      <point x="160" y="-21" type="curve" smooth="yes"/>
      <point x="310.9378746660771" y="-21.0"/>
      <point x="467" y="39"/>
      <point x="531" y="276" type="curve" smooth="yes"/>
      <point x="574" y="434"/>
      <point x="636" y="842"/>
      <point x="674" y="1207" type="curve"/>
      <point x="1029" y="1207" type="line"/>
      <point x="1029" y="0" type="line"/>
      <point x="1337" y="0" type="line"/>
      <point x="1337" y="1462" type="line"/>
      <point x="415" y="1462" type="line"/>
      <point x="387" y="1228"/>
      <point x="357" y="1001"/>
      <point x="330" y="814" type="curve" smooth="yes"/>
      <point x="300" y="613"/>
      <point x="272" y="461"/>
      <point x="251" y="389" type="curve" smooth="yes"/>
      <point x="220" y="270"/>
      <point x="184" y="222"/>
      <point x="117" y="222" type="curve" smooth="yes"/>
      <point x="92" y="222"/>
      <point x="57" y="229"/>
      <point x="16" y="243" type="curve"/>
      <point x="16" y="2" type="line"/>
      <point x="59" y="-14"/>
      <point x="107" y="-21"/>
    </contour>
  </outline>
</glyph>
<glyph name="U-cy" format="2">
  <advance width="1337"/>
  <unicode hex="0423"/>
  <note>
afii10037
</note>
  <anchor x="672" y="1462" name="top"/>
  <outline>
    <contour>
      <point x="303" y="-20" type="curve" smooth="yes"/>
      <point x="422" y="-20"/>
      <point x="510" y="4"/>
      <point x="582" y="48" type="curve" smooth="yes"/>
      <point x="706" y="112"/>
      <point x="787" y="217"/>
      <point x="883" y="435" type="curve" smooth="yes"/>
      <point x="1334" y="1462" type="line"/>
      <point x="1002" y="1462" type="line"/>
      <point x="772" y="896" type="line" smooth="yes"/>
      <point x="738" y="805"/>
      <point x="713" y="728"/>
      <point x="694" y="655" type="curve"/>
      <point x="683" y="655" type="line"/>
      <point x="663" y="727"/>
      <point x="633" y="801"/>
      <point x="595" y="894" type="curve" smooth="yes"/>
      <point x="335" y="1462" type="line"/>
      <point x="0" y="1462" type="line"/>
      <point x="570" y="268" type="line"/>
      <point x="533" y="565" type="line"/>
      <point x="524" y="406"/>
      <point x="478" y="322"/>
      <point x="437" y="281" type="curve" smooth="yes"/>
      <point x="399" y="242"/>
      <point x="353" y="224"/>
      <point x="289" y="224" type="curve" smooth="yes"/>
      <point x="203" y="224"/>
      <point x="129" y="236"/>
      <point x="68" y="261" type="curve"/>
      <point x="68" y="10" type="line"/>
      <point x="137" y="-10"/>
      <point x="219" y="-20"/>
    </contour>
  </outline>
</glyph>
<glyph name="Sha-cy" format="2">
  <advance width="2208"/>
  <unicode hex="0428"/>
  <note>
afii10042
</note>
  <outline>
    <contour>
      <point x="184" y="0" type="line"/>
      <point x="2017" y="0" type="line"/>
      <point x="2017" y="1462" type="line"/>
      <point x="1707" y="1462" type="line"/>
      <point x="1707" y="256" type="line"/>
      <point x="1252" y="256" type="line"/>
      <point x="1252" y="1462" type="line"/>
      <point x="949" y="1462" type="line"/>
      <point x="949" y="256" type="line"/>
      <point x="492" y="256" type="line"/>
      <point x="492" y="1462" type="line"/>
      <point x="184" y="1462" type="line"/>
    </contour>
  </outline>
</glyph>
<glyph name="Shcha-cy" format="2">
  <advance width="2281"/>
  <unicode hex="0429"/>
  <note>
afii10043
</note>
  <outline>
    <contour>
      <point x="1979" y="-429" type="line"/>
      <point x="2278" y="-429" type="line"/>
      <point x="2278" y="256" type="line"/>
      <point x="2017" y="256" type="line"/>
      <point x="2017" y="1462" type="line"/>
      <point x="1707" y="1462" type="line"/>
      <point x="1707" y="256" type="line"/>
      <point x="1252" y="256" type="line"/>
      <point x="1252" y="1462" type="line"/>
      <point x="949" y="1462" type="line"/>
      <point x="949" y="256" type="line"/>
      <point x="492" y="256" type="line"/>
      <point x="492" y="1462" type="line"/>
      <point x="184" y="1462" type="line"/>
      <point x="184" y="0" type="line"/>
      <point x="1979" y="0" type="line"/>
    </contour>
  </outline>
</glyph>
<glyph name="Yeru-cy" format="2">
  <advance width="1855"/>
  <unicode hex="042B"/>
  <note>
afii10045
</note>
  <anchor x="923" y="1462" name="top"/>
  <outline>
    <contour>
      <point x="184" y="0" type="line"/>
      <point x="608" y="0" type="line" smooth="yes"/>
      <point x="975" y="0"/>
      <point x="1181" y="166"/>
      <point x="1181" y="465" type="curve" smooth="yes"/>
      <point x="1181" y="759"/>
      <point x="977" y="904"/>
      <point x="591" y="904" type="curve" smooth="yes"/>
      <point x="492" y="904" type="line"/>
      <point x="492" y="1462" type="line"/>
      <point x="184" y="1462" type="line"/>
    </contour>
    <contour>
      <point x="492" y="240" type="line"/>
      <point x="492" y="668" type="line"/>
      <point x="583" y="668" type="line" smooth="yes"/>
      <point x="779" y="668"/>
      <point x="869" y="603"/>
      <point x="869" y="460" type="curve" smooth="yes"/>
      <point x="869" y="314"/>
      <point x="780" y="240"/>
      <point x="590" y="240" type="curve" smooth="yes"/>
    </contour>
    <contour>
      <point x="1353" y="0" type="line"/>
      <point x="1663" y="0" type="line"/>
      <point x="1663" y="1462" type="line"/>
      <point x="1353" y="1462" type="line"/>
    </contour>
  </outline>
</glyph>
<glyph name="Ia-cy" format="2">
  <advance width="1362"/>
  <unicode hex="042F"/>
  <note>
afii10049
</note>
  <anchor x="662" y="1462" name="top"/>
  <outline>
    <contour>
      <point x="-10" y="0" type="line"/>
      <point x="341" y="0" type="line"/>
      <point x="660" y="564" type="line"/>
      <point x="850" y="564" type="line"/>
      <point x="850" y="0" type="line"/>
      <point x="1157" y="0" type="line"/>
      <point x="1157" y="1462" type="line"/>
      <point x="713" y="1462" type="line" smooth="yes"/>
      <point x="329" y="1462"/>
      <point x="138" y="1319"/>
      <point x="138" y="1034" type="curve" smooth="yes"/>
      <point x="138" y="855"/>
      <point x="229" y="714"/>
      <point x="394" y="644" type="curve"/>
    </contour>
    <contour>
      <point x="715" y="798" type="line" smooth="yes"/>
      <point x="536" y="798"/>
      <point x="450" y="874"/>
      <point x="450" y="1022" type="curve" smooth="yes"/>
      <point x="450" y="1161"/>
      <point x="541" y="1225"/>
      <point x="718" y="1225" type="curve" smooth="yes"/>
      <point x="850" y="1225" type="line"/>
      <point x="850" y="798" type="line"/>
    </contour>
  </outline>
</glyph>
<glyph name="de-cy" format="2">
  <advance width="1360"/>
  <unicode hex="0434"/>
  <note>
afii10069
</note>
  <outline>
    <contour>
      <point x="29" y="-402" type="line"/>
      <point x="298" y="-402" type="line"/>
      <point x="298" y="0" type="line"/>
      <point x="1072" y="0" type="line"/>
      <point x="1072" y="-402" type="line"/>
      <point x="1340" y="-402" type="line"/>
      <point x="1340" y="232" type="line"/>
      <point x="1179" y="232" type="line"/>
      <point x="1179" y="1119" type="line"/>
      <point x="367" y="1119" type="line"/>
      <point x="344" y="766"/>
      <point x="256" y="446"/>
      <point x="120" y="232" type="curve"/>
      <point x="29" y="232" type="line"/>
    </contour>
    <contour>
      <point x="442" y="232" type="line"/>
      <point x="545" y="453"/>
      <point x="597" y="654"/>
      <point x="618" y="888" type="curve"/>
      <point x="876" y="888" type="line"/>
      <point x="876" y="232" type="line"/>
    </contour>
  </outline>
</glyph>
<glyph name="el-cy" format="2">
  <advance width="1321"/>
  <unicode hex="043B"/>
  <note>
afii10077
</note>
  <anchor x="1225" y="0" name="cyrillicbighook"/>
  <outline>
    <contour>
      <point x="144" y="-17" type="curve" smooth="yes"/>
      <point x="328" y="-17"/>
      <point x="430" y="89"/>
      <point x="494" y="332" type="curve" smooth="yes"/>
      <point x="526" y="453"/>
      <point x="552" y="631"/>
      <point x="574" y="888" type="curve"/>
      <point x="850" y="888" type="line"/>
      <point x="850" y="0" type="line"/>
      <point x="1154" y="0" type="line"/>
      <point x="1154" y="1119" type="line"/>
      <point x="301" y="1119" type="line"/>
      <point x="286" y="901"/>
      <point x="270" y="717"/>
      <point x="242" y="542" type="curve" smooth="yes"/>
      <point x="231" y="480"/>
      <point x="220" y="422"/>
      <point x="205" y="375" type="curve" smooth="yes"/>
      <point x="175" y="278"/>
      <point x="135" y="223"/>
      <point x="76" y="223" type="curve" smooth="yes"/>
      <point x="46" y="223"/>
      <point x="20" y="227"/>
      <point x="0" y="237" type="curve"/>
      <point x="0" y="6" type="line"/>
      <point x="40" y="-9"/>
      <point x="89" y="-17"/>
    </contour>
  </outline>
</glyph>
<glyph name="em-cy" format="2">
  <advance width="1729"/>
  <unicode hex="043C"/>
  <note>
afii10078
</note>
  <outline>
    <contour>
      <point x="160" y="0" type="line"/>
      <point x="432" y="0" type="line"/>
      <point x="432" y="663" type="line"/>
      <point x="432" y="737"/>
      <point x="432" y="810"/>
      <point x="432" y="883" type="curve"/>
      <point x="483" y="711"/>
      <point x="522" y="588"/>
      <point x="556" y="483" type="curve" smooth="yes"/>
      <point x="613" y="321"/>
      <point x="671" y="161"/>
      <point x="728" y="0" type="curve"/>
      <point x="941" y="0" type="line"/>
      <point x="1042" y="290"/>
      <point x="1119" y="509"/>
      <point x="1170" y="657" type="curve" smooth="yes"/>
      <point x="1194" y="734"/>
      <point x="1216" y="810"/>
      <point x="1235" y="882" type="curve"/>
      <point x="1235" y="816"/>
      <point x="1235" y="750"/>
      <point x="1235" y="683" type="curve"/>
      <point x="1235" y="0" type="line"/>
      <point x="1508" y="0" type="line"/>
      <point x="1508" y="1119" type="line"/>
      <point x="1100" y="1119" type="line"/>
      <point x="930" y="642" type="line" smooth="yes"/>
      <point x="903" y="560"/>
      <point x="860" y="407"/>
      <point x="834" y="310" type="curve"/>
      <point x="820" y="386"/>
      <point x="760" y="603"/>
      <point x="730" y="694" type="curve" smooth="yes"/>
      <point x="574" y="1119" type="line"/>
      <point x="160" y="1119" type="line"/>
    </contour>
  </outline>
</glyph>
<glyph name="hardsign-cy" format="2">
  <advance width="1454"/>
  <unicode hex="044A"/>
  <note>
afii10092
</note>
  <outline>
    <contour>
      <point x="350" y="0" type="line"/>
      <point x="808" y="0" type="line" smooth="yes"/>
      <point x="1129" y="0"/>
      <point x="1291" y="117"/>
      <point x="1291" y="361" type="curve" smooth="yes"/>
      <point x="1291" y="618"/>
      <point x="1098" y="696"/>
      <point x="784" y="696" type="curve" smooth="yes"/>
      <point x="653" y="696" type="line"/>
      <point x="653" y="1119" type="line"/>
      <point x="0" y="1119" type="line"/>
      <point x="0" y="890" type="line"/>
      <point x="350" y="890" type="line"/>
    </contour>
    <contour>
      <point x="653" y="207" type="line"/>
      <point x="653" y="489" type="line"/>
      <point x="795" y="489" type="line" smooth="yes"/>
      <point x="934" y="489"/>
      <point x="986" y="448"/>
      <point x="986" y="350" type="curve" smooth="yes"/>
      <point x="986" y="257"/>
      <point x="923" y="207"/>
      <point x="800" y="207" type="curve" smooth="yes"/>
    </contour>
  </outline>
</glyph>
<glyph name="ereversed-cy" format="2">
  <advance width="1049"/>
  <unicode hex="044D"/>
  <note>
afii10095
</note>
  <anchor x="552" y="1119" name="top"/>
  <outline>
    <contour>
      <point x="436" y="-20" type="curve" smooth="yes"/>
      <point x="791" y="-20"/>
      <point x="994" y="195"/>
      <point x="994" y="577" type="curve" smooth="yes"/>
      <point x="994" y="937"/>
      <point x="796" y="1139"/>
      <point x="463" y="1139" type="curve" smooth="yes"/>
      <point x="336" y="1139"/>
      <point x="186" y="1108"/>
      <point x="74" y="1057" type="curve"/>
      <point x="160" y="854" type="line"/>
      <point x="251" y="894"/>
      <point x="352" y="917"/>
      <point x="429" y="917" type="curve" smooth="yes"/>
      <point x="579" y="917"/>
      <point x="674" y="826"/>
      <point x="684" y="666" type="curve"/>
      <point x="229" y="666" type="line"/>
      <point x="229" y="467" type="line"/>
      <point x="686" y="467" type="line"/>
      <point x="684" y="304"/>
      <point x="575" y="202"/>
      <point x="401" y="202" type="curve" smooth="yes"/>
      <point x="302" y="202"/>
      <point x="196" y="229"/>
      <point x="82" y="282" type="curve"/>
      <point x="82" y="49" type="line"/>
      <point x="174" y="1"/>
      <point x="291" y="-20"/>
    </contour>
  </outline>
</glyph>
<glyph name="iu-cy" format="2">
  <advance width="1796"/>
  <unicode hex="044E"/>
  <note>
afii10096
</note>
  <anchor x="904" y="1119" name="top"/>
  <outline>
    <contour>
      <point x="1179" y="-20" type="curve" smooth="yes"/>
      <point x="1505" y="-20"/>
      <point x="1699" y="194"/>
      <point x="1699" y="562" type="curve" smooth="yes"/>
      <point x="1699" y="913"/>
      <point x="1506" y="1139"/>
      <point x="1185" y="1139" type="curve" smooth="yes"/>
      <point x="902" y="1139"/>
      <point x="718" y="977"/>
      <point x="677" y="690" type="curve"/>
      <point x="463" y="690" type="line"/>
      <point x="463" y="1119" type="line"/>
      <point x="160" y="1119" type="line"/>
      <point x="160" y="0" type="line"/>
      <point x="463" y="0" type="line"/>
      <point x="463" y="461" type="line"/>
      <point x="675" y="461" type="line"/>
      <point x="709" y="160"/>
      <point x="901" y="-20"/>
    </contour>
    <contour>
      <point x="1183" y="210" type="curve" smooth="yes"/>
      <point x="1045" y="210"/>
      <point x="977" y="329"/>
      <point x="977" y="562" type="curve" smooth="yes"/>
      <point x="977" y="671"/>
      <point x="992" y="756"/>
      <point x="1023" y="814" type="curve" smooth="yes"/>
      <point x="1057" y="877"/>
      <point x="1108" y="909"/>
      <point x="1181" y="909" type="curve" smooth="yes"/>
      <point x="1252" y="909"/>
      <point x="1304" y="878"/>
      <point x="1338" y="819" type="curve" smooth="yes"/>
      <point x="1372" y="760"/>
      <point x="1389" y="674"/>
      <point x="1389" y="562" type="curve" smooth="yes"/>
      <point x="1389" y="469"/>
      <point x="1378" y="394"/>
      <point x="1356" y="336" type="curve" smooth="yes"/>
      <point x="1323" y="254"/>
      <point x="1266" y="210"/>
    </contour>
  </outline>
</glyph>
<glyph name="ia-cy" format="2">
  <advance width="1214"/>
  <unicode hex="044F"/>
  <note>
afii10097
</note>
  <anchor x="604" y="1119" name="top"/>
  <outline>
    <contour>
      <point x="0" y="0" type="line"/>
      <point x="327" y="0" type="line"/>
      <point x="571" y="412" type="line"/>
      <point x="751" y="412" type="line"/>
      <point x="751" y="0" type="line"/>
      <point x="1054" y="0" type="line"/>
      <point x="1054" y="1119" type="line"/>
      <point x="541" y="1119" type="line" smooth="yes"/>
      <point x="253" y="1119"/>
      <point x="84" y="991"/>
      <point x="84" y="769" type="curve" smooth="yes"/>
      <point x="84" y="613"/>
      <point x="160" y="498"/>
      <point x="302" y="442" type="curve"/>
    </contour>
    <contour>
      <point x="576" y="620" type="line" smooth="yes"/>
      <point x="453" y="620"/>
      <point x="389" y="669"/>
      <point x="389" y="762" type="curve" smooth="yes"/>
      <point x="389" y="859"/>
      <point x="455" y="912"/>
      <point x="566" y="912" type="curve" smooth="yes"/>
      <point x="751" y="912" type="line"/>
      <point x="751" y="620" type="line"/>
    </contour>
  </outline>
</glyph>
<glyph name="nje-cy" format="2">
  <advance width="1819"/>
  <unicode hex="045A"/>
  <note>
afii10107
</note>
  <outline>
    <contour>
      <point x="160" y="0" type="line"/>
      <point x="463" y="0" type="line"/>
      <point x="463" y="462" type="line"/>
      <point x="815" y="462" type="line"/>
      <point x="815" y="0" type="line"/>
      <point x="1256" y="0" type="line" smooth="yes"/>
      <point x="1577" y="0"/>
      <point x="1737" y="113"/>
      <point x="1737" y="360" type="curve" smooth="yes"/>
      <point x="1737" y="595"/>
      <point x="1586" y="694"/>
      <point x="1232" y="694" type="curve" smooth="yes"/>
      <point x="1118" y="694" type="line"/>
      <point x="1118" y="1119" type="line"/>
      <point x="815" y="1119" type="line"/>
      <point x="815" y="694" type="line"/>
      <point x="463" y="694" type="line"/>
      <point x="463" y="1119" type="line"/>
      <point x="160" y="1119" type="line"/>
    </contour>
    <contour>
      <point x="1118" y="207" type="line"/>
      <point x="1118" y="486" type="line"/>
      <point x="1244" y="486" type="line" smooth="yes"/>
      <point x="1372" y="486"/>
      <point x="1432" y="456"/>
      <point x="1432" y="348" type="curve" smooth="yes"/>
      <point x="1432" y="252"/>
      <point x="1370" y="207"/>
      <point x="1248" y="207" type="curve" smooth="yes"/>
    </contour>
  </outline>
</glyph>
<glyph name="yat-cy" format="2">
  <advance width="1356"/>
  <unicode hex="0463"/>
  <note>
afii10194
</note>
  <outline>
    <contour>
      <point x="243" y="0" type="line"/>
      <point x="768" y="0" type="line" smooth="yes"/>
      <point x="1096" y="0"/>
      <point x="1265" y="120"/>
      <point x="1265" y="358" type="curve" smooth="yes"/>
      <point x="1265" y="580"/>
      <point x="1104" y="691"/>
      <point x="758" y="691" type="curve" smooth="yes"/>
      <point x="546" y="691" type="line"/>
      <point x="546" y="916" type="line"/>
      <point x="929" y="916" type="line"/>
      <point x="929" y="1119" type="line"/>
      <point x="546" y="1119" type="line"/>
      <point x="546" y="1348" type="line"/>
      <point x="243" y="1348" type="line"/>
      <point x="243" y="1119" type="line"/>
      <point x="0" y="1119" type="line"/>
      <point x="0" y="916" type="line"/>
      <point x="243" y="916" type="line"/>
    </contour>
    <contour>
      <point x="546" y="207" type="line"/>
      <point x="546" y="483" type="line"/>
      <point x="753" y="483" type="line" smooth="yes"/>
      <point x="902" y="483"/>
      <point x="960" y="440"/>
      <point x="960" y="347" type="curve" smooth="yes"/>
      <point x="960" y="255"/>
      <point x="884" y="207"/>
      <point x="760" y="207" type="curve" smooth="yes"/>
    </contour>
  </outline>
</glyph>
<glyph name="Yuslittleiotified-cy" format="2">
  <advance width="2058"/>
  <unicode hex="0468"/>
  <note>
uni0468
</note>
  <outline>
    <contour>
      <point x="184" y="0" type="line"/>
      <point x="492" y="0" type="line"/>
      <point x="492" y="633" type="line"/>
      <point x="875" y="633" type="line"/>
      <point x="601" y="0" type="line"/>
      <point x="920" y="0" type="line"/>
      <point x="1161" y="604" type="line"/>
      <point x="1271" y="604" type="line"/>
      <point x="1271" y="0" type="line"/>
      <point x="1545" y="0" type="line"/>
      <point x="1545" y="604" type="line"/>
      <point x="1657" y="604" type="line"/>
      <point x="1897" y="0" type="line"/>
      <point x="2214" y="0" type="line"/>
      <point x="1578" y="1464" type="line"/>
      <point x="1238" y="1464" type="line"/>
      <point x="988" y="888" type="line"/>
      <point x="492" y="888" type="line"/>
      <point x="492" y="1462" type="line"/>
      <point x="184" y="1462" type="line"/>
    </contour>
    <contour>
      <point x="1252" y="836" type="line"/>
      <point x="1316" y="992"/>
      <point x="1368" y="1118"/>
      <point x="1410" y="1232" type="curve"/>
      <point x="1460" y="1094"/>
      <point x="1504" y="984"/>
      <point x="1563" y="836" type="curve"/>
    </contour>
  </outline>
</glyph>
<glyph name="yuslittleiotified-cy" format="2">
  <advance width="1847"/>
  <unicode hex="0469"/>
  <note>
uni0469
</note>
  <outline>
    <contour>
      <point x="160" y="0" type="line"/>
      <point x="449" y="0" type="line"/>
      <point x="449" y="462" type="line"/>
      <point x="747" y="462" type="line"/>
      <point x="543" y="0" type="line"/>
      <point x="838" y="0" type="line"/>
      <point x="1001" y="421" type="line"/>
      <point x="1083" y="421" type="line"/>
      <point x="1083" y="0" type="line"/>
      <point x="1332" y="0" type="line"/>
      <point x="1332" y="421" type="line"/>
      <point x="1413" y="421" type="line"/>
      <point x="1576" y="0" type="line"/>
      <point x="1870" y="0" type="line"/>
      <point x="1371" y="1119" type="line"/>
      <point x="1039" y="1119" type="line"/>
      <point x="849" y="692" type="line"/>
      <point x="449" y="692" type="line"/>
      <point x="449" y="1119" type="line"/>
      <point x="160" y="1119" type="line"/>
    </contour>
    <contour>
      <point x="1087" y="626" type="line"/>
      <point x="1157" y="805" type="line"/>
      <point x="1175" y="850"/>
      <point x="1189" y="889"/>
      <point x="1204" y="932" type="curve"/>
      <point x="1213" y="932" type="line"/>
      <point x="1224" y="899"/>
      <point x="1239" y="860"/>
      <point x="1256" y="816" type="curve"/>
      <point x="1329" y="626" type="line"/>
    </contour>
  </outline>
</glyph>
<glyph name="yusbigiotified-cy" format="2">
  <advance width="1802"/>
  <unicode hex="046D"/>
  <note>
uni046D
</note>
  <outline>
    <contour>
      <point x="160" y="0" type="line"/>
      <point x="449" y="0" type="line"/>
      <point x="449" y="462" type="line"/>
      <point x="737" y="462" type="line"/>
      <point x="709" y="426"/>
      <point x="692" y="386"/>
      <point x="678" y="345" type="curve" smooth="yes"/>
      <point x="563" y="0" type="line"/>
      <point x="856" y="0" type="line"/>
      <point x="955" y="320" type="line" smooth="yes"/>
      <point x="973" y="376"/>
      <point x="995" y="415"/>
      <point x="1024" y="439" type="curve" smooth="yes"/>
      <point x="1071" y="486"/>
      <point x="1137" y="476"/>
      <point x="1224" y="400" type="curve"/>
      <point x="1133" y="602" type="line"/>
      <point x="1133" y="0" type="line"/>
      <point x="1383" y="0" type="line"/>
      <point x="1383" y="602" type="line"/>
      <point x="1291" y="432" type="line"/>
      <point x="1370" y="471"/>
      <point x="1432" y="483"/>
      <point x="1478" y="447" type="curve" smooth="yes"/>
      <point x="1514" y="424"/>
      <point x="1539" y="383"/>
      <point x="1560" y="318" type="curve" smooth="yes"/>
      <point x="1659" y="0" type="line"/>
      <point x="1953" y="0" type="line"/>
      <point x="1832" y="345" type="line" smooth="yes"/>
      <point x="1799" y="438"/>
      <point x="1759" y="506"/>
      <point x="1708" y="551" type="curve" smooth="yes"/>
      <point x="1657" y="599"/>
      <point x="1593" y="628"/>
      <point x="1507" y="639" type="curve"/>
      <point x="1802" y="989" type="line"/>
      <point x="1802" y="1119" type="line"/>
      <point x="707" y="1119" type="line"/>
      <point x="707" y="989" type="line"/>
      <point x="967" y="692" type="line"/>
      <point x="449" y="692" type="line"/>
      <point x="449" y="1119" type="line"/>
      <point x="160" y="1119" type="line"/>
    </contour>
    <contour>
      <point x="1255" y="659" type="line"/>
      <point x="1041" y="918" type="line"/>
      <point x="1468" y="918" type="line"/>
    </contour>
  </outline>
</glyph>
<glyph name="izhitsa-cy" format="2">
  <advance width="1239"/>
  <unicode hex="0475"/>
  <note>
afii10196
</note>
  <anchor x="607.1" y="1119.2" name="top"/>
  <outline>
    <contour>
      <point x="428.4" y="0" type="line"/>
      <point x="735.6" y="0" type="line"/>
      <point x="1011.1" y="769.3" type="line" smooth="yes"/>
      <point x="1029.4" y="822.4"/>
      <point x="1047.8" y="857.1"/>
      <point x="1070.1" y="876.8" type="curve" smooth="yes"/>
      <point x="1086.8" y="893.4"/>
      <point x="1106.5" y="901"/>
      <point x="1130.9" y="901" type="curve" smooth="yes"/>
      <point x="1156.2" y="901"/>
      <point x="1180.8" y="896.6"/>
      <point x="1205.4" y="888.8" type="curve"/>
      <point x="1205.4" y="1114" type="line"/>
      <point x="1166.8" y="1129.5"/>
      <point x="1109" y="1139.5"/>
      <point x="1064.5" y="1139.5" type="curve" smooth="yes"/>
      <point x="1008" y="1139.5"/>
      <point x="961.7" y="1129.8"/>
      <point x="926.2" y="1111.1" type="curve" smooth="yes"/>
      <point x="854.9" y="1073"/>
      <point x="805.3" y="994"/>
      <point x="746.1" y="814" type="curve" smooth="yes"/>
      <point x="629.5" y="457.4" type="line" smooth="yes"/>
      <point x="605.5" y="381.6"/>
      <point x="589.9" y="319.4"/>
      <point x="582.4" y="268.8" type="curve"/>
      <point x="574.3" y="268.8" type="line"/>
      <point x="569.8" y="302.8"/>
      <point x="553.2" y="377.4"/>
      <point x="534.3" y="430.3" type="curve" smooth="yes"/>
      <point x="316.2" y="1119.2" type="line"/>
      <point x="0" y="1119.2" type="line"/>
    </contour>
  </outline>
</glyph>
<glyph name="Uk-cy" format="2">
  <advance width="2743"/>
  <unicode hex="0478"/>
  <note>
uni0478
</note>
  <outline>
    <contour>
      <point x="1458.56502" y="733" type="curve" smooth="yes"/>
      <point x="1458.56502" y="1218"/>
      <point x="1222.4071800000002" y="1485"/>
      <point x="788.8059000000001" y="1485" type="curve" smooth="yes"/>
      <point x="357.14034000000004" y="1485"/>
      <point x="115.17534" y="1215"/>
      <point x="115.17534" y="735" type="curve" smooth="yes"/>
      <point x="115.17534" y="250"/>
      <point x="358.1082" y="-20"/>
      <point x="786.87018" y="-20" type="curve" smooth="yes"/>
      <point x="1220.47146" y="-20"/>
      <point x="1458.56502" y="249"/>
    </contour>
    <contour>
      <point x="429.72984" y="733" type="curve" smooth="yes"/>
      <point x="429.72984" y="1058"/>
      <point x="553.6159200000001" y="1229"/>
      <point x="788.8059000000001" y="1229" type="curve" smooth="yes"/>
      <point x="1022.0601600000001" y="1229"/>
      <point x="1144.01052" y="1064"/>
      <point x="1144.01052" y="733" type="curve" smooth="yes"/>
      <point x="1144.01052" y="402"/>
      <point x="1024.9637400000001" y="239"/>
      <point x="786.87018" y="239" type="curve" smooth="yes"/>
      <point x="551.6802" y="239"/>
      <point x="429.72984" y="409"/>
    </contour>
    <component base="y" xOffset="1578"/>
  </outline>
</glyph>
<glyph name="uni047A" format="2">
  <advance width="1712"/>
  <unicode hex="047A"/>
  <note>
uni047A
</note>
  <outline>
    <contour>
      <point x="854" y="-115" type="curve" smooth="yes"/>
      <point x="923" y="-115"/>
      <point x="967" y="-80"/>
      <point x="986" y="-11" type="curve"/>
      <point x="1372" y="34"/>
      <point x="1583" y="298"/>
      <point x="1583" y="733" type="curve" smooth="yes"/>
      <point x="1583" y="1164"/>
      <point x="1377" y="1428"/>
      <point x="986" y="1476" type="curve"/>
      <point x="965" y="1547"/>
      <point x="921" y="1575"/>
      <point x="854" y="1575" type="curve" smooth="yes"/>
      <point x="783" y="1575"/>
      <point x="740" y="1547"/>
      <point x="720" y="1476" type="curve"/>
      <point x="332" y="1429"/>
      <point x="119" y="1167"/>
      <point x="119" y="735" type="curve" smooth="yes"/>
      <point x="119" y="299"/>
      <point x="333" y="34"/>
      <point x="720" y="-11" type="curve"/>
      <point x="740" y="-84"/>
      <point x="783" y="-115"/>
    </contour>
    <contour>
      <point x="725" y="256" type="curve"/>
      <point x="541" y="304"/>
      <point x="444" y="467"/>
      <point x="444" y="733" type="curve" smooth="yes"/>
      <point x="444" y="999"/>
      <point x="541" y="1160"/>
      <point x="722" y="1208" type="curve"/>
      <point x="744" y="1144"/>
      <point x="788" y="1112"/>
      <point x="851" y="1112" type="curve" smooth="yes"/>
      <point x="916" y="1112"/>
      <point x="962" y="1143"/>
      <point x="982" y="1208" type="curve"/>
      <point x="1163" y="1161"/>
      <point x="1258" y="999"/>
      <point x="1258" y="733" type="curve" smooth="yes"/>
      <point x="1258" y="475"/>
      <point x="1172" y="306"/>
      <point x="980" y="257" type="curve"/>
      <point x="957" y="317"/>
      <point x="914" y="348"/>
      <point x="851" y="348" type="curve" smooth="yes"/>
      <point x="790" y="348"/>
      <point x="748" y="317"/>
    </contour>
  </outline>
</glyph>
<glyph name="uni047E" format="2">
  <advance width="2228"/>
  <unicode hex="047E"/>
  <note>
uni047E
</note>
  <outline>
    <contour>
      <point x="707" y="-20" type="curve" smooth="yes"/>
      <point x="892" y="-20"/>
      <point x="1004" y="20"/>
      <point x="1113" y="131" type="curve"/>
      <point x="1116" y="131" type="line"/>
      <point x="1220" y="20"/>
      <point x="1326" y="-20"/>
      <point x="1497" y="-20" type="curve" smooth="yes"/>
      <point x="1639" y="-20"/>
      <point x="1758" y="20"/>
      <point x="1853" y="98" type="curve" smooth="yes"/>
      <point x="2022" y="227"/>
      <point x="2112" y="460"/>
      <point x="2112" y="767" type="curve" smooth="yes"/>
      <point x="2112" y="1039"/>
      <point x="2039" y="1242"/>
      <point x="1902" y="1361" type="curve" smooth="yes"/>
      <point x="1811" y="1441"/>
      <point x="1692" y="1482"/>
      <point x="1548" y="1482" type="curve" smooth="yes"/>
      <point x="1439" y="1482"/>
      <point x="1320" y="1447"/>
      <point x="1234" y="1383" type="curve"/>
      <point x="1341" y="1159" type="line"/>
      <point x="1401" y="1202"/>
      <point x="1462" y="1226"/>
      <point x="1533" y="1226" type="curve" smooth="yes"/>
      <point x="1595" y="1226"/>
      <point x="1648" y="1202"/>
      <point x="1691" y="1155" type="curve" smooth="yes"/>
      <point x="1761" y="1079"/>
      <point x="1800" y="941"/>
      <point x="1800" y="751" type="curve" smooth="yes"/>
      <point x="1800" y="566"/>
      <point x="1762" y="428"/>
      <point x="1692" y="342" type="curve" smooth="yes"/>
      <point x="1637" y="274"/>
      <point x="1563" y="239"/>
      <point x="1472" y="239" type="curve" smooth="yes"/>
      <point x="1375" y="239"/>
      <point x="1313" y="262"/>
      <point x="1266" y="310" type="curve"/>
      <point x="1266" y="710" type="line"/>
      <point x="963" y="710" type="line"/>
      <point x="963" y="309" type="line"/>
      <point x="917" y="269"/>
      <point x="858" y="239"/>
      <point x="767" y="239" type="curve" smooth="yes"/>
      <point x="670" y="239"/>
      <point x="593" y="277"/>
      <point x="537" y="348" type="curve" smooth="yes"/>
      <point x="468" y="435"/>
      <point x="431" y="572"/>
      <point x="431" y="751" type="curve" smooth="yes"/>
      <point x="431" y="905"/>
      <point x="459" y="1019"/>
      <point x="509" y="1093" type="curve" smooth="yes"/>
      <point x="552" y="1180"/>
      <point x="620" y="1226"/>
      <point x="703" y="1226" type="curve" smooth="yes"/>
      <point x="764" y="1226"/>
      <point x="823" y="1206"/>
      <point x="899" y="1159" type="curve"/>
      <point x="1004" y="1383" type="line"/>
      <point x="922" y="1444"/>
      <point x="796" y="1482"/>
      <point x="691" y="1482" type="curve" smooth="yes"/>
      <point x="543" y="1482"/>
      <point x="422" y="1439"/>
      <point x="329" y="1357" type="curve" smooth="yes"/>
      <point x="194" y="1238"/>
      <point x="119" y="1035"/>
      <point x="119" y="767" type="curve" smooth="yes"/>
      <point x="119" y="576"/>
      <point x="154" y="417"/>
      <point x="219" y="294" type="curve" smooth="yes"/>
      <point x="313" y="93"/>
      <point x="484" y="-20"/>
    </contour>
    <contour>
      <point x="780" y="1572" type="line"/>
      <point x="833" y="1572" type="line"/>
      <point x="883" y="1678" type="line"/>
      <point x="1037" y="1678" type="line"/>
      <point x="1088" y="1572" type="line"/>
      <point x="1141" y="1572" type="line"/>
      <point x="1192" y="1678" type="line"/>
      <point x="1345" y="1678" type="line"/>
      <point x="1396" y="1572" type="line"/>
      <point x="1449" y="1572" type="line"/>
      <point x="1530" y="1744" type="line"/>
      <point x="1530" y="1841" type="line"/>
      <point x="700" y="1841" type="line"/>
      <point x="700" y="1744" type="line"/>
    </contour>
  </outline>
</glyph>
<glyph name="dasiapneumatacomb-cy" format="2">
  <unicode hex="0485"/>
  <note>
uni0485
</note>
  <outline>
    <contour>
      <point x="744" y="1218" type="curve"/>
      <point x="744" y="1307" type="line"/>
      <point x="672" y="1317"/>
      <point x="625" y="1351"/>
      <point x="625" y="1396" type="curve" smooth="yes"/>
      <point x="625" y="1428"/>
      <point x="645" y="1443"/>
      <point x="686" y="1454" type="curve" smooth="yes"/>
      <point x="725" y="1464"/>
      <point x="747" y="1485"/>
      <point x="747" y="1522" type="curve" smooth="yes"/>
      <point x="747" y="1587"/>
      <point x="689" y="1630"/>
      <point x="595" y="1630" type="curve" smooth="yes"/>
      <point x="492" y="1630"/>
      <point x="435" y="1561"/>
      <point x="435" y="1462" type="curve" smooth="yes"/>
      <point x="435" y="1317"/>
      <point x="549" y="1230"/>
    </contour>
  </outline>
</glyph>
<glyph name="psilipneumatacomb-cy" format="2">
  <unicode hex="0486"/>
  <note>
uni0486
</note>
  <outline>
    <contour>
      <point x="439" y="1218" type="line"/>
      <point x="634" y="1230"/>
      <point x="748" y="1318"/>
      <point x="748" y="1462" type="curve" smooth="yes"/>
      <point x="748" y="1566"/>
      <point x="688" y="1630"/>
      <point x="583" y="1630" type="curve" smooth="yes"/>
      <point x="496" y="1630"/>
      <point x="435" y="1587"/>
      <point x="435" y="1523" type="curve" smooth="yes"/>
      <point x="435" y="1477"/>
      <point x="465" y="1464"/>
      <point x="496" y="1454" type="curve" smooth="yes"/>
      <point x="528" y="1445"/>
      <point x="556" y="1433"/>
      <point x="556" y="1398" type="curve" smooth="yes"/>
      <point x="556" y="1356"/>
      <point x="518" y="1317"/>
      <point x="439" y="1307" type="curve"/>
    </contour>
  </outline>
</glyph>
<glyph name="Iishorttail-cy" format="2">
  <advance width="1876"/>
  <unicode hex="048A"/>
  <note>
uni048A
</note>
  <outline>
    <contour>
      <point x="1236" y="-429" type="line"/>
      <point x="1576" y="-429" type="line"/>
      <point x="1752" y="255" type="line"/>
      <point x="1493" y="255" type="line"/>
      <point x="1493" y="1462" type="line"/>
      <point x="1121" y="1462" type="line"/>
      <point x="453" y="353" type="line"/>
      <point x="446" y="353" type="line"/>
      <point x="455" y="541"/>
      <point x="459" y="668"/>
      <point x="459" y="736" type="curve" smooth="yes"/>
      <point x="459" y="1462" type="line"/>
      <point x="184" y="1462" type="line"/>
      <point x="184" y="0" type="line"/>
      <point x="555" y="0" type="line"/>
      <point x="1227" y="1110" type="line"/>
      <point x="1235" y="1110" type="line"/>
      <point x="1224" y="943"/>
      <point x="1218" y="811"/>
      <point x="1218" y="713" type="curve" smooth="yes"/>
      <point x="1218" y="0" type="line"/>
      <point x="1415" y="0" type="line"/>
    </contour>
    <contour>
      <point x="835" y="1579" type="curve" smooth="yes"/>
      <point x="1107" y="1579"/>
      <point x="1255" y="1696"/>
      <point x="1279" y="1930" type="curve"/>
      <point x="1020" y="1930" type="line"/>
      <point x="1007" y="1801"/>
      <point x="953" y="1739"/>
      <point x="836" y="1739" type="curve" smooth="yes"/>
      <point x="712" y="1739"/>
      <point x="663" y="1799"/>
      <point x="652" y="1930" type="curve"/>
      <point x="398" y="1930" type="line"/>
      <point x="415" y="1692"/>
      <point x="550" y="1579"/>
    </contour>
  </outline>
</glyph>
<glyph name="Ghestroke-cy" format="2">
  <advance width="1145"/>
  <unicode hex="0492"/>
  <note>
uni0492
</note>
  <anchor x="557" y="0" name="cyrillicbighook"/>
  <outline>
    <contour>
      <point x="220" y="0" type="line"/>
      <point x="529" y="0" type="line"/>
      <point x="529" y="598" type="line"/>
      <point x="911" y="598" type="line"/>
      <point x="911" y="850" type="line"/>
      <point x="529" y="850" type="line"/>
      <point x="529" y="1210" type="line"/>
      <point x="1114" y="1210" type="line"/>
      <point x="1114" y="1462" type="line"/>
      <point x="220" y="1462" type="line"/>
      <point x="220" y="850" type="line"/>
      <point x="47" y="850" type="line"/>
      <point x="47" y="598" type="line"/>
      <point x="220" y="598" type="line"/>
    </contour>
  </outline>
</glyph>
<glyph name="ghemiddlehook-cy" format="2">
  <advance width="1233"/>
  <unicode hex="0495"/>
  <note>
uni0495
</note>
  <outline>
    <contour>
      <point x="683" y="-472" type="curve" smooth="yes"/>
      <point x="799" y="-472"/>
      <point x="896" y="-443"/>
      <point x="972" y="-388" type="curve" smooth="yes"/>
      <point x="1101" y="-298"/>
      <point x="1171" y="-135"/>
      <point x="1171" y="88" type="curve" smooth="yes"/>
      <point x="1171" y="205"/>
      <point x="1148" y="306"/>
      <point x="1101" y="388" type="curve" smooth="yes"/>
      <point x="1014" y="542"/>
      <point x="848" y="627"/>
      <point x="631" y="627" type="curve" smooth="yes"/>
      <point x="579" y="627"/>
      <point x="523" y="620"/>
      <point x="463" y="606" type="curve"/>
      <point x="463" y="890" type="line"/>
      <point x="975" y="890" type="line"/>
      <point x="975" y="1119" type="line"/>
      <point x="160" y="1119" type="line"/>
      <point x="160" y="0" type="line"/>
      <point x="463" y="0" type="line"/>
      <point x="463" y="374" type="line"/>
      <point x="499" y="389"/>
      <point x="540" y="397"/>
      <point x="585" y="397" type="curve" smooth="yes"/>
      <point x="771" y="397"/>
      <point x="862" y="282"/>
      <point x="862" y="82" type="curve" smooth="yes"/>
      <point x="862" y="-39"/>
      <point x="838" y="-127"/>
      <point x="789" y="-180" type="curve" smooth="yes"/>
      <point x="751" y="-221"/>
      <point x="699" y="-241"/>
      <point x="631" y="-241" type="curve" smooth="yes"/>
      <point x="556" y="-241"/>
      <point x="489" y="-225"/>
      <point x="432" y="-191" type="curve"/>
      <point x="432" y="-422" type="line"/>
      <point x="506" y="-455"/>
      <point x="590" y="-472"/>
    </contour>
  </outline>
</glyph>
<glyph name="zhedescender-cy" format="2">
  <advance width="1929"/>
  <unicode hex="0497"/>
  <note>
uni0497
</note>
  <outline>
    <contour>
      <point x="1603" y="-402" type="line"/>
      <point x="1872" y="-402" type="line"/>
      <point x="1872" y="232" type="line"/>
      <point x="1637" y="232" type="line"/>
      <point x="1359" y="583" type="line"/>
      <point x="1769" y="1119" type="line"/>
      <point x="1439" y="1119" type="line"/>
      <point x="1052" y="576" type="line"/>
      <point x="1052" y="1119" type="line"/>
      <point x="755" y="1119" type="line"/>
      <point x="755" y="576" type="line"/>
      <point x="369" y="1119" type="line"/>
      <point x="39" y="1119" type="line"/>
      <point x="447" y="582" type="line"/>
      <point x="0" y="0" type="line"/>
      <point x="336" y="0" type="line"/>
      <point x="755" y="568" type="line"/>
      <point x="755" y="0" type="line"/>
      <point x="1052" y="0" type="line"/>
      <point x="1052" y="568" type="line"/>
      <point x="1471" y="0" type="line"/>
      <point x="1603" y="0" type="line"/>
    </contour>
  </outline>
</glyph>
<glyph name="Pemiddlehook-cy" format="2">
  <advance width="2304"/>
  <unicode hex="04A6"/>
  <note>
uni04A6
</note>
  <outline>
    <contour>
      <point x="1619" y="-475" type="curve" smooth="yes"/>
      <point x="1740" y="-475"/>
      <point x="1842" y="-447"/>
      <point x="1925" y="-395" type="curve" smooth="yes"/>
      <point x="2087" y="-294"/>
      <point x="2178" y="-98"/>
      <point x="2178" y="178" type="curve" smooth="yes"/>
      <point x="2178" y="310"/>
      <point x="2154" y="425"/>
      <point x="2105" y="522" type="curve" smooth="yes"/>
      <point x="2006" y="716"/>
      <point x="1818" y="821"/>
      <point x="1575" y="821" type="curve" smooth="yes"/>
      <point x="1484" y="821"/>
      <point x="1397" y="809"/>
      <point x="1315" y="784" type="curve"/>
      <point x="1315" y="1462" type="line"/>
      <point x="184" y="1462" type="line"/>
      <point x="184" y="0" type="line"/>
      <point x="492" y="0" type="line"/>
      <point x="492" y="1207" type="line"/>
      <point x="1006" y="1207" type="line"/>
      <point x="1006" y="0" type="line"/>
      <point x="1315" y="0" type="line"/>
      <point x="1315" y="539" type="line"/>
      <point x="1373" y="558"/>
      <point x="1441" y="568"/>
      <point x="1519" y="568" type="curve" smooth="yes"/>
      <point x="1738" y="568"/>
      <point x="1861" y="426"/>
      <point x="1861" y="182" type="curve" smooth="yes"/>
      <point x="1861" y="38"/>
      <point x="1828" y="-70"/>
      <point x="1766" y="-138" type="curve" smooth="yes"/>
      <point x="1717" y="-192"/>
      <point x="1649" y="-220"/>
      <point x="1566" y="-220" type="curve" smooth="yes"/>
      <point x="1493" y="-220"/>
      <point x="1421" y="-206"/>
      <point x="1351" y="-179" type="curve"/>
      <point x="1351" y="-436" type="line"/>
      <point x="1420" y="-460"/>
      <point x="1526" y="-475"/>
    </contour>
  </outline>
</glyph>
<glyph name="Ustraitstroke-cy" format="2">
  <advance width="1278"/>
  <unicode hex="04B0"/>
  <note>
uni04B0
</note>
  <outline>
    <contour>
      <point x="483.4" y="0" type="line"/>
      <point x="793.5" y="0" type="line"/>
      <point x="793.5" y="272.8" type="line"/>
      <point x="1116.9" y="272.8" type="line"/>
      <point x="1116.9" y="528.1" type="line"/>
      <point x="793.5" y="528.1" type="line"/>
      <point x="793.5" y="569.2" type="line"/>
      <point x="1276.3" y="1462" type="line"/>
      <point x="943.7" y="1462" type="line"/>
      <point x="638.9" y="842.6" type="line"/>
      <point x="336.1" y="1462" type="line"/>
      <point x="0" y="1462" type="line"/>
      <point x="483.4" y="558.4" type="line"/>
      <point x="483.4" y="528.1" type="line"/>
      <point x="159.4" y="528.1" type="line"/>
      <point x="159.4" y="272.8" type="line"/>
      <point x="483.4" y="272.8" type="line"/>
    </contour>
  </outline>
</glyph>
<glyph name="Hadescender-cy" format="2">
  <advance width="1522"/>
  <unicode hex="04B2"/>
  <note>
uni04B2
</note>
  <outline>
    <contour>
      <point x="1154" y="-429" type="line"/>
      <point x="1453" y="-429" type="line"/>
      <point x="1453" y="255" type="line"/>
      <point x="1183" y="255" type="line"/>
      <point x="864" y="731" type="line"/>
      <point x="1324" y="1462" type="line"/>
      <point x="976" y="1462" type="line"/>
      <point x="678" y="958" type="line"/>
      <point x="375" y="1462" type="line"/>
      <point x="34" y="1462" type="line"/>
      <point x="487" y="752" type="line"/>
      <point x="0" y="0" type="line"/>
      <point x="347" y="0" type="line"/>
      <point x="676" y="525" type="line"/>
      <point x="1005" y="0" type="line"/>
      <point x="1154" y="0" type="line"/>
    </contour>
  </outline>
</glyph>
<glyph name="hadescender-cy" format="2">
  <advance width="1311"/>
  <unicode hex="04B3"/>
  <note>
uni04B3
</note>
  <outline>
    <contour>
      <point x="986" y="-402" type="line"/>
      <point x="1255" y="-402" type="line"/>
      <point x="1255" y="232" type="line"/>
      <point x="1021" y="232" type="line"/>
      <point x="793" y="572" type="line"/>
      <point x="1154" y="1119" type="line"/>
      <point x="809" y="1119" type="line"/>
      <point x="590" y="759" type="line"/>
      <point x="372" y="1119" type="line"/>
      <point x="27" y="1119" type="line"/>
      <point x="383" y="572" type="line"/>
      <point x="10" y="0" type="line"/>
      <point x="354" y="0" type="line"/>
      <point x="590" y="386" type="line"/>
      <point x="826" y="0" type="line"/>
      <point x="986" y="0" type="line"/>
    </contour>
  </outline>
</glyph>
<glyph name="Tetse-cy" format="2">
  <advance width="1905"/>
  <unicode hex="04B4"/>
  <note>
uni04B4
</note>
  <outline>
    <contour>
      <point x="1525" y="-429" type="line"/>
      <point x="1824" y="-429" type="line"/>
      <point x="1824" y="256" type="line"/>
      <point x="1562" y="256" type="line"/>
      <point x="1562" y="1462" type="line"/>
      <point x="1254" y="1462" type="line"/>
      <point x="1254" y="256" type="line"/>
      <point x="708" y="256" type="line"/>
      <point x="708" y="1207" type="line"/>
      <point x="1075" y="1207" type="line"/>
      <point x="1075" y="1462" type="line"/>
      <point x="41" y="1462" type="line"/>
      <point x="41" y="1207" type="line"/>
      <point x="398" y="1207" type="line"/>
      <point x="398" y="0" type="line"/>
      <point x="1525" y="0" type="line"/>
    </contour>
  </outline>
</glyph>
<glyph name="Shha-cy" format="2">
  <advance width="1491"/>
  <unicode hex="04BA"/>
  <note>
uni04BA
</note>
  <anchor x="1484" y="0" name="bottomright"/>
  <outline>
    <contour>
      <point x="184" y="0" type="line"/>
      <point x="492" y="0" type="line"/>
      <point x="492" y="654" type="line"/>
      <point x="638" y="707"/>
      <point x="736" y="733"/>
      <point x="849" y="733" type="curve" smooth="yes"/>
      <point x="1001" y="733"/>
      <point x="1073" y="666"/>
      <point x="1073" y="511" type="curve" smooth="yes"/>
      <point x="1073" y="0" type="line"/>
      <point x="1382" y="0" type="line"/>
      <point x="1382" y="602" type="line" smooth="yes"/>
      <point x="1382" y="850"/>
      <point x="1223" y="988"/>
      <point x="948" y="988" type="curve" smooth="yes"/>
      <point x="819" y="988"/>
      <point x="667" y="957"/>
      <point x="492" y="893" type="curve"/>
      <point x="492" y="1462" type="line"/>
      <point x="184" y="1462" type="line"/>
    </contour>
  </outline>
</glyph>
<glyph name="Chedescenderabkhasian-cy" format="2">
  <advance width="1942"/>
  <unicode hex="04BE"/>
  <note>
uni04BE
</note>
  <outline>
    <contour>
      <point x="939.7" y="-429.2" type="line"/>
      <point x="1238.9" y="-429.2" type="line"/>
      <point x="1238.9" y="4.4" type="line"/>
      <point x="939.7" y="11.2" type="line"/>
    </contour>
    <component base="Cheabkhasian-cy"/>
  </outline>
</glyph>
<glyph name="enhook-cy" format="2">
  <advance width="1356"/>
  <unicode hex="04C8"/>
  <note>
uni04C8
</note>
  <outline>
    <contour>
      <point x="718" y="-469" type="curve" smooth="yes"/>
      <point x="1023" y="-469"/>
      <point x="1191" y="-282"/>
      <point x="1191" y="68" type="curve" smooth="yes"/>
      <point x="1191" y="1119" type="line"/>
      <point x="887" y="1119" type="line"/>
      <point x="887" y="691" type="line"/>
      <point x="463" y="691" type="line"/>
      <point x="463" y="1119" type="line"/>
      <point x="160" y="1119" type="line"/>
      <point x="160" y="0" type="line"/>
      <point x="463" y="0" type="line"/>
      <point x="463" y="462" type="line"/>
      <point x="887" y="462" type="line"/>
      <point x="887" y="55" type="line" smooth="yes"/>
      <point x="887" y="-65"/>
      <point x="860" y="-147"/>
      <point x="804" y="-194" type="curve" smooth="yes"/>
      <point x="768" y="-223"/>
      <point x="721" y="-238"/>
      <point x="663" y="-238" type="curve" smooth="yes"/>
      <point x="587" y="-238"/>
      <point x="523" y="-222"/>
      <point x="470" y="-190" type="curve"/>
      <point x="470" y="-420" type="line"/>
      <point x="545" y="-452"/>
      <point x="627" y="-469"/>
    </contour>
  </outline>
</glyph>
<glyph name="Chekhakassian-cy" format="2">
  <advance width="1491"/>
  <unicode hex="04CB"/>
  <note>
uni04CB
</note>
  <outline>
    <contour>
      <point x="748" y="-429" type="line"/>
      <point x="1047" y="-429" type="line"/>
      <point x="1047" y="0" type="line"/>
      <point x="1307" y="0" type="line"/>
      <point x="1307" y="1462" type="line"/>
      <point x="998" y="1462" type="line"/>
      <point x="998" y="808" type="line"/>
      <point x="845" y="752"/>
      <point x="740" y="732"/>
      <point x="642" y="732" type="curve" smooth="yes"/>
      <point x="489" y="732"/>
      <point x="418" y="798"/>
      <point x="418" y="951" type="curve" smooth="yes"/>
      <point x="418" y="1462" type="line"/>
      <point x="109" y="1462" type="line"/>
      <point x="109" y="860" type="line" smooth="yes"/>
      <point x="109" y="613"/>
      <point x="268" y="477"/>
      <point x="544" y="477" type="curve" smooth="yes"/>
      <point x="676" y="477"/>
      <point x="828" y="507"/>
      <point x="998" y="569" type="curve"/>
      <point x="998" y="255" type="line"/>
      <point x="748" y="255" type="line"/>
    </contour>
  </outline>
</glyph>
<glyph name="Schwa-cy" format="2">
  <advance width="1673"/>
  <unicode hex="04D8"/>
  <note>
uni04D8
</note>
  <anchor x="845" y="1462" name="top"/>
  <outline>
    <contour>
      <point x="821" y="-20" type="curve" smooth="yes"/>
      <point x="1274" y="-20"/>
      <point x="1521" y="263"/>
      <point x="1521" y="737" type="curve" smooth="yes"/>
      <point x="1521" y="1206"/>
      <point x="1260" y="1484"/>
      <point x="811" y="1484" type="curve" smooth="yes"/>
      <point x="615" y="1484"/>
      <point x="419" y="1439"/>
      <point x="263" y="1357" type="curve"/>
      <point x="263" y="1085" type="line"/>
      <point x="430" y="1180"/>
      <point x="602" y="1227"/>
      <point x="778" y="1227" type="curve" smooth="yes"/>
      <point x="1029" y="1227"/>
      <point x="1177" y="1091"/>
      <point x="1193" y="825" type="curve"/>
      <point x="164" y="825" type="line"/>
      <point x="164" y="763" type="line" smooth="yes"/>
      <point x="164" y="246"/>
      <point x="388" y="-20"/>
    </contour>
    <contour>
      <point x="830" y="221" type="curve" smooth="yes"/>
      <point x="622" y="221"/>
      <point x="492" y="366"/>
      <point x="484" y="604" type="curve"/>
      <point x="1193" y="604" type="line"/>
      <point x="1176" y="372"/>
      <point x="1036" y="221"/>
    </contour>
  </outline>
</glyph>
<glyph name="schwa-cy" format="2">
  <advance width="1231"/>
  <unicode hex="04D9"/>
  <note>
afii10846
</note>
  <anchor x="608" y="1119" name="top"/>
  <outline>
    <contour>
      <point x="590" y="-20" type="curve" smooth="yes"/>
      <point x="934" y="-20"/>
      <point x="1124" y="201"/>
      <point x="1124" y="567" type="curve" smooth="yes"/>
      <point x="1124" y="932"/>
      <point x="915" y="1139"/>
      <point x="556" y="1139" type="curve" smooth="yes"/>
      <point x="381" y="1139"/>
      <point x="272" y="1117"/>
      <point x="157" y="1060" type="curve"/>
      <point x="157" y="836" type="line"/>
      <point x="283" y="893"/>
      <point x="397" y="917"/>
      <point x="529" y="917" type="curve" smooth="yes"/>
      <point x="706" y="917"/>
      <point x="811" y="814"/>
      <point x="815" y="638" type="curve"/>
      <point x="92" y="638" type="line"/>
      <point x="92" y="492" type="line" smooth="yes"/>
      <point x="92" y="165"/>
      <point x="275" y="-20"/>
    </contour>
    <contour>
      <point x="580" y="193" type="curve" smooth="yes"/>
      <point x="452" y="193"/>
      <point x="373" y="288"/>
      <point x="371" y="439" type="curve"/>
      <point x="808" y="439" type="line"/>
      <point x="798" y="278"/>
      <point x="719" y="193"/>
    </contour>
  </outline>
</glyph>
<glyph name="Dzeabkhasian-cy" format="2">
  <advance width="1210"/>
  <unicode hex="04E0"/>
  <note>
uni04E0
</note>
  <outline>
    <contour>
      <point x="508" y="-20" type="curve" smooth="yes"/>
      <point x="911" y="-20"/>
      <point x="1135" y="144"/>
      <point x="1135" y="436" type="curve" smooth="yes"/>
      <point x="1135" y="683"/>
      <point x="940" y="838"/>
      <point x="615" y="849" type="curve"/>
      <point x="1065" y="1263" type="line"/>
      <point x="1065" y="1462" type="line"/>
      <point x="107" y="1462" type="line"/>
      <point x="107" y="1207" type="line"/>
      <point x="660" y="1207" type="line"/>
      <point x="276" y="846" type="line"/>
      <point x="276" y="635" type="line"/>
      <point x="400" y="635" type="line" smooth="yes"/>
      <point x="626" y="635"/>
      <point x="819" y="590"/>
      <point x="819" y="443" type="curve" smooth="yes"/>
      <point x="819" y="303"/>
      <point x="703" y="235"/>
      <point x="488" y="235" type="curve" smooth="yes"/>
      <point x="353" y="235"/>
      <point x="189" y="270"/>
      <point x="57" y="331" type="curve"/>
      <point x="57" y="60" type="line"/>
      <point x="189" y="7"/>
      <point x="339" y="-20"/>
    </contour>
  </outline>
</glyph>
<glyph name="komidje-cy" format="2">
  <advance width="1890"/>
  <unicode hex="0503"/>
  <note>
uni0503
</note>
  <outline>
    <contour>
      <point x="568" y="-17" type="curve" smooth="yes"/>
      <point x="730" y="-17"/>
      <point x="845" y="39"/>
      <point x="936" y="144" type="curve"/>
      <point x="940" y="144" type="line"/>
      <point x="1004" y="34"/>
      <point x="1114" y="-17"/>
      <point x="1290" y="-17" type="curve" smooth="yes"/>
      <point x="1574" y="-17"/>
      <point x="1757" y="126"/>
      <point x="1757" y="404" type="curve" smooth="yes"/>
      <point x="1757" y="700" type="line"/>
      <point x="1454" y="700" type="line"/>
      <point x="1454" y="409" type="line" smooth="yes"/>
      <point x="1454" y="335"/>
      <point x="1433" y="281"/>
      <point x="1394" y="250" type="curve" smooth="yes"/>
      <point x="1368" y="229"/>
      <point x="1335" y="218"/>
      <point x="1293" y="218" type="curve" smooth="yes"/>
      <point x="1183" y="218"/>
      <point x="1125" y="288"/>
      <point x="1125" y="415" type="curve" smooth="yes"/>
      <point x="1125" y="1556" type="line"/>
      <point x="820" y="1556" type="line"/>
      <point x="820" y="1227" type="line" smooth="yes"/>
      <point x="820" y="1140"/>
      <point x="824" y="1054"/>
      <point x="835" y="966" type="curve"/>
      <point x="827" y="966" type="line"/>
      <point x="750" y="1089"/>
      <point x="655" y="1139"/>
      <point x="521" y="1139" type="curve" smooth="yes"/>
      <point x="250" y="1139"/>
      <point x="92" y="924"/>
      <point x="92" y="554" type="curve" smooth="yes"/>
      <point x="92" y="187"/>
      <point x="264" y="-17"/>
    </contour>
    <contour>
      <point x="624" y="218" type="curve" smooth="yes"/>
      <point x="548" y="218"/>
      <point x="488" y="250"/>
      <point x="450" y="316" type="curve" smooth="yes"/>
      <point x="417" y="370"/>
      <point x="400" y="448"/>
      <point x="400" y="550" type="curve" smooth="yes"/>
      <point x="400" y="674"/>
      <point x="424" y="766"/>
      <point x="470" y="823" type="curve" smooth="yes"/>
      <point x="507" y="868"/>
      <point x="557" y="892"/>
      <point x="620" y="892" type="curve" smooth="yes"/>
      <point x="686" y="892"/>
      <point x="736" y="874"/>
      <point x="772" y="835" type="curve" smooth="yes"/>
      <point x="821" y="783"/>
      <point x="843" y="692"/>
      <point x="843" y="556" type="curve" smooth="yes"/>
      <point x="843" y="529" type="line" smooth="yes"/>
      <point x="841" y="425"/>
      <point x="824" y="347"/>
      <point x="788" y="298" type="curve" smooth="yes"/>
      <point x="753" y="245"/>
      <point x="701" y="218"/>
    </contour>
  </outline>
</glyph>
<glyph name="Komizje-cy" format="2">
  <advance width="1870"/>
  <unicode hex="0504"/>
  <note>
uni0504
</note>
  <outline>
    <contour>
      <point x="1241" y="-20" type="curve" smooth="yes"/>
      <point x="1562" y="-20"/>
      <point x="1708" y="124"/>
      <point x="1708" y="431" type="curve" smooth="yes"/>
      <point x="1708" y="848" type="line"/>
      <point x="1399" y="848" type="line"/>
      <point x="1399" y="445" type="line" smooth="yes"/>
      <point x="1399" y="360"/>
      <point x="1384" y="303"/>
      <point x="1348" y="271" type="curve" smooth="yes"/>
      <point x="1323" y="247"/>
      <point x="1288" y="236"/>
      <point x="1241" y="236" type="curve" smooth="yes"/>
      <point x="1122" y="236"/>
      <point x="1079" y="280"/>
      <point x="1074" y="428" type="curve" smooth="yes"/>
      <point x="1070" y="617"/>
      <point x="941" y="733"/>
      <point x="695" y="763" type="curve"/>
      <point x="695" y="771" type="line"/>
      <point x="914" y="811"/>
      <point x="1027" y="929"/>
      <point x="1027" y="1120" type="curve" smooth="yes"/>
      <point x="1027" y="1340"/>
      <point x="842" y="1483"/>
      <point x="555" y="1483" type="curve" smooth="yes"/>
      <point x="339" y="1483"/>
      <point x="184" y="1434"/>
      <point x="25" y="1322" type="curve"/>
      <point x="158" y="1108" type="line"/>
      <point x="267" y="1190"/>
      <point x="382" y="1228"/>
      <point x="497" y="1228" type="curve" smooth="yes"/>
      <point x="636" y="1228"/>
      <point x="716" y="1170"/>
      <point x="716" y="1069" type="curve" smooth="yes"/>
      <point x="716" y="935"/>
      <point x="599" y="887"/>
      <point x="417" y="887" type="curve" smooth="yes"/>
      <point x="227" y="887" type="line"/>
      <point x="227" y="635" type="line"/>
      <point x="428" y="635" type="line" smooth="yes"/>
      <point x="651" y="635"/>
      <point x="754" y="571"/>
      <point x="757" y="421" type="curve" smooth="yes"/>
      <point x="760" y="112"/>
      <point x="904" y="-20"/>
    </contour>
  </outline>
</glyph>
<glyph name="komizje-cy" format="2">
  <advance width="1782"/>
  <unicode hex="0505"/>
  <note>
uni0505
</note>
  <outline>
    <contour>
      <point x="1144" y="-20" type="curve" smooth="yes"/>
      <point x="1427" y="-20"/>
      <point x="1609" y="122"/>
      <point x="1609" y="401" type="curve" smooth="yes"/>
      <point x="1609" y="700" type="line"/>
      <point x="1305" y="700" type="line"/>
      <point x="1305" y="409" type="line" smooth="yes"/>
      <point x="1305" y="339"/>
      <point x="1287" y="286"/>
      <point x="1251" y="254" type="curve" smooth="yes"/>
      <point x="1225" y="231"/>
      <point x="1189" y="218"/>
      <point x="1144" y="218" type="curve" smooth="yes"/>
      <point x="1094" y="218"/>
      <point x="1056" y="229"/>
      <point x="1031" y="245" type="curve" smooth="yes"/>
      <point x="996" y="267"/>
      <point x="976" y="304"/>
      <point x="969" y="362" type="curve" smooth="yes"/>
      <point x="952" y="500"/>
      <point x="874" y="569"/>
      <point x="709" y="586" type="curve"/>
      <point x="709" y="595" type="line"/>
      <point x="835" y="627"/>
      <point x="911" y="719"/>
      <point x="911" y="840" type="curve" smooth="yes"/>
      <point x="911" y="1031"/>
      <point x="748" y="1139"/>
      <point x="455" y="1139" type="curve" smooth="yes"/>
      <point x="316" y="1139"/>
      <point x="202" y="1117"/>
      <point x="57" y="1056" type="curve"/>
      <point x="146" y="847" type="line"/>
      <point x="250" y="894"/>
      <point x="341" y="918"/>
      <point x="442" y="918" type="curve" smooth="yes"/>
      <point x="560" y="918"/>
      <point x="622" y="878"/>
      <point x="622" y="806" type="curve" smooth="yes"/>
      <point x="622" y="715"/>
      <point x="518" y="686"/>
      <point x="382" y="686" type="curve" smooth="yes"/>
      <point x="262" y="686" type="line"/>
      <point x="262" y="482" type="line"/>
      <point x="408" y="482" type="line" smooth="yes"/>
      <point x="592" y="482"/>
      <point x="660" y="442"/>
      <point x="674" y="320" type="curve" smooth="yes"/>
      <point x="683" y="239"/>
      <point x="707" y="175"/>
      <point x="745" y="125" type="curve" smooth="yes"/>
      <point x="819" y="26"/>
      <point x="952" y="-20"/>
    </contour>
  </outline>
</glyph>
<glyph name="Kominje-cy" format="2">
  <advance width="2136"/>
  <unicode hex="050A"/>
  <note>
uni050A
</note>
  <outline>
    <contour>
      <point x="1502" y="-20" type="curve" smooth="yes"/>
      <point x="1823" y="-20"/>
      <point x="1971" y="123"/>
      <point x="1971" y="431" type="curve" smooth="yes"/>
      <point x="1971" y="848" type="line"/>
      <point x="1663" y="848" type="line"/>
      <point x="1663" y="442" type="line" smooth="yes"/>
      <point x="1663" y="372"/>
      <point x="1652" y="321"/>
      <point x="1627" y="287" type="curve" smooth="yes"/>
      <point x="1601" y="252"/>
      <point x="1560" y="236"/>
      <point x="1502" y="236" type="curve" smooth="yes"/>
      <point x="1380" y="236"/>
      <point x="1337" y="289"/>
      <point x="1337" y="449" type="curve" smooth="yes"/>
      <point x="1337" y="1462" type="line"/>
      <point x="1029" y="1462" type="line"/>
      <point x="1029" y="888" type="line"/>
      <point x="492" y="888" type="line"/>
      <point x="492" y="1462" type="line"/>
      <point x="184" y="1462" type="line"/>
      <point x="184" y="0" type="line"/>
      <point x="492" y="0" type="line"/>
      <point x="492" y="633" type="line"/>
      <point x="1029" y="633" type="line"/>
      <point x="1029" y="419" type="line" smooth="yes"/>
      <point x="1029" y="112"/>
      <point x="1170" y="-20"/>
    </contour>
  </outline>
</glyph>
<glyph name="Komitje-cy" format="2">
  <advance width="1552"/>
  <unicode hex="050E"/>
  <note>
uni050E
</note>
  <outline>
    <contour>
      <point x="909" y="-20" type="curve" smooth="yes"/>
      <point x="1228" y="-20"/>
      <point x="1376" y="124"/>
      <point x="1376" y="431" type="curve" smooth="yes"/>
      <point x="1376" y="848" type="line"/>
      <point x="1067" y="848" type="line"/>
      <point x="1067" y="446" type="line" smooth="yes"/>
      <point x="1067" y="301"/>
      <point x="1022" y="236"/>
      <point x="909" y="236" type="curve" smooth="yes"/>
      <point x="785" y="236"/>
      <point x="742" y="288"/>
      <point x="742" y="452" type="curve" smooth="yes"/>
      <point x="742" y="1207" type="line"/>
      <point x="1133" y="1207" type="line"/>
      <point x="1133" y="1462" type="line"/>
      <point x="41" y="1462" type="line"/>
      <point x="41" y="1207" type="line"/>
      <point x="433" y="1207" type="line"/>
      <point x="433" y="419" type="line" smooth="yes"/>
      <point x="433" y="110"/>
      <point x="576" y="-20"/>
    </contour>
  </outline>
</glyph>
<glyph name="hatafsegol-hb" format="2">
  <unicode hex="05B1"/>
  <note>
afii57801
</note>
  <anchor x="1" y="-85" name="_bottom"/>
  <outline>
    <contour>
      <point x="-278" y="-271" type="curve" smooth="yes"/>
      <point x="-226" y="-271"/>
      <point x="-194" y="-241"/>
      <point x="-194" y="-189" type="curve" smooth="yes"/>
      <point x="-194" y="-136"/>
      <point x="-226" y="-105"/>
      <point x="-278" y="-105" type="curve" smooth="yes"/>
      <point x="-330" y="-105"/>
      <point x="-362" y="-134"/>
      <point x="-362" y="-189" type="curve" smooth="yes"/>
      <point x="-362" y="-241"/>
      <point x="-330" y="-271"/>
    </contour>
    <contour>
      <point x="15" y="-271" type="curve" smooth="yes"/>
      <point x="69" y="-271"/>
      <point x="101" y="-241"/>
      <point x="101" y="-189" type="curve" smooth="yes"/>
      <point x="101" y="-137"/>
      <point x="69" y="-105"/>
      <point x="16" y="-105" type="curve" smooth="yes"/>
      <point x="-37" y="-105"/>
      <point x="-68" y="-135"/>
      <point x="-68" y="-189" type="curve" smooth="yes"/>
      <point x="-68" y="-242"/>
      <point x="-39" y="-271"/>
    </contour>
    <contour>
      <point x="-129" y="-519" type="curve" smooth="yes"/>
      <point x="-76" y="-519"/>
      <point x="-45" y="-488"/>
      <point x="-45" y="-435" type="curve" smooth="yes"/>
      <point x="-45" y="-384"/>
      <point x="-76" y="-353"/>
      <point x="-129" y="-353" type="curve" smooth="yes"/>
      <point x="-179" y="-353"/>
      <point x="-213" y="-380"/>
      <point x="-213" y="-435" type="curve" smooth="yes"/>
      <point x="-213" y="-489"/>
      <point x="-182" y="-519"/>
    </contour>
    <contour>
      <point x="278" y="-519" type="curve" smooth="yes"/>
      <point x="332" y="-519"/>
      <point x="362" y="-488"/>
      <point x="362" y="-435" type="curve" smooth="yes"/>
      <point x="362" y="-384"/>
      <point x="332" y="-353"/>
      <point x="278" y="-353" type="curve" smooth="yes"/>
      <point x="226" y="-353"/>
      <point x="194" y="-384"/>
      <point x="194" y="-436" type="curve" smooth="yes"/>
      <point x="194" y="-489"/>
      <point x="226" y="-519"/>
    </contour>
    <contour>
      <point x="278" y="-271" type="curve" smooth="yes"/>
      <point x="332" y="-271"/>
      <point x="362" y="-241"/>
      <point x="362" y="-189" type="curve" smooth="yes"/>
      <point x="362" y="-136"/>
      <point x="332" y="-105"/>
      <point x="278" y="-105" type="curve" smooth="yes"/>
      <point x="226" y="-105"/>
      <point x="194" y="-136"/>
      <point x="194" y="-189" type="curve" smooth="yes"/>
      <point x="194" y="-241"/>
      <point x="226" y="-271"/>
    </contour>
  </outline>
</glyph>
<glyph name="hatafpatah-hb" format="2">
  <unicode hex="05B2"/>
  <note>
afii57800
</note>
  <anchor x="1" y="-85" name="_bottom"/>
  <outline>
    <contour>
      <point x="-310" y="-238" type="line"/>
      <point x="55" y="-238" type="line"/>
      <point x="55" y="-135" type="line"/>
      <point x="-310" y="-135" type="line"/>
    </contour>
    <contour>
      <point x="225" y="-519" type="curve" smooth="yes"/>
      <point x="279" y="-519"/>
      <point x="310" y="-488"/>
      <point x="310" y="-435" type="curve" smooth="yes"/>
      <point x="310" y="-384"/>
      <point x="278" y="-353"/>
      <point x="225" y="-353" type="curve" smooth="yes"/>
      <point x="176" y="-353"/>
      <point x="142" y="-380"/>
      <point x="142" y="-435" type="curve" smooth="yes"/>
      <point x="142" y="-489"/>
      <point x="173" y="-519"/>
    </contour>
    <contour>
      <point x="225" y="-271" type="curve" smooth="yes"/>
      <point x="279" y="-271"/>
      <point x="310" y="-241"/>
      <point x="310" y="-189" type="curve" smooth="yes"/>
      <point x="310" y="-136"/>
      <point x="278" y="-105"/>
      <point x="225" y="-105" type="curve" smooth="yes"/>
      <point x="176" y="-105"/>
      <point x="142" y="-132"/>
      <point x="142" y="-188" type="curve" smooth="yes"/>
      <point x="142" y="-241"/>
      <point x="173" y="-271"/>
    </contour>
  </outline>
</glyph>
<glyph name="hatafqamats-hb" format="2">
  <unicode hex="05B3"/>
  <note>
afii57802
</note>
  <anchor x="0" y="-85" name="_bottom"/>
  <outline>
    <contour>
      <point x="-179" y="-440" type="line"/>
      <point x="-79" y="-440" type="line"/>
      <point x="-79" y="-238" type="line"/>
      <point x="53" y="-238" type="line"/>
      <point x="53" y="-135" type="line"/>
      <point x="-311" y="-135" type="line"/>
      <point x="-311" y="-238" type="line"/>
      <point x="-179" y="-238" type="line"/>
    </contour>
    <contour>
      <point x="226" y="-519" type="curve" smooth="yes"/>
      <point x="280" y="-519"/>
      <point x="311" y="-488"/>
      <point x="311" y="-435" type="curve" smooth="yes"/>
      <point x="311" y="-384"/>
      <point x="280" y="-353"/>
      <point x="226" y="-353" type="curve" smooth="yes"/>
      <point x="173" y="-353"/>
      <point x="142" y="-384"/>
      <point x="142" y="-436" type="curve" smooth="yes"/>
      <point x="142" y="-489"/>
      <point x="173" y="-519"/>
    </contour>
    <contour>
      <point x="226" y="-271" type="curve" smooth="yes"/>
      <point x="280" y="-271"/>
      <point x="311" y="-241"/>
      <point x="311" y="-189" type="curve" smooth="yes"/>
      <point x="311" y="-136"/>
      <point x="280" y="-105"/>
      <point x="226" y="-105" type="curve" smooth="yes"/>
      <point x="173" y="-105"/>
      <point x="142" y="-136"/>
      <point x="142" y="-189" type="curve" smooth="yes"/>
      <point x="142" y="-241"/>
      <point x="173" y="-271"/>
    </contour>
  </outline>
</glyph>
<glyph name="segol-hb" format="2">
  <unicode hex="05B6"/>
  <note>
afii57795
</note>
  <anchor x="1" y="-85" name="_bottom"/>
  <outline>
    <contour>
      <point x="1" y="-519" type="curve" smooth="yes"/>
      <point x="55" y="-519"/>
      <point x="85" y="-488"/>
      <point x="85" y="-435" type="curve" smooth="yes"/>
      <point x="85" y="-384"/>
      <point x="55" y="-353"/>
      <point x="1" y="-353" type="curve" smooth="yes"/>
      <point x="-53" y="-353"/>
      <point x="-84" y="-384"/>
      <point x="-84" y="-436" type="curve" smooth="yes"/>
      <point x="-84" y="-489"/>
      <point x="-53" y="-519"/>
    </contour>
    <contour>
      <point x="145" y="-271" type="curve" smooth="yes"/>
      <point x="199" y="-271"/>
      <point x="232" y="-241"/>
      <point x="232" y="-189" type="curve" smooth="yes"/>
      <point x="232" y="-137"/>
      <point x="199" y="-105"/>
      <point x="145" y="-105" type="curve" smooth="yes"/>
      <point x="92" y="-105"/>
      <point x="61" y="-135"/>
      <point x="61" y="-189" type="curve" smooth="yes"/>
      <point x="61" y="-242"/>
      <point x="92" y="-271"/>
    </contour>
    <contour>
      <point x="-149" y="-271" type="curve" smooth="yes"/>
      <point x="-96" y="-271"/>
      <point x="-65" y="-241"/>
      <point x="-65" y="-189" type="curve" smooth="yes"/>
      <point x="-65" y="-136"/>
      <point x="-96" y="-105"/>
      <point x="-149" y="-105" type="curve" smooth="yes"/>
      <point x="-198" y="-105"/>
      <point x="-232" y="-132"/>
      <point x="-232" y="-188" type="curve" smooth="yes"/>
      <point x="-232" y="-241"/>
      <point x="-202" y="-271"/>
    </contour>
  </outline>
</glyph>
<glyph name="patah-hb" format="2">
  <unicode hex="05B7"/>
  <note>
afii57798
</note>
  <anchor x="0" y="16" name="_bottom"/>
  <outline>
    <contour>
      <point x="-191" y="-219" type="line"/>
      <point x="191" y="-219" type="line"/>
      <point x="191" y="-116" type="line"/>
      <point x="-191" y="-116" type="line"/>
    </contour>
  </outline>
</glyph>
<glyph name="qubuts-hb" format="2">
  <unicode hex="05BB"/>
  <note>
afii57796
</note>
  <anchor x="0" y="-93" name="_bottom"/>
  <outline>
    <contour>
      <point x="-173" y="-279" type="curve" smooth="yes"/>
      <point x="-119" y="-279"/>
      <point x="-89" y="-248"/>
      <point x="-89" y="-196" type="curve" smooth="yes"/>
      <point x="-89" y="-144"/>
      <point x="-120" y="-113"/>
      <point x="-173" y="-113" type="curve" smooth="yes"/>
      <point x="-222" y="-113"/>
      <point x="-256" y="-140"/>
      <point x="-256" y="-196" type="curve" smooth="yes"/>
      <point x="-256" y="-248"/>
      <point x="-226" y="-279"/>
    </contour>
    <contour>
      <point x="-3" y="-442" type="curve" smooth="yes"/>
      <point x="51" y="-442"/>
      <point x="82" y="-410"/>
      <point x="82" y="-358" type="curve" smooth="yes"/>
      <point x="82" y="-307"/>
      <point x="51" y="-275"/>
      <point x="-3" y="-275" type="curve" smooth="yes"/>
      <point x="-55" y="-275"/>
      <point x="-87" y="-307"/>
      <point x="-87" y="-359" type="curve" smooth="yes"/>
      <point x="-87" y="-411"/>
      <point x="-55" y="-442"/>
    </contour>
    <contour>
      <point x="170" y="-604" type="curve" smooth="yes"/>
      <point x="224" y="-604"/>
      <point x="256" y="-573"/>
      <point x="256" y="-521" type="curve" smooth="yes"/>
      <point x="256" y="-469"/>
      <point x="224" y="-437"/>
      <point x="170" y="-437" type="curve" smooth="yes"/>
      <point x="117" y="-437"/>
      <point x="86" y="-467"/>
      <point x="86" y="-521" type="curve" smooth="yes"/>
      <point x="86" y="-575"/>
      <point x="116" y="-604"/>
    </contour>
  </outline>
</glyph>
<glyph name="bet-hb" format="2">
  <advance width="1182"/>
  <unicode hex="05D1"/>
  <note>
afii57665
</note>
  <anchor x="594" y="0" name="bottom"/>
  <anchor x="43" y="0" name="bottomleft"/>
  <anchor x="402" y="669" name="center"/>
  <anchor x="594" y="1119" name="top"/>
  <anchor x="43" y="1119" name="topleft"/>
  <outline>
    <contour>
      <point x="102" y="0" type="line"/>
      <point x="1133" y="0" type="line"/>
      <point x="1133" y="236" type="line"/>
      <point x="989" y="236" type="line"/>
      <point x="989" y="871" type="line" smooth="yes"/>
      <point x="989" y="997"/>
      <point x="974" y="1087"/>
      <point x="915" y="1162" type="curve" smooth="yes"/>
      <point x="882" y="1215"/>
      <point x="829" y="1252"/>
      <point x="751" y="1277" type="curve" smooth="yes"/>
      <point x="674" y="1302"/>
      <point x="583" y="1313"/>
      <point x="458" y="1313" type="curve" smooth="yes"/>
      <point x="308" y="1313"/>
      <point x="190" y="1306"/>
      <point x="102" y="1292" type="curve"/>
      <point x="102" y="1057" type="line"/>
      <point x="257" y="1070"/>
      <point x="354" y="1077"/>
      <point x="433" y="1077" type="curve" smooth="yes"/>
      <point x="482" y="1077"/>
      <point x="522" y="1070"/>
      <point x="553" y="1058" type="curve" smooth="yes"/>
      <point x="642" y="1033"/>
      <point x="687" y="972"/>
      <point x="687" y="859" type="curve" smooth="yes"/>
      <point x="687" y="236" type="line"/>
      <point x="102" y="236" type="line"/>
    </contour>
  </outline>
</glyph>
<glyph name="dalet-hb" format="2">
  <advance width="1121"/>
  <unicode hex="05D3"/>
  <note>
afii57667
</note>
  <anchor x="559" y="0" name="bottom"/>
  <anchor x="33" y="0" name="bottomleft"/>
  <anchor x="318" y="670" name="center"/>
  <anchor x="559" y="1119" name="top"/>
  <anchor x="33" y="1119" name="topleft"/>
  <outline>
    <contour>
      <point x="589" y="0" type="line"/>
      <point x="891" y="0" type="line"/>
      <point x="891" y="824" type="line" smooth="yes"/>
      <point x="891" y="897"/>
      <point x="902" y="948"/>
      <point x="932" y="987" type="curve" smooth="yes"/>
      <point x="961" y="1028"/>
      <point x="1009" y="1054"/>
      <point x="1073" y="1079" type="curve"/>
      <point x="1073" y="1293" type="line"/>
      <point x="43" y="1293" type="line"/>
      <point x="43" y="1058" type="line"/>
      <point x="696" y="1058" type="line"/>
      <point x="665" y="1035"/>
      <point x="643" y="1009"/>
      <point x="623" y="973" type="curve" smooth="yes"/>
      <point x="601" y="936"/>
      <point x="589" y="885"/>
      <point x="589" y="829" type="curve" smooth="yes"/>
    </contour>
  </outline>
</glyph>
<glyph name="he-hb" format="2">
  <advance width="1345"/>
  <unicode hex="05D4"/>
  <note>
afii57668
</note>
  <anchor x="672" y="0" name="bottom"/>
  <anchor x="31" y="0" name="bottomleft"/>
  <anchor x="672" y="669" name="center"/>
  <anchor x="672" y="1119" name="top"/>
  <anchor x="31" y="1119" name="topleft"/>
  <outline>
    <contour>
      <point x="887" y="0" type="line"/>
      <point x="1190" y="0" type="line"/>
      <point x="1190" y="859" type="line" smooth="yes"/>
      <point x="1190" y="953"/>
      <point x="1182" y="1018"/>
      <point x="1158" y="1087" type="curve" smooth="yes"/>
      <point x="1128" y="1168"/>
      <point x="1076" y="1218"/>
      <point x="996" y="1258" type="curve" smooth="yes"/>
      <point x="917" y="1296"/>
      <point x="813" y="1313"/>
      <point x="657" y="1313" type="curve" smooth="yes"/>
      <point x="567" y="1313"/>
      <point x="473" y="1310"/>
      <point x="373" y="1303" type="curve" smooth="yes"/>
      <point x="301" y="1298"/>
      <point x="230" y="1291"/>
      <point x="160" y="1281" type="curve"/>
      <point x="160" y="1045" type="line"/>
      <point x="380" y="1067"/>
      <point x="517" y="1077"/>
      <point x="628" y="1077" type="curve" smooth="yes"/>
      <point x="684" y="1077"/>
      <point x="729" y="1069"/>
      <point x="761" y="1054" type="curve" smooth="yes"/>
      <point x="845" y="1028"/>
      <point x="887" y="968"/>
      <point x="887" y="859" type="curve" smooth="yes"/>
    </contour>
    <contour>
      <point x="161" y="0" type="line"/>
      <point x="462" y="0" type="line"/>
      <point x="462" y="772" type="line"/>
      <point x="161" y="772" type="line"/>
    </contour>
  </outline>
</glyph>
<glyph name="yod-hb" format="2">
  <advance width="592"/>
  <unicode hex="05D9"/>
  <note>
afii57673
</note>
  <anchor x="296" y="0" name="bottom"/>
  <anchor x="27" y="0" name="bottomleft"/>
  <anchor x="3" y="918" name="center"/>
  <anchor x="296" y="1119" name="top"/>
  <anchor x="27" y="1119" name="topleft"/>
  <outline>
    <contour>
      <point x="147" y="438" type="line"/>
      <point x="271" y="438" type="line"/>
      <point x="449" y="662" type="line"/>
      <point x="449" y="1293" type="line"/>
      <point x="147" y="1293" type="line"/>
    </contour>
  </outline>
</glyph>
<glyph name="finalkaf-hb" format="2">
  <advance width="1093"/>
  <unicode hex="05DA"/>
  <note>
afii57674
</note>
  <anchor x="551" y="0" name="bottom"/>
  <anchor x="38" y="0" name="bottomleft"/>
  <anchor x="323" y="671" name="center"/>
  <anchor x="551" y="1119" name="top"/>
  <anchor x="38" y="1119" name="topleft"/>
  <outline>
    <contour>
      <point x="639" y="-492" type="line"/>
      <point x="942" y="-492" type="line"/>
      <point x="942" y="725" type="line" smooth="yes"/>
      <point x="942" y="854"/>
      <point x="919" y="964"/>
      <point x="873" y="1058" type="curve" smooth="yes"/>
      <point x="848" y="1110"/>
      <point x="816" y="1154"/>
      <point x="777" y="1191" type="curve" smooth="yes"/>
      <point x="699" y="1264"/>
      <point x="568" y="1313"/>
      <point x="415" y="1313" type="curve" smooth="yes"/>
      <point x="339" y="1313"/>
      <point x="270" y="1311"/>
      <point x="206" y="1306" type="curve" smooth="yes"/>
      <point x="144" y="1301"/>
      <point x="90" y="1295"/>
      <point x="43" y="1288" type="curve"/>
      <point x="43" y="1046" type="line"/>
      <point x="93" y="1053"/>
      <point x="148" y="1062"/>
      <point x="190" y="1066" type="curve" smooth="yes"/>
      <point x="242" y="1072"/>
      <point x="294" y="1075"/>
      <point x="351" y="1075" type="curve" smooth="yes"/>
      <point x="432" y="1075"/>
      <point x="496" y="1057"/>
      <point x="540" y="1021" type="curve" smooth="yes"/>
      <point x="564" y="1002"/>
      <point x="585" y="976"/>
      <point x="600" y="945" type="curve" smooth="yes"/>
      <point x="629" y="883"/>
      <point x="639" y="817"/>
      <point x="639" y="727" type="curve" smooth="yes"/>
    </contour>
  </outline>
</glyph>
<glyph name="lamed-hb" format="2">
  <advance width="1115"/>
  <unicode hex="05DC"/>
  <note>
afii57676
</note>
  <anchor x="558" y="0" name="bottom"/>
  <anchor x="42" y="0" name="bottomleft"/>
  <anchor x="332" y="671" name="center"/>
  <anchor x="558" y="1119" name="top"/>
  <anchor x="42" y="1119" name="topleft"/>
  <outline>
    <contour>
      <point x="461" y="0" type="line"/>
      <point x="760" y="0" type="line"/>
      <point x="863" y="489" type="line"/>
      <point x="1039" y="1095" type="line"/>
      <point x="1039" y="1295" type="line"/>
      <point x="373" y="1295" type="line"/>
      <point x="373" y="1556" type="line"/>
      <point x="71" y="1556" type="line"/>
      <point x="71" y="1057" type="line"/>
      <point x="732" y="1057" type="line"/>
      <point x="567" y="495" type="line"/>
    </contour>
  </outline>
</glyph>
<glyph name="mem-hb" format="2">
  <advance width="1413"/>
  <unicode hex="05DE"/>
  <note>
afii57678
</note>
  <anchor x="692" y="0" name="bottom"/>
  <anchor x="33" y="0" name="bottomleft"/>
  <anchor x="693" y="671" name="center"/>
  <anchor x="692" y="1119" name="top"/>
  <anchor x="33" y="1119" name="topleft"/>
  <outline>
    <contour>
      <point x="102" y="0" type="line"/>
      <point x="400" y="0" type="line"/>
      <point x="482" y="920" type="line"/>
      <point x="500" y="954"/>
      <point x="529" y="988"/>
      <point x="566" y="1018" type="curve" smooth="yes"/>
      <point x="605" y="1048"/>
      <point x="659" y="1071"/>
      <point x="727" y="1071" type="curve" smooth="yes"/>
      <point x="821" y="1071"/>
      <point x="865" y="1023"/>
      <point x="888" y="961" type="curve" smooth="yes"/>
      <point x="910" y="921"/>
      <point x="922" y="859"/>
      <point x="922" y="776" type="curve" smooth="yes"/>
      <point x="922" y="236" type="line"/>
      <point x="675" y="236" type="line"/>
      <point x="675" y="0" type="line"/>
      <point x="1228" y="0" type="line"/>
      <point x="1228" y="776" type="line" smooth="yes"/>
      <point x="1228" y="909"/>
      <point x="1209" y="1019"/>
      <point x="1172" y="1103" type="curve" smooth="yes"/>
      <point x="1152" y="1148"/>
      <point x="1125" y="1188"/>
      <point x="1087" y="1222" type="curve" smooth="yes"/>
      <point x="1026" y="1279"/>
      <point x="936" y="1313"/>
      <point x="825" y="1313" type="curve" smooth="yes"/>
      <point x="727" y="1313"/>
      <point x="641" y="1287"/>
      <point x="588" y="1260" type="curve" smooth="yes"/>
      <point x="537" y="1234"/>
      <point x="474" y="1186"/>
      <point x="455" y="1161" type="curve"/>
      <point x="441" y="1161" type="line"/>
      <point x="434" y="1206"/>
      <point x="418" y="1251"/>
      <point x="395" y="1295" type="curve"/>
      <point x="124" y="1295" type="line"/>
      <point x="130" y="1278"/>
      <point x="136" y="1262"/>
      <point x="142" y="1245" type="curve" smooth="yes"/>
      <point x="151" y="1212"/>
      <point x="168" y="1157"/>
      <point x="174" y="1122" type="curve" smooth="yes"/>
      <point x="184" y="1072"/>
      <point x="189" y="1026"/>
      <point x="189" y="976" type="curve" smooth="yes"/>
      <point x="189" y="945"/>
      <point x="187" y="915"/>
      <point x="183" y="874" type="curve" smooth="yes"/>
    </contour>
  </outline>
</glyph>
<glyph name="finalnun-hb" format="2">
  <advance width="602"/>
  <unicode hex="05DF"/>
  <note>
afii57679
</note>
  <anchor x="305" y="0" name="bottom"/>
  <anchor x="39" y="0" name="bottomleft"/>
  <anchor x="305" y="560" name="center"/>
  <anchor x="305" y="1119" name="top"/>
  <anchor x="39" y="1119" name="topleft"/>
  <outline>
    <contour>
      <point x="140" y="-479" type="line"/>
      <point x="442" y="-479" type="line"/>
      <point x="442" y="846" type="line" smooth="yes"/>
      <point x="442" y="994"/>
      <point x="410" y="1178"/>
      <point x="395" y="1232" type="curve" smooth="yes"/>
      <point x="388" y="1258"/>
      <point x="381" y="1278"/>
      <point x="376" y="1293" type="curve"/>
      <point x="73" y="1293" type="line"/>
      <point x="78" y="1277"/>
      <point x="83" y="1260"/>
      <point x="88" y="1243" type="curve" smooth="yes"/>
      <point x="115" y="1155"/>
      <point x="140" y="996"/>
      <point x="140" y="846" type="curve" smooth="yes"/>
    </contour>
  </outline>
</glyph>
<glyph name="ayin-hb" format="2">
  <advance width="1297"/>
  <unicode hex="05E2"/>
  <note>
afii57682
</note>
  <anchor x="652" y="0" name="bottom"/>
  <anchor x="38" y="0" name="bottomleft"/>
  <anchor x="652" y="560" name="center"/>
  <anchor x="652" y="1119" name="top"/>
  <anchor x="38" y="1119" name="topleft"/>
  <outline>
    <contour>
      <point x="70" y="-64" type="line"/>
      <point x="197" y="-44"/>
      <point x="329" y="-24"/>
      <point x="467" y="-2" type="curve" smooth="yes"/>
      <point x="758" y="43"/>
      <point x="955" y="175"/>
      <point x="1055" y="386" type="curve" smooth="yes"/>
      <point x="1111" y="478"/>
      <point x="1145" y="593"/>
      <point x="1157" y="728" type="curve" smooth="yes"/>
      <point x="1209" y="1293" type="line"/>
      <point x="912" y="1293" type="line"/>
      <point x="859" y="715" type="line" smooth="yes"/>
      <point x="841" y="534"/>
      <point x="770" y="400"/>
      <point x="667" y="328" type="curve"/>
      <point x="580" y="725" type="line"/>
      <point x="425" y="1293" type="line"/>
      <point x="124" y="1293" type="line"/>
      <point x="409" y="232" type="line"/>
      <point x="374" y="225"/>
      <point x="339" y="219"/>
      <point x="305" y="213" type="curve"/>
      <point x="70" y="178" type="line"/>
    </contour>
  </outline>
</glyph>
<glyph name="finalpe-hb" format="2">
  <advance width="1309"/>
  <unicode hex="05E3"/>
  <note>
afii57683
</note>
  <anchor x="652" y="0" name="bottom"/>
  <anchor x="30" y="0" name="bottomleft"/>
  <anchor x="601" y="863" name="center"/>
  <anchor x="652" y="1119" name="top"/>
  <anchor x="30" y="1119" name="topleft"/>
  <outline>
    <contour>
      <point x="845" y="-492" type="line"/>
      <point x="1151" y="-492" type="line"/>
      <point x="1151" y="647" type="line" smooth="yes"/>
      <point x="1151" y="806"/>
      <point x="1127" y="936"/>
      <point x="1080" y="1038" type="curve" smooth="yes"/>
      <point x="1040" y="1125"/>
      <point x="979" y="1192"/>
      <point x="914" y="1234" type="curve" smooth="yes"/>
      <point x="832" y="1287"/>
      <point x="730" y="1313"/>
      <point x="608" y="1313" type="curve" smooth="yes"/>
      <point x="504" y="1313"/>
      <point x="411" y="1295"/>
      <point x="325" y="1257" type="curve" smooth="yes"/>
      <point x="277" y="1235"/>
      <point x="228" y="1203"/>
      <point x="192" y="1168" type="curve" smooth="yes"/>
      <point x="119" y="1098"/>
      <point x="70" y="983"/>
      <point x="70" y="861" type="curve" smooth="yes"/>
      <point x="70" y="720"/>
      <point x="110" y="614"/>
      <point x="178" y="542" type="curve" smooth="yes"/>
      <point x="252" y="465"/>
      <point x="359" y="425"/>
      <point x="486" y="422" type="curve" smooth="yes"/>
      <point x="556" y="420" type="line"/>
      <point x="604" y="637" type="line"/>
      <point x="543" y="649" type="line" smooth="yes"/>
      <point x="503" y="657"/>
      <point x="468" y="672"/>
      <point x="438" y="694" type="curve" smooth="yes"/>
      <point x="396" y="725"/>
      <point x="371" y="784"/>
      <point x="371" y="855" type="curve" smooth="yes"/>
      <point x="371" y="916"/>
      <point x="393" y="968"/>
      <point x="427" y="1005" type="curve" smooth="yes"/>
      <point x="463" y="1045"/>
      <point x="532" y="1070"/>
      <point x="607" y="1070" type="curve" smooth="yes"/>
      <point x="681" y="1070"/>
      <point x="746" y="1054"/>
      <point x="791" y="973" type="curve" smooth="yes"/>
      <point x="827" y="916"/>
      <point x="845" y="808"/>
      <point x="845" y="647" type="curve" smooth="yes"/>
    </contour>
  </outline>
</glyph>
<glyph name="qof-hb" format="2">
  <advance width="1310"/>
  <unicode hex="05E7"/>
  <note>
afii57687
</note>
  <anchor x="673" y="0" name="bottom"/>
  <anchor x="31" y="0" name="bottomleft"/>
  <anchor x="635" y="670" name="center"/>
  <anchor x="673" y="1119" name="top"/>
  <anchor x="31" y="1119" name="topleft"/>
  <outline>
    <contour>
      <point x="674" y="0" type="curve"/>
      <point x="974" y="0" type="line"/>
      <point x="974" y="48" type="line" smooth="yes"/>
      <point x="974" y="113"/>
      <point x="997" y="234"/>
      <point x="1015" y="308" type="curve" smooth="yes"/>
      <point x="1031" y="373"/>
      <point x="1060" y="474"/>
      <point x="1084" y="538" type="curve" smooth="yes"/>
      <point x="1282" y="1110" type="line"/>
      <point x="1282" y="1293" type="line"/>
      <point x="160" y="1293" type="line"/>
      <point x="160" y="1058" type="line"/>
      <point x="953" y="1058" type="line"/>
      <point x="777" y="544" type="line" smooth="yes"/>
      <point x="753" y="473"/>
      <point x="729" y="383"/>
      <point x="716" y="320" type="curve" smooth="yes"/>
      <point x="692" y="215"/>
      <point x="674" y="109"/>
      <point x="674" y="48" type="curve" smooth="yes"/>
      <point x="674" y="32"/>
      <point x="674" y="16"/>
    </contour>
    <contour>
      <point x="160" y="-492" type="line"/>
      <point x="463" y="-492" type="line"/>
      <point x="463" y="774" type="line"/>
      <point x="160" y="774" type="line"/>
    </contour>
  </outline>
</glyph>
<glyph name="tav-hb" format="2">
  <advance width="1435"/>
  <unicode hex="05EA"/>
  <note>
afii57690
</note>
  <anchor x="716" y="0" name="bottom"/>
  <anchor x="48" y="0" name="bottomleft"/>
  <anchor x="766" y="663" name="center"/>
  <anchor x="716" y="1119" name="top"/>
  <anchor x="48" y="1119" name="topleft"/>
  <outline>
    <contour>
      <point x="219" y="-13" type="curve" smooth="yes"/>
      <point x="331" y="-13"/>
      <point x="416" y="10"/>
      <point x="476" y="56" type="curve" smooth="yes"/>
      <point x="507" y="80"/>
      <point x="531" y="110"/>
      <point x="549" y="147" type="curve" smooth="yes"/>
      <point x="581" y="210"/>
      <point x="592" y="280"/>
      <point x="592" y="369" type="curve" smooth="yes"/>
      <point x="592" y="1073" type="line"/>
      <point x="628" y="1075"/>
      <point x="666" y="1076"/>
      <point x="706" y="1076" type="curve" smooth="yes"/>
      <point x="748" y="1076"/>
      <point x="784" y="1072"/>
      <point x="813" y="1063" type="curve" smooth="yes"/>
      <point x="910" y="1040"/>
      <point x="959" y="977"/>
      <point x="959" y="858" type="curve" smooth="yes"/>
      <point x="959" y="0" type="line"/>
      <point x="1261" y="0" type="line"/>
      <point x="1261" y="870" type="line" smooth="yes"/>
      <point x="1261" y="952"/>
      <point x="1254" y="1020"/>
      <point x="1236" y="1073" type="curve" smooth="yes"/>
      <point x="1212" y="1148"/>
      <point x="1174" y="1194"/>
      <point x="1111" y="1235" type="curve" smooth="yes"/>
      <point x="1029" y="1288"/>
      <point x="912" y="1313"/>
      <point x="720" y="1313" type="curve" smooth="yes"/>
      <point x="554" y="1313"/>
      <point x="364" y="1302"/>
      <point x="149" y="1281" type="curve"/>
      <point x="149" y="1045" type="line"/>
      <point x="196" y="1048"/>
      <point x="243" y="1052"/>
      <point x="290" y="1055" type="curve"/>
      <point x="290" y="369" type="line" smooth="yes"/>
      <point x="290" y="271"/>
      <point x="259" y="229"/>
      <point x="179" y="229" type="curve" smooth="yes"/>
      <point x="147" y="229"/>
      <point x="111" y="232"/>
      <point x="71" y="239" type="curve"/>
      <point x="71" y="19" type="line"/>
      <point x="123" y="-2"/>
      <point x="169" y="-13"/>
    </contour>
  </outline>
</glyph>
<glyph name="quoteright" format="2">
  <advance width="444"/>
  <unicode hex="2019"/>
  <note>
quoteright
</note>
  <outline>
    <contour>
      <point x="25" y="902" type="curve"/>
      <point x="239" y="902" type="line"/>
      <point x="298" y="1036"/>
      <point x="357" y="1215"/>
      <point x="415" y="1439" type="curve"/>
      <point x="401" y="1461" type="line"/>
      <point x="126" y="1461" type="line"/>
      <point x="105" y="1291"/>
      <point x="68" y="1088"/>
    </contour>
  </outline>
</glyph>
<glyph name="quotesinglbase" format="2">
  <advance width="596"/>
  <unicode hex="201A"/>
  <note>
quotesinglbase
</note>
  <outline>
    <contour>
      <point x="63" y="-278" type="curve"/>
      <point x="278" y="-278" type="line"/>
      <point x="335" y="-151"/>
      <point x="393" y="28"/>
      <point x="453" y="259" type="curve"/>
      <point x="440" y="281" type="line"/>
      <point x="166" y="281" type="line"/>
      <point x="148" y="139"/>
      <point x="102" y="-111"/>
    </contour>
  </outline>
</glyph>
<glyph name="quotereversed" format="2">
  <advance width="442"/>
  <unicode hex="201B"/>
  <note>
quotereversed
</note>
  <outline>
    <contour>
      <point x="201" y="902" type="curve"/>
      <point x="415" y="902" type="line"/>
      <point x="371" y="1091"/>
      <point x="332" y="1302"/>
      <point x="313" y="1461" type="curve"/>
      <point x="39" y="1461" type="line"/>
      <point x="25" y="1439" type="line"/>
      <point x="84" y="1211"/>
      <point x="147" y="1019"/>
    </contour>
  </outline>
</glyph>
<glyph name="quotedblleft" format="2">
  <advance width="911"/>
  <unicode hex="201C"/>
  <note>
quotedblleft
</note>
  <outline>
    <contour>
      <point x="491" y="902" type="line"/>
      <point x="765" y="902" type="line"/>
      <point x="786" y="1070"/>
      <point x="824" y="1276"/>
      <point x="867" y="1461" type="curve"/>
      <point x="653" y="1461" type="line"/>
      <point x="600" y="1345"/>
      <point x="537" y="1154"/>
      <point x="477" y="924" type="curve"/>
    </contour>
    <contour>
      <point x="39" y="902" type="line"/>
      <point x="313" y="902" type="line"/>
      <point x="333" y="1064"/>
      <point x="371" y="1274"/>
      <point x="415" y="1461" type="curve"/>
      <point x="201" y="1461" type="line"/>
      <point x="148" y="1345"/>
      <point x="84" y="1151"/>
      <point x="25" y="924" type="curve"/>
    </contour>
  </outline>
</glyph>
<glyph name="dagger" format="2">
  <advance width="1057"/>
  <unicode hex="2020"/>
  <note>
dagger
</note>
  <outline>
    <contour>
      <point x="385" y="0" type="line"/>
      <point x="651" y="0" type="line"/>
      <point x="602" y="962" type="line"/>
      <point x="933" y="935" type="line"/>
      <point x="933" y="1168" type="line"/>
      <point x="602" y="1139" type="line"/>
      <point x="651" y="1556" type="line"/>
      <point x="385" y="1556" type="line"/>
      <point x="435" y="1139" type="line"/>
      <point x="125" y="1168" type="line"/>
      <point x="125" y="935" type="line"/>
      <point x="435" y="962" type="line"/>
    </contour>
  </outline>
</glyph>
<glyph name="daggerdbl" format="2">
  <advance width="1077"/>
  <unicode hex="2021"/>
  <note>
daggerdbl
</note>
  <outline>
    <contour>
      <point x="401" y="0" type="line"/>
      <point x="665" y="0" type="line"/>
      <point x="615" y="382" type="line"/>
      <point x="947" y="353" type="line"/>
      <point x="947" y="587" type="line"/>
      <point x="615" y="558" type="line"/>
      <point x="655" y="786" type="line"/>
      <point x="615" y="993" type="line"/>
      <point x="947" y="965" type="line"/>
      <point x="947" y="1199" type="line"/>
      <point x="615" y="1170" type="line"/>
      <point x="665" y="1556" type="line"/>
      <point x="401" y="1556" type="line"/>
      <point x="450" y="1170" type="line"/>
      <point x="123" y="1199" type="line"/>
      <point x="123" y="965" type="line"/>
      <point x="450" y="993" type="line"/>
      <point x="409" y="786" type="line"/>
      <point x="450" y="558" type="line"/>
      <point x="123" y="587" type="line"/>
      <point x="123" y="353" type="line"/>
      <point x="450" y="382" type="line"/>
    </contour>
  </outline>
</glyph>
<glyph name="bullet" format="2">
  <advance width="770"/>
  <unicode hex="2022"/>
  <note>
bullet
</note>
  <outline>
    <contour>
      <point x="384" y="441" type="curve" smooth="yes"/>
      <point x="557" y="441"/>
      <point x="660" y="554"/>
      <point x="660" y="748" type="curve" smooth="yes"/>
      <point x="660" y="942"/>
      <point x="561" y="1054"/>
      <point x="384" y="1054" type="curve" smooth="yes"/>
      <point x="207" y="1054"/>
      <point x="109" y="946"/>
      <point x="109" y="748" type="curve" smooth="yes"/>
      <point x="109" y="550"/>
      <point x="211" y="441"/>
    </contour>
  </outline>
</glyph>
<glyph name="perthousand" format="2">
  <advance width="2623"/>
  <unicode hex="2030"/>
  <note>
perthousand
</note>
  <outline>
    <contour>
      <point x="403" y="0" type="line"/>
      <point x="640" y="0" type="line"/>
      <point x="1451" y="1462" type="line"/>
      <point x="1214" y="1462" type="line"/>
    </contour>
    <contour>
      <point x="409" y="565" type="curve" smooth="yes"/>
      <point x="636" y="565"/>
      <point x="763" y="731"/>
      <point x="763" y="1026" type="curve" smooth="yes"/>
      <point x="763" y="1309"/>
      <point x="628" y="1483"/>
      <point x="409" y="1483" type="curve" smooth="yes"/>
      <point x="188" y="1483"/>
      <point x="63" y="1320"/>
      <point x="63" y="1026" type="curve" smooth="yes"/>
      <point x="63" y="740"/>
      <point x="196" y="565"/>
    </contour>
    <contour>
      <point x="412" y="759" type="curve" smooth="yes"/>
      <point x="382" y="759"/>
      <point x="359" y="775"/>
      <point x="342" y="806" type="curve" smooth="yes"/>
      <point x="316" y="846"/>
      <point x="303" y="918"/>
      <point x="303" y="1023" type="curve" smooth="yes"/>
      <point x="303" y="1127"/>
      <point x="316" y="1199"/>
      <point x="343" y="1239" type="curve" smooth="yes"/>
      <point x="359" y="1271"/>
      <point x="382" y="1286"/>
      <point x="412" y="1286" type="curve" smooth="yes"/>
      <point x="440" y="1286"/>
      <point x="462" y="1271"/>
      <point x="479" y="1241" type="curve" smooth="yes"/>
      <point x="508" y="1203"/>
      <point x="522" y="1130"/>
      <point x="522" y="1023" type="curve" smooth="yes"/>
      <point x="522" y="921"/>
      <point x="510" y="849"/>
      <point x="486" y="809" type="curve" smooth="yes"/>
      <point x="468" y="776"/>
      <point x="444" y="759"/>
    </contour>
    <contour>
      <point x="1444" y="-18" type="curve" smooth="yes"/>
      <point x="1670" y="-18"/>
      <point x="1797" y="148"/>
      <point x="1797" y="442" type="curve" smooth="yes"/>
      <point x="1797" y="726"/>
      <point x="1662" y="899"/>
      <point x="1444" y="899" type="curve" smooth="yes"/>
      <point x="1223" y="899"/>
      <point x="1097" y="737"/>
      <point x="1097" y="442" type="curve" smooth="yes"/>
      <point x="1097" y="158"/>
      <point x="1229" y="-18"/>
    </contour>
    <contour>
      <point x="1446" y="176" type="curve" smooth="yes"/>
      <point x="1413" y="176"/>
      <point x="1388" y="194"/>
      <point x="1371" y="229" type="curve" smooth="yes"/>
      <point x="1348" y="271"/>
      <point x="1337" y="340"/>
      <point x="1337" y="439" type="curve" smooth="yes"/>
      <point x="1337" y="541"/>
      <point x="1349" y="612"/>
      <point x="1374" y="653" type="curve" smooth="yes"/>
      <point x="1391" y="686"/>
      <point x="1415" y="702"/>
      <point x="1446" y="702" type="curve" smooth="yes"/>
      <point x="1480" y="702"/>
      <point x="1505" y="684"/>
      <point x="1521" y="648" type="curve" smooth="yes"/>
      <point x="1545" y="604"/>
      <point x="1557" y="535"/>
      <point x="1557" y="439" type="curve" smooth="yes"/>
      <point x="1557" y="348"/>
      <point x="1547" y="281"/>
      <point x="1525" y="235" type="curve" smooth="yes"/>
      <point x="1508" y="196"/>
      <point x="1482" y="176"/>
    </contour>
    <contour>
      <point x="2219" y="-18" type="curve" smooth="yes"/>
      <point x="2443" y="-18"/>
      <point x="2572" y="144"/>
      <point x="2572" y="442" type="curve" smooth="yes"/>
      <point x="2572" y="726"/>
      <point x="2437" y="899"/>
      <point x="2219" y="899" type="curve" smooth="yes"/>
      <point x="1998" y="899"/>
      <point x="1872" y="737"/>
      <point x="1872" y="442" type="curve" smooth="yes"/>
      <point x="1872" y="158"/>
      <point x="2006" y="-18"/>
    </contour>
    <contour>
      <point x="2221" y="176" type="curve" smooth="yes"/>
      <point x="2189" y="176"/>
      <point x="2164" y="194"/>
      <point x="2147" y="229" type="curve" smooth="yes"/>
      <point x="2124" y="272"/>
      <point x="2112" y="342"/>
      <point x="2112" y="439" type="curve" smooth="yes"/>
      <point x="2112" y="535"/>
      <point x="2124" y="604"/>
      <point x="2147" y="648" type="curve" smooth="yes"/>
      <point x="2163" y="684"/>
      <point x="2187" y="702"/>
      <point x="2221" y="702" type="curve" smooth="yes"/>
      <point x="2256" y="702"/>
      <point x="2281" y="684"/>
      <point x="2297" y="647" type="curve" smooth="yes"/>
      <point x="2321" y="603"/>
      <point x="2332" y="533"/>
      <point x="2332" y="439" type="curve" smooth="yes"/>
      <point x="2332" y="350"/>
      <point x="2323" y="283"/>
      <point x="2302" y="238" type="curve" smooth="yes"/>
      <point x="2285" y="197"/>
      <point x="2258" y="176"/>
    </contour>
  </outline>
</glyph>
<glyph name="minute" format="2">
  <advance width="545"/>
  <unicode hex="2032"/>
  <note>
minute
</note>
  <outline>
    <contour>
      <point x="171" y="934" type="line"/>
      <point x="381" y="934" type="line"/>
      <point x="420" y="1462" type="line"/>
      <point x="133" y="1462" type="line"/>
    </contour>
  </outline>
</glyph>
<glyph name="zerosuperior" format="2">
  <advance width="776"/>
  <unicode hex="2070"/>
  <note>
zerosuperior
</note>
  <outline>
    <contour>
      <point x="382" y="565" type="curve" smooth="yes"/>
      <point x="615" y="565"/>
      <point x="733" y="723"/>
      <point x="733" y="1026" type="curve" smooth="yes"/>
      <point x="733" y="1324"/>
      <point x="610" y="1484"/>
      <point x="382" y="1484" type="curve" smooth="yes"/>
      <point x="158" y="1484"/>
      <point x="41" y="1332"/>
      <point x="41" y="1026" type="curve" smooth="yes"/>
      <point x="41" y="728"/>
      <point x="162" y="565"/>
    </contour>
    <contour>
      <point x="387" y="741" type="curve" smooth="yes"/>
      <point x="349" y="741"/>
      <point x="322" y="760"/>
      <point x="304" y="799" type="curve" smooth="yes"/>
      <point x="282" y="844"/>
      <point x="272" y="919"/>
      <point x="272" y="1025" type="curve" smooth="yes"/>
      <point x="272" y="1127"/>
      <point x="281" y="1200"/>
      <point x="301" y="1244" type="curve" smooth="yes"/>
      <point x="319" y="1285"/>
      <point x="347" y="1305"/>
      <point x="387" y="1305" type="curve" smooth="yes"/>
      <point x="422" y="1305"/>
      <point x="447" y="1287"/>
      <point x="466" y="1251" type="curve" smooth="yes"/>
      <point x="491" y="1207"/>
      <point x="503" y="1132"/>
      <point x="503" y="1024" type="curve" smooth="yes"/>
      <point x="503" y="918"/>
      <point x="492" y="844"/>
      <point x="470" y="800" type="curve" smooth="yes"/>
      <point x="451" y="760"/>
      <point x="424" y="741"/>
    </contour>
  </outline>
</glyph>
<glyph name="foursuperior" format="2">
  <advance width="776"/>
  <unicode hex="2074"/>
  <note>
foursuperior
</note>
  <outline>
    <contour>
      <point x="395" y="586" type="line"/>
      <point x="614" y="586" type="line"/>
      <point x="614" y="756" type="line"/>
      <point x="740" y="756" type="line"/>
      <point x="740" y="920" type="line"/>
      <point x="614" y="920" type="line"/>
      <point x="614" y="1468" type="line"/>
      <point x="379" y="1468" type="line"/>
      <point x="12" y="905" type="line"/>
      <point x="12" y="756" type="line"/>
      <point x="395" y="756" type="line"/>
    </contour>
    <contour>
      <point x="192" y="920" type="line"/>
      <point x="272" y="1038"/>
      <point x="325" y="1119"/>
      <point x="352" y="1163" type="curve"/>
      <point x="366" y="1183"/>
      <point x="382" y="1217"/>
      <point x="402" y="1266" type="curve"/>
      <point x="397" y="1215"/>
      <point x="395" y="1161"/>
      <point x="395" y="1102" type="curve" smooth="yes"/>
      <point x="395" y="920" type="line"/>
    </contour>
  </outline>
</glyph>
<glyph name="sixsuperior" format="2">
  <advance width="776"/>
  <unicode hex="2076"/>
  <note>
sixsuperior
</note>
  <outline>
    <contour>
      <point x="402" y="565" type="curve" smooth="yes"/>
      <point x="602" y="565"/>
      <point x="728" y="688"/>
      <point x="728" y="879" type="curve" smooth="yes"/>
      <point x="728" y="1055"/>
      <point x="635" y="1151"/>
      <point x="483" y="1151" type="curve" smooth="yes"/>
      <point x="388" y="1151"/>
      <point x="328" y="1119"/>
      <point x="283" y="1057" type="curve"/>
      <point x="274" y="1057" type="line"/>
      <point x="288" y="1198"/>
      <point x="370" y="1269"/>
      <point x="532" y="1292" type="curve" smooth="yes"/>
      <point x="579" y="1297"/>
      <point x="623" y="1300"/>
      <point x="664" y="1301" type="curve"/>
      <point x="653" y="1477" type="line"/>
      <point x="607" y="1478"/>
      <point x="561" y="1475"/>
      <point x="517" y="1470" type="curve" smooth="yes"/>
      <point x="200" y="1437"/>
      <point x="45" y="1269"/>
      <point x="45" y="942" type="curve" smooth="yes"/>
      <point x="45" y="708"/>
      <point x="180" y="565"/>
    </contour>
    <contour>
      <point x="383" y="737" type="curve" smooth="yes"/>
      <point x="310" y="737"/>
      <point x="261" y="801"/>
      <point x="261" y="889" type="curve" smooth="yes"/>
      <point x="261" y="952"/>
      <point x="311" y="1005"/>
      <point x="392" y="1005" type="curve" smooth="yes"/>
      <point x="462" y="1005"/>
      <point x="502" y="959"/>
      <point x="502" y="878" type="curve" smooth="yes"/>
      <point x="502" y="788"/>
      <point x="462" y="737"/>
    </contour>
  </outline>
</glyph>
<glyph name="ninesuperior" format="2">
  <advance width="776"/>
  <unicode hex="2079"/>
  <note>
ninesuperior
</note>
  <outline>
    <contour>
      <point x="265" y="565" type="curve" smooth="yes"/>
      <point x="573" y="565"/>
      <point x="726" y="737"/>
      <point x="726" y="1097" type="curve" smooth="yes"/>
      <point x="726" y="1185"/>
      <point x="708" y="1260"/>
      <point x="674" y="1321" type="curve" smooth="yes"/>
      <point x="616" y="1425"/>
      <point x="512" y="1482"/>
      <point x="377" y="1482" type="curve" smooth="yes"/>
      <point x="168" y="1482"/>
      <point x="43" y="1365"/>
      <point x="43" y="1171" type="curve" smooth="yes"/>
      <point x="43" y="994"/>
      <point x="135" y="899"/>
      <point x="292" y="899" type="curve" smooth="yes"/>
      <point x="386" y="899"/>
      <point x="449" y="933"/>
      <point x="491" y="993" type="curve"/>
      <point x="500" y="993" type="line"/>
      <point x="492" y="829"/>
      <point x="413" y="744"/>
      <point x="256" y="744" type="curve" smooth="yes"/>
      <point x="190" y="744"/>
      <point x="139" y="749"/>
      <point x="105" y="761" type="curve"/>
      <point x="105" y="582" type="line"/>
      <point x="137" y="571"/>
      <point x="191" y="565"/>
    </contour>
    <contour>
      <point x="377" y="1045" type="curve" smooth="yes"/>
      <point x="305" y="1045"/>
      <point x="267" y="1092"/>
      <point x="267" y="1173" type="curve" smooth="yes"/>
      <point x="267" y="1263"/>
      <point x="306" y="1311"/>
      <point x="386" y="1311" type="curve" smooth="yes"/>
      <point x="461" y="1311"/>
      <point x="510" y="1244"/>
      <point x="510" y="1159" type="curve" smooth="yes"/>
      <point x="510" y="1098"/>
      <point x="460" y="1045"/>
    </contour>
  </outline>
</glyph>
<glyph name="euro" format="2">
  <advance width="1169"/>
  <unicode hex="20AC"/>
  <note>
Euro
</note>
  <outline>
    <contour>
      <point x="826" y="-20" type="curve" smooth="yes"/>
      <point x="943" y="-20"/>
      <point x="1037" y="-3"/>
      <point x="1117" y="36" type="curve"/>
      <point x="1117" y="290" type="line"/>
      <point x="1033" y="252"/>
      <point x="942" y="232"/>
      <point x="845" y="232" type="curve" smooth="yes"/>
      <point x="666" y="232"/>
      <point x="556" y="322"/>
      <point x="528" y="485" type="curve"/>
      <point x="846" y="485" type="line"/>
      <point x="846" y="653" type="line"/>
      <point x="510" y="653" type="line"/>
      <point x="509" y="670"/>
      <point x="508" y="689"/>
      <point x="508" y="717" type="curve"/>
      <point x="508" y="741"/>
      <point x="509" y="758"/>
      <point x="510" y="778" type="curve"/>
      <point x="910" y="778" type="line"/>
      <point x="910" y="946" type="line"/>
      <point x="523" y="946" type="line"/>
      <point x="551" y="1125"/>
      <point x="652" y="1230"/>
      <point x="826" y="1230" type="curve" smooth="yes"/>
      <point x="905" y="1230"/>
      <point x="986" y="1211"/>
      <point x="1068" y="1173" type="curve"/>
      <point x="1163" y="1408" type="line"/>
      <point x="1054" y="1460"/>
      <point x="945" y="1484"/>
      <point x="826" y="1484" type="curve" smooth="yes"/>
      <point x="504" y="1484"/>
      <point x="288" y="1293"/>
      <point x="224" y="946" type="curve"/>
      <point x="66" y="946" type="line"/>
      <point x="66" y="778" type="line"/>
      <point x="208" y="778" type="line"/>
      <point x="207" y="758"/>
      <point x="205" y="737"/>
      <point x="205" y="717" type="curve"/>
      <point x="205" y="692"/>
      <point x="205" y="674"/>
      <point x="208" y="653" type="curve"/>
      <point x="66" y="653" type="line"/>
      <point x="66" y="485" type="line"/>
      <point x="229" y="485" type="line"/>
      <point x="290" y="159"/>
      <point x="499" y="-20"/>
    </contour>
  </outline>
</glyph>
<glyph name="literSign" format="2">
  <advance width="1065"/>
  <unicode hex="2113"/>
  <note>
afii61289
</note>
  <outline>
    <contour>
      <point x="592" y="-17" type="curve" smooth="yes"/>
      <point x="865" y="-17"/>
      <point x="998" y="110"/>
      <point x="1000" y="394" type="curve"/>
      <point x="767" y="394" type="line"/>
      <point x="762" y="263"/>
      <point x="726" y="190"/>
      <point x="643" y="190" type="curve" smooth="yes"/>
      <point x="555" y="190"/>
      <point x="519" y="242"/>
      <point x="519" y="377" type="curve" smooth="yes"/>
      <point x="519" y="595" type="line"/>
      <point x="820" y="697"/>
      <point x="973" y="875"/>
      <point x="973" y="1121" type="curve" smooth="yes"/>
      <point x="973" y="1351"/>
      <point x="842" y="1480"/>
      <point x="610" y="1480" type="curve" smooth="yes"/>
      <point x="359" y="1480"/>
      <point x="224" y="1351"/>
      <point x="224" y="1100" type="curve" smooth="yes"/>
      <point x="224" y="718" type="line"/>
      <point x="164" y="699"/>
      <point x="104" y="682"/>
      <point x="41" y="665" type="curve"/>
      <point x="41" y="462" type="line"/>
      <point x="101" y="477"/>
      <point x="162" y="494"/>
      <point x="224" y="514" type="curve"/>
      <point x="224" y="387" type="line" smooth="yes"/>
      <point x="224" y="130"/>
      <point x="357" y="-17"/>
    </contour>
    <contour>
      <point x="519" y="808" type="curve"/>
      <point x="519" y="1143" type="line" smooth="yes"/>
      <point x="519" y="1245"/>
      <point x="545" y="1287"/>
      <point x="610" y="1287" type="curve" smooth="yes"/>
      <point x="673" y="1287"/>
      <point x="703" y="1234"/>
      <point x="703" y="1128" type="curve" smooth="yes"/>
      <point x="703" y="974"/>
      <point x="644" y="869"/>
    </contour>
  </outline>
</glyph>
<glyph name="summation" format="2">
  <advance width="1292"/>
  <unicode hex="2211"/>
  <note>
summation
</note>
  <outline>
    <contour>
      <point x="41" y="-455" type="line"/>
      <point x="1250" y="-455" type="line"/>
      <point x="1250" y="-201" type="line"/>
      <point x="447" y="-201" type="line"/>
      <point x="961" y="553" type="line"/>
      <point x="473" y="1208" type="line"/>
      <point x="1191" y="1208" type="line"/>
      <point x="1191" y="1462" type="line"/>
      <point x="57" y="1462" type="line"/>
      <point x="57" y="1301" type="line"/>
      <point x="614" y="547" type="line"/>
      <point x="41" y="-288" type="line"/>
    </contour>
  </outline>
</glyph>
<glyph name="greaterequal" format="2">
  <advance width="1169"/>
  <unicode hex="2265"/>
  <note>
greaterequal
</note>
  <outline>
    <contour>
      <point x="88" y="291" type="line"/>
      <point x="1080" y="730" type="line"/>
      <point x="1080" y="868" type="line"/>
      <point x="88" y="1365" type="line"/>
      <point x="88" y="1128" type="line"/>
      <point x="769" y="809" type="line"/>
      <point x="88" y="526" type="line"/>
    </contour>
    <contour>
      <point x="88" y="1" type="line"/>
      <point x="1081" y="1" type="line"/>
      <point x="1081" y="213" type="line"/>
      <point x="88" y="213" type="line"/>
    </contour>
  </outline>
</glyph>
<glyph name="replacementCharacter" format="2">
  <advance width="2048"/>
  <unicode hex="FFFD"/>
  <note>
uniFFFD
</note>
  <outline>
    <contour>
      <point x="1021" y="-319" type="line"/>
      <point x="1961" y="618" type="line"/>
      <point x="1021" y="1556" type="line"/>
      <point x="84" y="618" type="line"/>
    </contour>
    <contour>
      <point x="990" y="-43" type="curve" smooth="yes"/>
      <point x="897" y="-43"/>
      <point x="849" y="8"/>
      <point x="849" y="92" type="curve" smooth="yes"/>
      <point x="849" y="179"/>
      <point x="894" y="229"/>
      <point x="990" y="229" type="curve" smooth="yes"/>
      <point x="1079" y="229"/>
      <point x="1129" y="177"/>
      <point x="1129" y="92" type="curve" smooth="yes"/>
      <point x="1129" y="9"/>
      <point x="1078" y="-43"/>
    </contour>
    <contour>
      <point x="876" y="367" type="line"/>
      <point x="876" y="426" type="line" smooth="yes"/>
      <point x="876" y="525"/>
      <point x="907" y="589"/>
      <point x="1019" y="680" type="curve"/>
      <point x="1115" y="752"/>
      <point x="1140" y="791"/>
      <point x="1140" y="862" type="curve" smooth="yes"/>
      <point x="1140" y="925"/>
      <point x="1099" y="967"/>
      <point x="1015" y="967" type="curve" smooth="yes"/>
      <point x="947" y="967"/>
      <point x="864" y="940"/>
      <point x="765" y="887" type="curve"/>
      <point x="683" y="1065" type="line"/>
      <point x="786" y="1127"/>
      <point x="906" y="1163"/>
      <point x="1019" y="1163" type="curve" smooth="yes"/>
      <point x="1239" y="1163"/>
      <point x="1371" y="1054"/>
      <point x="1371" y="874" type="curve" smooth="yes"/>
      <point x="1371" y="757"/>
      <point x="1332" y="687"/>
      <point x="1195" y="578" type="curve" smooth="yes"/>
      <point x="1108" y="513"/>
      <point x="1086" y="481"/>
      <point x="1086" y="414" type="curve" smooth="yes"/>
      <point x="1086" y="367" type="line"/>
    </contour>
  </outline>
</glyph>
<glyph name="caron.alt" format="2">
  <advance width="344"/>
  <anchor x="346" y="1491" name="_topright"/>
  <outline>
    <contour>
      <point x="-2" y="1164" type="line"/>
      <point x="177" y="1164" type="line"/>
      <point x="214" y="1222"/>
      <point x="273" y="1332"/>
      <point x="346" y="1471" type="curve"/>
      <point x="346" y="1491" type="line"/>
      <point x="64" y="1491" type="line"/>
      <point x="53" y="1407"/>
      <point x="27" y="1292"/>
      <point x="-2" y="1188" type="curve"/>
    </contour>
  </outline>
</glyph>
<glyph name="eight.numr" format="2">
  <advance width="778.3"/>
  <note>
eightsuperior
</note>
  <outline>
    <contour>
      <point x="389.6" y="564.8" type="curve" smooth="yes"/>
      <point x="595.8" y="564.8"/>
      <point x="734.3" y="670.4"/>
      <point x="734.3" y="826.8" type="curve" smooth="yes"/>
      <point x="734.3" y="927.8"/>
      <point x="678.8" y="1000"/>
      <point x="551.4" y="1051" type="curve"/>
      <point x="660.8" y="1112"/>
      <point x="701.7" y="1174.4"/>
      <point x="701.7" y="1257" type="curve" smooth="yes"/>
      <point x="701.7" y="1395.8"/>
      <point x="579.2" y="1484.4"/>
      <point x="390.2" y="1484.4" type="curve" smooth="yes"/>
      <point x="199" y="1484.4"/>
      <point x="74.6" y="1395.7"/>
      <point x="74.6" y="1259.3" type="curve" smooth="yes"/>
      <point x="74.6" y="1169.2"/>
      <point x="114.8" y="1101.5"/>
      <point x="207.4" y="1042.7" type="curve"/>
      <point x="96.3" y="988.4"/>
      <point x="44" y="936.9"/>
      <point x="44" y="825" type="curve" smooth="yes"/>
      <point x="44" y="660"/>
      <point x="175" y="564.8"/>
    </contour>
    <contour>
      <point x="387.4" y="724.3" type="curve" smooth="yes"/>
      <point x="304.1" y="724.3"/>
      <point x="255.7" y="765"/>
      <point x="255.7" y="832.7" type="curve" smooth="yes"/>
      <point x="255.7" y="886.4"/>
      <point x="293.2" y="926"/>
      <point x="375.9" y="956.2" type="curve"/>
      <point x="483.9" y="921.8"/>
      <point x="520.3" y="887.2"/>
      <point x="520.3" y="827.1" type="curve" smooth="yes"/>
      <point x="520.3" y="760.9"/>
      <point x="475" y="724.3"/>
    </contour>
    <contour>
      <point x="390.2" y="1125.7" type="curve"/>
      <point x="311.7" y="1158.5"/>
      <point x="283" y="1192.1"/>
      <point x="283" y="1239.6" type="curve" smooth="yes"/>
      <point x="283" y="1290.2"/>
      <point x="319.7" y="1323.5"/>
      <point x="388.2" y="1323.5" type="curve" smooth="yes"/>
      <point x="455.8" y="1323.5"/>
      <point x="493.9" y="1291.3"/>
      <point x="493.9" y="1240.2" type="curve" smooth="yes"/>
      <point x="493.9" y="1186.2"/>
      <point x="456.2" y="1153.8"/>
    </contour>
  </outline>
</glyph>
<glyph name="five.numr" format="2">
  <advance width="778.3"/>
  <note>
fivesuperior
</note>
  <outline>
    <contour>
      <point x="343.9" y="570.4" type="curve" smooth="yes"/>
      <point x="584" y="570.4"/>
      <point x="718.9" y="682.8"/>
      <point x="718.9" y="874.9" type="curve" smooth="yes"/>
      <point x="718.9" y="1043.8"/>
      <point x="595.4" y="1152.1"/>
      <point x="403.8" y="1152.1" type="curve" smooth="yes"/>
      <point x="371.6" y="1152.1"/>
      <point x="332.8" y="1148.5"/>
      <point x="288.1" y="1142.3" type="curve"/>
      <point x="303.3" y="1290.7" type="line"/>
      <point x="658" y="1290.7" type="line"/>
      <point x="658" y="1467.6" type="line"/>
      <point x="141" y="1467.6" type="line"/>
      <point x="105.1" y="1025.1" type="line"/>
      <point x="217.7" y="983.3" type="line"/>
      <point x="251.5" y="994.4"/>
      <point x="288.7" y="1000.3"/>
      <point x="329.3" y="1000.3" type="curve" smooth="yes"/>
      <point x="440.4" y="1000.3"/>
      <point x="497" y="955.8"/>
      <point x="497" y="874.3" type="curve" smooth="yes"/>
      <point x="497" y="786.2"/>
      <point x="437.1" y="739.7"/>
      <point x="323.5" y="739.7" type="curve" smooth="yes"/>
      <point x="253.1" y="739.7"/>
      <point x="158.5" y="768"/>
      <point x="87.6" y="812.7" type="curve"/>
      <point x="87.6" y="622.8" type="line"/>
      <point x="152" y="589.2"/>
      <point x="242.9" y="570.4"/>
    </contour>
  </outline>
</glyph>
<glyph name="g569" format="2">
  <advance width="1024"/>
  <note>
g569
</note>
  <outline>
    <contour>
      <point x="350" y="-453" type="line"/>
      <point x="530" y="-453" type="line"/>
      <point x="592" y="-363"/>
      <point x="649" y="-254"/>
      <point x="692" y="-145" type="curve"/>
      <point x="692" y="-125" type="line"/>
      <point x="409" y="-125" type="line"/>
      <point x="403" y="-214"/>
      <point x="375" y="-354"/>
      <point x="350" y="-428" type="curve"/>
    </contour>
  </outline>
</glyph>
<glyph name="g889" format="2">
  <note>
g889
</note>
  <anchor x="-603" y="1129" name="_top"/>
  <outline>
    <contour>
      <point x="-979" y="1226" type="line"/>
      <point x="-816" y="1226" type="line"/>
      <point x="-745" y="1275"/>
      <point x="-674" y="1332"/>
      <point x="-603" y="1395" type="curve"/>
      <point x="-535" y="1334"/>
      <point x="-465" y="1277"/>
      <point x="-390" y="1226" type="curve"/>
      <point x="-227" y="1226" type="line"/>
      <point x="-227" y="1251" type="line"/>
      <point x="-296" y="1327"/>
      <point x="-369" y="1422"/>
      <point x="-446" y="1534" type="curve"/>
      <point x="-758" y="1534" type="line"/>
      <point x="-833" y="1424"/>
      <point x="-907" y="1329"/>
      <point x="-979" y="1251" type="curve"/>
    </contour>
    <contour>
      <point x="-278" y="1417" type="line"/>
      <point x="-149" y="1417" type="line"/>
      <point x="-144" y="1476" type="line"/>
      <point x="-60" y="1493"/>
      <point x="-17" y="1540"/>
      <point x="-17" y="1616" type="curve" smooth="yes"/>
      <point x="-17" y="1715"/>
      <point x="-90" y="1769"/>
      <point x="-221" y="1769" type="curve" smooth="yes"/>
      <point x="-264" y="1769"/>
      <point x="-296" y="1766"/>
      <point x="-317" y="1760" type="curve"/>
      <point x="-317" y="1632" type="line"/>
      <point x="-292" y="1638"/>
      <point x="-268" y="1642"/>
      <point x="-245" y="1642" type="curve" smooth="yes"/>
      <point x="-195" y="1642"/>
      <point x="-167" y="1627"/>
      <point x="-167" y="1591" type="curve" smooth="yes"/>
      <point x="-167" y="1553"/>
      <point x="-207" y="1536"/>
      <point x="-289" y="1532" type="curve"/>
    </contour>
  </outline>
</glyph>
<glyph name="g890" format="2">
  <note>
g890
</note>
  <anchor x="-598" y="1129" name="_top"/>
  <outline>
    <contour>
      <point x="-975" y="1226" type="line"/>
      <point x="-834" y="1226" type="line"/>
      <point x="-750" y="1268"/>
      <point x="-669" y="1309"/>
      <point x="-598" y="1370" type="curve"/>
      <point x="-543" y="1318"/>
      <point x="-464" y="1270"/>
      <point x="-363" y="1226" type="curve"/>
      <point x="-223" y="1226" type="line"/>
      <point x="-223" y="1251" type="line"/>
      <point x="-321" y="1340"/>
      <point x="-408" y="1424"/>
      <point x="-465" y="1503" type="curve"/>
      <point x="-731" y="1503" type="line"/>
      <point x="-782" y="1432"/>
      <point x="-848" y="1364"/>
      <point x="-975" y="1251" type="curve"/>
    </contour>
    <contour>
      <point x="-939" y="1548" type="curve"/>
      <point x="-829" y="1548" type="line"/>
      <point x="-813" y="1613"/>
      <point x="-792" y="1638"/>
      <point x="-731" y="1638" type="curve" smooth="yes"/>
      <point x="-704" y="1638"/>
      <point x="-660" y="1620"/>
      <point x="-600" y="1594" type="curve" smooth="yes"/>
      <point x="-539" y="1568"/>
      <point x="-490" y="1551"/>
      <point x="-452" y="1551" type="curve" smooth="yes"/>
      <point x="-345" y="1551"/>
      <point x="-269" y="1638"/>
      <point x="-253" y="1793" type="curve"/>
      <point x="-365" y="1793" type="line"/>
      <point x="-383" y="1728"/>
      <point x="-404" y="1702"/>
      <point x="-463" y="1702" type="curve" smooth="yes"/>
      <point x="-499" y="1702"/>
      <point x="-542" y="1725"/>
      <point x="-589" y="1747" type="curve" smooth="yes"/>
      <point x="-637" y="1769"/>
      <point x="-690" y="1791"/>
      <point x="-740" y="1791" type="curve" smooth="yes"/>
      <point x="-853" y="1791"/>
      <point x="-924" y="1702"/>
    </contour>
  </outline>
</glyph>
<glyph name="g891" format="2">
  <note>
g891
</note>
  <anchor x="-604" y="1131" name="_top"/>
  <outline>
    <contour>
      <point x="-604" y="1226" type="curve" smooth="yes"/>
      <point x="-377" y="1226"/>
      <point x="-253" y="1334"/>
      <point x="-243" y="1538" type="curve"/>
      <point x="-390" y="1538" type="line"/>
      <point x="-402" y="1437"/>
      <point x="-483" y="1380"/>
      <point x="-606" y="1380" type="curve" smooth="yes"/>
      <point x="-733" y="1380"/>
      <point x="-804" y="1435"/>
      <point x="-821" y="1538" type="curve"/>
      <point x="-975" y="1538" type="line"/>
      <point x="-960" y="1344"/>
      <point x="-820" y="1226"/>
    </contour>
    <contour>
      <point x="-713" y="1486" type="line"/>
      <point x="-585" y="1486" type="line"/>
      <point x="-527" y="1534"/>
      <point x="-453" y="1609"/>
      <point x="-382" y="1694" type="curve"/>
      <point x="-382" y="1714" type="line"/>
      <point x="-596" y="1714" type="line"/>
      <point x="-628" y="1649"/>
      <point x="-656" y="1601"/>
      <point x="-713" y="1511" type="curve"/>
    </contour>
  </outline>
</glyph>
<glyph name="g892" format="2">
  <note>
g892
</note>
  <anchor x="-604" y="1131" name="_top"/>
  <outline>
    <contour>
      <point x="-604" y="1226" type="curve" smooth="yes"/>
      <point x="-377" y="1226"/>
      <point x="-253" y="1334"/>
      <point x="-243" y="1538" type="curve"/>
      <point x="-390" y="1538" type="line"/>
      <point x="-402" y="1437"/>
      <point x="-483" y="1380"/>
      <point x="-606" y="1380" type="curve" smooth="yes"/>
      <point x="-733" y="1380"/>
      <point x="-804" y="1435"/>
      <point x="-821" y="1538" type="curve"/>
      <point x="-975" y="1538" type="line"/>
      <point x="-960" y="1344"/>
      <point x="-820" y="1226"/>
    </contour>
    <contour>
      <point x="-631" y="1486" type="curve"/>
      <point x="-503" y="1486" type="line"/>
      <point x="-503" y="1511" type="line"/>
      <point x="-562" y="1607"/>
      <point x="-558" y="1597"/>
      <point x="-621" y="1714" type="curve"/>
      <point x="-835" y="1714" type="line"/>
      <point x="-835" y="1694" type="line"/>
      <point x="-751" y="1601"/>
      <point x="-676" y="1524"/>
    </contour>
  </outline>
</glyph>
<glyph name="g893" format="2">
  <note>
g893
</note>
  <anchor x="-604" y="1126" name="_top"/>
  <outline>
    <contour>
      <point x="-604" y="1226" type="curve" smooth="yes"/>
      <point x="-377" y="1226"/>
      <point x="-253" y="1334"/>
      <point x="-243" y="1538" type="curve"/>
      <point x="-390" y="1538" type="line"/>
      <point x="-402" y="1437"/>
      <point x="-483" y="1380"/>
      <point x="-606" y="1380" type="curve" smooth="yes"/>
      <point x="-733" y="1380"/>
      <point x="-804" y="1435"/>
      <point x="-821" y="1538" type="curve"/>
      <point x="-975" y="1538" type="line"/>
      <point x="-960" y="1344"/>
      <point x="-820" y="1226"/>
    </contour>
    <contour>
      <point x="-681" y="1472" type="line"/>
      <point x="-575" y="1472" type="line"/>
      <point x="-569" y="1515" type="line"/>
      <point x="-494" y="1531"/>
      <point x="-456" y="1574"/>
      <point x="-456" y="1645" type="curve" smooth="yes"/>
      <point x="-456" y="1734"/>
      <point x="-521" y="1786"/>
      <point x="-637" y="1786" type="curve" smooth="yes"/>
      <point x="-679" y="1786"/>
      <point x="-713" y="1782"/>
      <point x="-739" y="1775" type="curve"/>
      <point x="-739" y="1660" type="line"/>
      <point x="-709" y="1667"/>
      <point x="-682" y="1670"/>
      <point x="-658" y="1670" type="curve" smooth="yes"/>
      <point x="-614" y="1670"/>
      <point x="-592" y="1654"/>
      <point x="-592" y="1623" type="curve" smooth="yes"/>
      <point x="-592" y="1587"/>
      <point x="-632" y="1571"/>
      <point x="-689" y="1566" type="curve"/>
    </contour>
  </outline>
</glyph>
